%TF.GenerationSoftware,KiCad,Pcbnew,(5.1.10)-1*%
%TF.CreationDate,2021-09-08T10:04:32-05:00*%
%TF.ProjectId,bq25504_breakout_module,62713235-3530-4345-9f62-7265616b6f75,rev?*%
%TF.SameCoordinates,Original*%
%TF.FileFunction,Copper,L1,Top*%
%TF.FilePolarity,Positive*%
%FSLAX46Y46*%
G04 Gerber Fmt 4.6, Leading zero omitted, Abs format (unit mm)*
G04 Created by KiCad (PCBNEW (5.1.10)-1) date 2021-09-08 10:04:32*
%MOMM*%
%LPD*%
G01*
G04 APERTURE LIST*
%TA.AperFunction,SMDPad,CuDef*%
%ADD10R,1.700000X1.700000*%
%TD*%
%TA.AperFunction,SMDPad,CuDef*%
%ADD11R,1.600000X4.300000*%
%TD*%
%TA.AperFunction,ComponentPad*%
%ADD12O,1.700000X1.700000*%
%TD*%
%TA.AperFunction,ComponentPad*%
%ADD13R,1.700000X1.700000*%
%TD*%
%TA.AperFunction,ComponentPad*%
%ADD14C,2.400000*%
%TD*%
%TA.AperFunction,ComponentPad*%
%ADD15R,2.400000X2.400000*%
%TD*%
%TA.AperFunction,ViaPad*%
%ADD16C,0.600000*%
%TD*%
%TA.AperFunction,ViaPad*%
%ADD17C,0.800000*%
%TD*%
%TA.AperFunction,ViaPad*%
%ADD18C,0.500000*%
%TD*%
%TA.AperFunction,Conductor*%
%ADD19C,0.254000*%
%TD*%
%TA.AperFunction,Conductor*%
%ADD20C,0.304800*%
%TD*%
%TA.AperFunction,Conductor*%
%ADD21C,0.508000*%
%TD*%
%TA.AperFunction,Conductor*%
%ADD22C,0.100000*%
%TD*%
G04 APERTURE END LIST*
D10*
%TO.P,U1,17*%
%TO.N,GND*%
X158040225Y-99270000D03*
%TO.P,U1,16*%
%TO.N,Net-(L1-Pad2)*%
%TA.AperFunction,SMDPad,CuDef*%
G36*
G01*
X157165225Y-98170000D02*
X157165225Y-97095000D01*
G75*
G02*
X157227725Y-97032500I62500J0D01*
G01*
X157352725Y-97032500D01*
G75*
G02*
X157415225Y-97095000I0J-62500D01*
G01*
X157415225Y-98170000D01*
G75*
G02*
X157352725Y-98232500I-62500J0D01*
G01*
X157227725Y-98232500D01*
G75*
G02*
X157165225Y-98170000I0J62500D01*
G01*
G37*
%TD.AperFunction*%
%TO.P,U1,15*%
%TO.N,Net-(C5-Pad1)*%
%TA.AperFunction,SMDPad,CuDef*%
G36*
G01*
X157665225Y-98170000D02*
X157665225Y-97095000D01*
G75*
G02*
X157727725Y-97032500I62500J0D01*
G01*
X157852725Y-97032500D01*
G75*
G02*
X157915225Y-97095000I0J-62500D01*
G01*
X157915225Y-98170000D01*
G75*
G02*
X157852725Y-98232500I-62500J0D01*
G01*
X157727725Y-98232500D01*
G75*
G02*
X157665225Y-98170000I0J62500D01*
G01*
G37*
%TD.AperFunction*%
%TO.P,U1,14*%
%TO.N,VBAT*%
%TA.AperFunction,SMDPad,CuDef*%
G36*
G01*
X158165225Y-98170000D02*
X158165225Y-97095000D01*
G75*
G02*
X158227725Y-97032500I62500J0D01*
G01*
X158352725Y-97032500D01*
G75*
G02*
X158415225Y-97095000I0J-62500D01*
G01*
X158415225Y-98170000D01*
G75*
G02*
X158352725Y-98232500I-62500J0D01*
G01*
X158227725Y-98232500D01*
G75*
G02*
X158165225Y-98170000I0J62500D01*
G01*
G37*
%TD.AperFunction*%
%TO.P,U1,13*%
%TO.N,GND*%
%TA.AperFunction,SMDPad,CuDef*%
G36*
G01*
X158665225Y-98170000D02*
X158665225Y-97095000D01*
G75*
G02*
X158727725Y-97032500I62500J0D01*
G01*
X158852725Y-97032500D01*
G75*
G02*
X158915225Y-97095000I0J-62500D01*
G01*
X158915225Y-98170000D01*
G75*
G02*
X158852725Y-98232500I-62500J0D01*
G01*
X158727725Y-98232500D01*
G75*
G02*
X158665225Y-98170000I0J62500D01*
G01*
G37*
%TD.AperFunction*%
%TO.P,U1,12*%
%TA.AperFunction,SMDPad,CuDef*%
G36*
G01*
X159077725Y-98582500D02*
X159077725Y-98457500D01*
G75*
G02*
X159140225Y-98395000I62500J0D01*
G01*
X160215225Y-98395000D01*
G75*
G02*
X160277725Y-98457500I0J-62500D01*
G01*
X160277725Y-98582500D01*
G75*
G02*
X160215225Y-98645000I-62500J0D01*
G01*
X159140225Y-98645000D01*
G75*
G02*
X159077725Y-98582500I0J62500D01*
G01*
G37*
%TD.AperFunction*%
%TO.P,U1,11*%
%TO.N,Net-(J2-Pad1)*%
%TA.AperFunction,SMDPad,CuDef*%
G36*
G01*
X159077725Y-99082500D02*
X159077725Y-98957500D01*
G75*
G02*
X159140225Y-98895000I62500J0D01*
G01*
X160215225Y-98895000D01*
G75*
G02*
X160277725Y-98957500I0J-62500D01*
G01*
X160277725Y-99082500D01*
G75*
G02*
X160215225Y-99145000I-62500J0D01*
G01*
X159140225Y-99145000D01*
G75*
G02*
X159077725Y-99082500I0J62500D01*
G01*
G37*
%TD.AperFunction*%
%TO.P,U1,10*%
%TO.N,Net-(R6-Pad2)*%
%TA.AperFunction,SMDPad,CuDef*%
G36*
G01*
X159077725Y-99582500D02*
X159077725Y-99457500D01*
G75*
G02*
X159140225Y-99395000I62500J0D01*
G01*
X160215225Y-99395000D01*
G75*
G02*
X160277725Y-99457500I0J-62500D01*
G01*
X160277725Y-99582500D01*
G75*
G02*
X160215225Y-99645000I-62500J0D01*
G01*
X159140225Y-99645000D01*
G75*
G02*
X159077725Y-99582500I0J62500D01*
G01*
G37*
%TD.AperFunction*%
%TO.P,U1,9*%
%TO.N,Net-(R5-Pad2)*%
%TA.AperFunction,SMDPad,CuDef*%
G36*
G01*
X159077725Y-100082500D02*
X159077725Y-99957500D01*
G75*
G02*
X159140225Y-99895000I62500J0D01*
G01*
X160215225Y-99895000D01*
G75*
G02*
X160277725Y-99957500I0J-62500D01*
G01*
X160277725Y-100082500D01*
G75*
G02*
X160215225Y-100145000I-62500J0D01*
G01*
X159140225Y-100145000D01*
G75*
G02*
X159077725Y-100082500I0J62500D01*
G01*
G37*
%TD.AperFunction*%
%TO.P,U1,8*%
%TO.N,Net-(R3-Pad2)*%
%TA.AperFunction,SMDPad,CuDef*%
G36*
G01*
X158665225Y-101445000D02*
X158665225Y-100370000D01*
G75*
G02*
X158727725Y-100307500I62500J0D01*
G01*
X158852725Y-100307500D01*
G75*
G02*
X158915225Y-100370000I0J-62500D01*
G01*
X158915225Y-101445000D01*
G75*
G02*
X158852725Y-101507500I-62500J0D01*
G01*
X158727725Y-101507500D01*
G75*
G02*
X158665225Y-101445000I0J62500D01*
G01*
G37*
%TD.AperFunction*%
%TO.P,U1,7*%
%TO.N,Net-(R1-Pad1)*%
%TA.AperFunction,SMDPad,CuDef*%
G36*
G01*
X158165225Y-101445000D02*
X158165225Y-100370000D01*
G75*
G02*
X158227725Y-100307500I62500J0D01*
G01*
X158352725Y-100307500D01*
G75*
G02*
X158415225Y-100370000I0J-62500D01*
G01*
X158415225Y-101445000D01*
G75*
G02*
X158352725Y-101507500I-62500J0D01*
G01*
X158227725Y-101507500D01*
G75*
G02*
X158165225Y-101445000I0J62500D01*
G01*
G37*
%TD.AperFunction*%
%TO.P,U1,6*%
%TO.N,Net-(R1-Pad2)*%
%TA.AperFunction,SMDPad,CuDef*%
G36*
G01*
X157665225Y-101445000D02*
X157665225Y-100370000D01*
G75*
G02*
X157727725Y-100307500I62500J0D01*
G01*
X157852725Y-100307500D01*
G75*
G02*
X157915225Y-100370000I0J-62500D01*
G01*
X157915225Y-101445000D01*
G75*
G02*
X157852725Y-101507500I-62500J0D01*
G01*
X157727725Y-101507500D01*
G75*
G02*
X157665225Y-101445000I0J62500D01*
G01*
G37*
%TD.AperFunction*%
%TO.P,U1,5*%
%TO.N,GND*%
%TA.AperFunction,SMDPad,CuDef*%
G36*
G01*
X157165225Y-101445000D02*
X157165225Y-100370000D01*
G75*
G02*
X157227725Y-100307500I62500J0D01*
G01*
X157352725Y-100307500D01*
G75*
G02*
X157415225Y-100370000I0J-62500D01*
G01*
X157415225Y-101445000D01*
G75*
G02*
X157352725Y-101507500I-62500J0D01*
G01*
X157227725Y-101507500D01*
G75*
G02*
X157165225Y-101445000I0J62500D01*
G01*
G37*
%TD.AperFunction*%
%TO.P,U1,4*%
%TO.N,Net-(C3-Pad1)*%
%TA.AperFunction,SMDPad,CuDef*%
G36*
G01*
X155802725Y-100082500D02*
X155802725Y-99957500D01*
G75*
G02*
X155865225Y-99895000I62500J0D01*
G01*
X156940225Y-99895000D01*
G75*
G02*
X157002725Y-99957500I0J-62500D01*
G01*
X157002725Y-100082500D01*
G75*
G02*
X156940225Y-100145000I-62500J0D01*
G01*
X155865225Y-100145000D01*
G75*
G02*
X155802725Y-100082500I0J62500D01*
G01*
G37*
%TD.AperFunction*%
%TO.P,U1,3*%
%TO.N,Net-(R8-Pad2)*%
%TA.AperFunction,SMDPad,CuDef*%
G36*
G01*
X155802725Y-99582500D02*
X155802725Y-99457500D01*
G75*
G02*
X155865225Y-99395000I62500J0D01*
G01*
X156940225Y-99395000D01*
G75*
G02*
X157002725Y-99457500I0J-62500D01*
G01*
X157002725Y-99582500D01*
G75*
G02*
X156940225Y-99645000I-62500J0D01*
G01*
X155865225Y-99645000D01*
G75*
G02*
X155802725Y-99582500I0J62500D01*
G01*
G37*
%TD.AperFunction*%
%TO.P,U1,2*%
%TO.N,VDC*%
%TA.AperFunction,SMDPad,CuDef*%
G36*
G01*
X155802725Y-99082500D02*
X155802725Y-98957500D01*
G75*
G02*
X155865225Y-98895000I62500J0D01*
G01*
X156940225Y-98895000D01*
G75*
G02*
X157002725Y-98957500I0J-62500D01*
G01*
X157002725Y-99082500D01*
G75*
G02*
X156940225Y-99145000I-62500J0D01*
G01*
X155865225Y-99145000D01*
G75*
G02*
X155802725Y-99082500I0J62500D01*
G01*
G37*
%TD.AperFunction*%
%TO.P,U1,1*%
%TO.N,GND*%
%TA.AperFunction,SMDPad,CuDef*%
G36*
G01*
X155802725Y-98582500D02*
X155802725Y-98457500D01*
G75*
G02*
X155865225Y-98395000I62500J0D01*
G01*
X156940225Y-98395000D01*
G75*
G02*
X157002725Y-98457500I0J-62500D01*
G01*
X157002725Y-98582500D01*
G75*
G02*
X156940225Y-98645000I-62500J0D01*
G01*
X155865225Y-98645000D01*
G75*
G02*
X155802725Y-98582500I0J62500D01*
G01*
G37*
%TD.AperFunction*%
%TD*%
%TO.P,R9,1*%
%TO.N,VDC*%
%TA.AperFunction,SMDPad,CuDef*%
G36*
G01*
X150620900Y-99754700D02*
X150620900Y-99279700D01*
G75*
G02*
X150858400Y-99042200I237500J0D01*
G01*
X151358400Y-99042200D01*
G75*
G02*
X151595900Y-99279700I0J-237500D01*
G01*
X151595900Y-99754700D01*
G75*
G02*
X151358400Y-99992200I-237500J0D01*
G01*
X150858400Y-99992200D01*
G75*
G02*
X150620900Y-99754700I0J237500D01*
G01*
G37*
%TD.AperFunction*%
%TO.P,R9,2*%
%TO.N,Net-(R8-Pad2)*%
%TA.AperFunction,SMDPad,CuDef*%
G36*
G01*
X152445900Y-99754700D02*
X152445900Y-99279700D01*
G75*
G02*
X152683400Y-99042200I237500J0D01*
G01*
X153183400Y-99042200D01*
G75*
G02*
X153420900Y-99279700I0J-237500D01*
G01*
X153420900Y-99754700D01*
G75*
G02*
X153183400Y-99992200I-237500J0D01*
G01*
X152683400Y-99992200D01*
G75*
G02*
X152445900Y-99754700I0J237500D01*
G01*
G37*
%TD.AperFunction*%
%TD*%
%TO.P,R8,2*%
%TO.N,Net-(R8-Pad2)*%
%TA.AperFunction,SMDPad,CuDef*%
G36*
G01*
X152027900Y-101862700D02*
X151552900Y-101862700D01*
G75*
G02*
X151315400Y-101625200I0J237500D01*
G01*
X151315400Y-101125200D01*
G75*
G02*
X151552900Y-100887700I237500J0D01*
G01*
X152027900Y-100887700D01*
G75*
G02*
X152265400Y-101125200I0J-237500D01*
G01*
X152265400Y-101625200D01*
G75*
G02*
X152027900Y-101862700I-237500J0D01*
G01*
G37*
%TD.AperFunction*%
%TO.P,R8,1*%
%TO.N,GND*%
%TA.AperFunction,SMDPad,CuDef*%
G36*
G01*
X152027900Y-103687700D02*
X151552900Y-103687700D01*
G75*
G02*
X151315400Y-103450200I0J237500D01*
G01*
X151315400Y-102950200D01*
G75*
G02*
X151552900Y-102712700I237500J0D01*
G01*
X152027900Y-102712700D01*
G75*
G02*
X152265400Y-102950200I0J-237500D01*
G01*
X152265400Y-103450200D01*
G75*
G02*
X152027900Y-103687700I-237500J0D01*
G01*
G37*
%TD.AperFunction*%
%TD*%
%TO.P,R7,2*%
%TO.N,GND*%
%TA.AperFunction,SMDPad,CuDef*%
G36*
G01*
X163850500Y-99830900D02*
X163850500Y-99355900D01*
G75*
G02*
X164088000Y-99118400I237500J0D01*
G01*
X164588000Y-99118400D01*
G75*
G02*
X164825500Y-99355900I0J-237500D01*
G01*
X164825500Y-99830900D01*
G75*
G02*
X164588000Y-100068400I-237500J0D01*
G01*
X164088000Y-100068400D01*
G75*
G02*
X163850500Y-99830900I0J237500D01*
G01*
G37*
%TD.AperFunction*%
%TO.P,R7,1*%
%TO.N,Net-(R6-Pad2)*%
%TA.AperFunction,SMDPad,CuDef*%
G36*
G01*
X162025500Y-99830900D02*
X162025500Y-99355900D01*
G75*
G02*
X162263000Y-99118400I237500J0D01*
G01*
X162763000Y-99118400D01*
G75*
G02*
X163000500Y-99355900I0J-237500D01*
G01*
X163000500Y-99830900D01*
G75*
G02*
X162763000Y-100068400I-237500J0D01*
G01*
X162263000Y-100068400D01*
G75*
G02*
X162025500Y-99830900I0J237500D01*
G01*
G37*
%TD.AperFunction*%
%TD*%
%TO.P,R6,2*%
%TO.N,Net-(R6-Pad2)*%
%TA.AperFunction,SMDPad,CuDef*%
G36*
G01*
X163850500Y-101583500D02*
X163850500Y-101108500D01*
G75*
G02*
X164088000Y-100871000I237500J0D01*
G01*
X164588000Y-100871000D01*
G75*
G02*
X164825500Y-101108500I0J-237500D01*
G01*
X164825500Y-101583500D01*
G75*
G02*
X164588000Y-101821000I-237500J0D01*
G01*
X164088000Y-101821000D01*
G75*
G02*
X163850500Y-101583500I0J237500D01*
G01*
G37*
%TD.AperFunction*%
%TO.P,R6,1*%
%TO.N,Net-(R5-Pad2)*%
%TA.AperFunction,SMDPad,CuDef*%
G36*
G01*
X162025500Y-101583500D02*
X162025500Y-101108500D01*
G75*
G02*
X162263000Y-100871000I237500J0D01*
G01*
X162763000Y-100871000D01*
G75*
G02*
X163000500Y-101108500I0J-237500D01*
G01*
X163000500Y-101583500D01*
G75*
G02*
X162763000Y-101821000I-237500J0D01*
G01*
X162263000Y-101821000D01*
G75*
G02*
X162025500Y-101583500I0J237500D01*
G01*
G37*
%TD.AperFunction*%
%TD*%
%TO.P,R5,2*%
%TO.N,Net-(R5-Pad2)*%
%TA.AperFunction,SMDPad,CuDef*%
G36*
G01*
X163850500Y-103386900D02*
X163850500Y-102911900D01*
G75*
G02*
X164088000Y-102674400I237500J0D01*
G01*
X164588000Y-102674400D01*
G75*
G02*
X164825500Y-102911900I0J-237500D01*
G01*
X164825500Y-103386900D01*
G75*
G02*
X164588000Y-103624400I-237500J0D01*
G01*
X164088000Y-103624400D01*
G75*
G02*
X163850500Y-103386900I0J237500D01*
G01*
G37*
%TD.AperFunction*%
%TO.P,R5,1*%
%TO.N,Net-(R1-Pad1)*%
%TA.AperFunction,SMDPad,CuDef*%
G36*
G01*
X162025500Y-103386900D02*
X162025500Y-102911900D01*
G75*
G02*
X162263000Y-102674400I237500J0D01*
G01*
X162763000Y-102674400D01*
G75*
G02*
X163000500Y-102911900I0J-237500D01*
G01*
X163000500Y-103386900D01*
G75*
G02*
X162763000Y-103624400I-237500J0D01*
G01*
X162263000Y-103624400D01*
G75*
G02*
X162025500Y-103386900I0J237500D01*
G01*
G37*
%TD.AperFunction*%
%TD*%
%TO.P,R4,2*%
%TO.N,GND*%
%TA.AperFunction,SMDPad,CuDef*%
G36*
G01*
X158833000Y-107026700D02*
X158833000Y-107501700D01*
G75*
G02*
X158595500Y-107739200I-237500J0D01*
G01*
X158095500Y-107739200D01*
G75*
G02*
X157858000Y-107501700I0J237500D01*
G01*
X157858000Y-107026700D01*
G75*
G02*
X158095500Y-106789200I237500J0D01*
G01*
X158595500Y-106789200D01*
G75*
G02*
X158833000Y-107026700I0J-237500D01*
G01*
G37*
%TD.AperFunction*%
%TO.P,R4,1*%
%TO.N,Net-(R3-Pad2)*%
%TA.AperFunction,SMDPad,CuDef*%
G36*
G01*
X160658000Y-107026700D02*
X160658000Y-107501700D01*
G75*
G02*
X160420500Y-107739200I-237500J0D01*
G01*
X159920500Y-107739200D01*
G75*
G02*
X159683000Y-107501700I0J237500D01*
G01*
X159683000Y-107026700D01*
G75*
G02*
X159920500Y-106789200I237500J0D01*
G01*
X160420500Y-106789200D01*
G75*
G02*
X160658000Y-107026700I0J-237500D01*
G01*
G37*
%TD.AperFunction*%
%TD*%
%TO.P,R3,2*%
%TO.N,Net-(R3-Pad2)*%
%TA.AperFunction,SMDPad,CuDef*%
G36*
G01*
X159683000Y-105647500D02*
X159683000Y-105172500D01*
G75*
G02*
X159920500Y-104935000I237500J0D01*
G01*
X160420500Y-104935000D01*
G75*
G02*
X160658000Y-105172500I0J-237500D01*
G01*
X160658000Y-105647500D01*
G75*
G02*
X160420500Y-105885000I-237500J0D01*
G01*
X159920500Y-105885000D01*
G75*
G02*
X159683000Y-105647500I0J237500D01*
G01*
G37*
%TD.AperFunction*%
%TO.P,R3,1*%
%TO.N,Net-(R1-Pad1)*%
%TA.AperFunction,SMDPad,CuDef*%
G36*
G01*
X157858000Y-105647500D02*
X157858000Y-105172500D01*
G75*
G02*
X158095500Y-104935000I237500J0D01*
G01*
X158595500Y-104935000D01*
G75*
G02*
X158833000Y-105172500I0J-237500D01*
G01*
X158833000Y-105647500D01*
G75*
G02*
X158595500Y-105885000I-237500J0D01*
G01*
X158095500Y-105885000D01*
G75*
G02*
X157858000Y-105647500I0J237500D01*
G01*
G37*
%TD.AperFunction*%
%TD*%
%TO.P,R2,2*%
%TO.N,GND*%
%TA.AperFunction,SMDPad,CuDef*%
G36*
G01*
X155312100Y-106798300D02*
X155787100Y-106798300D01*
G75*
G02*
X156024600Y-107035800I0J-237500D01*
G01*
X156024600Y-107535800D01*
G75*
G02*
X155787100Y-107773300I-237500J0D01*
G01*
X155312100Y-107773300D01*
G75*
G02*
X155074600Y-107535800I0J237500D01*
G01*
X155074600Y-107035800D01*
G75*
G02*
X155312100Y-106798300I237500J0D01*
G01*
G37*
%TD.AperFunction*%
%TO.P,R2,1*%
%TO.N,Net-(R1-Pad2)*%
%TA.AperFunction,SMDPad,CuDef*%
G36*
G01*
X155312100Y-104973300D02*
X155787100Y-104973300D01*
G75*
G02*
X156024600Y-105210800I0J-237500D01*
G01*
X156024600Y-105710800D01*
G75*
G02*
X155787100Y-105948300I-237500J0D01*
G01*
X155312100Y-105948300D01*
G75*
G02*
X155074600Y-105710800I0J237500D01*
G01*
X155074600Y-105210800D01*
G75*
G02*
X155312100Y-104973300I237500J0D01*
G01*
G37*
%TD.AperFunction*%
%TD*%
%TO.P,R1,2*%
%TO.N,Net-(R1-Pad2)*%
%TA.AperFunction,SMDPad,CuDef*%
G36*
G01*
X156929900Y-103445300D02*
X156929900Y-103920300D01*
G75*
G02*
X156692400Y-104157800I-237500J0D01*
G01*
X156192400Y-104157800D01*
G75*
G02*
X155954900Y-103920300I0J237500D01*
G01*
X155954900Y-103445300D01*
G75*
G02*
X156192400Y-103207800I237500J0D01*
G01*
X156692400Y-103207800D01*
G75*
G02*
X156929900Y-103445300I0J-237500D01*
G01*
G37*
%TD.AperFunction*%
%TO.P,R1,1*%
%TO.N,Net-(R1-Pad1)*%
%TA.AperFunction,SMDPad,CuDef*%
G36*
G01*
X158754900Y-103445300D02*
X158754900Y-103920300D01*
G75*
G02*
X158517400Y-104157800I-237500J0D01*
G01*
X158017400Y-104157800D01*
G75*
G02*
X157779900Y-103920300I0J237500D01*
G01*
X157779900Y-103445300D01*
G75*
G02*
X158017400Y-103207800I237500J0D01*
G01*
X158517400Y-103207800D01*
G75*
G02*
X158754900Y-103445300I0J-237500D01*
G01*
G37*
%TD.AperFunction*%
%TD*%
D11*
%TO.P,L1,2*%
%TO.N,Net-(L1-Pad2)*%
X155702000Y-92506800D03*
%TO.P,L1,1*%
%TO.N,VDC*%
X153002000Y-92506800D03*
%TD*%
D12*
%TO.P,J2,4*%
%TO.N,VBAT*%
X168000000Y-91380000D03*
%TO.P,J2,3*%
%TO.N,Net-(C5-Pad1)*%
X168000000Y-93920000D03*
%TO.P,J2,2*%
%TO.N,GND*%
X168000000Y-96460000D03*
D13*
%TO.P,J2,1*%
%TO.N,Net-(J2-Pad1)*%
X168000000Y-99000000D03*
%TD*%
D12*
%TO.P,J1,2*%
%TO.N,GND*%
X148000000Y-99040000D03*
D13*
%TO.P,J1,1*%
%TO.N,VDC*%
X148000000Y-96500000D03*
%TD*%
%TO.P,C6,2*%
%TO.N,GND*%
%TA.AperFunction,SMDPad,CuDef*%
G36*
G01*
X159787300Y-94954100D02*
X159787300Y-94479100D01*
G75*
G02*
X160024800Y-94241600I237500J0D01*
G01*
X160624800Y-94241600D01*
G75*
G02*
X160862300Y-94479100I0J-237500D01*
G01*
X160862300Y-94954100D01*
G75*
G02*
X160624800Y-95191600I-237500J0D01*
G01*
X160024800Y-95191600D01*
G75*
G02*
X159787300Y-94954100I0J237500D01*
G01*
G37*
%TD.AperFunction*%
%TO.P,C6,1*%
%TO.N,Net-(C5-Pad1)*%
%TA.AperFunction,SMDPad,CuDef*%
G36*
G01*
X158062300Y-94954100D02*
X158062300Y-94479100D01*
G75*
G02*
X158299800Y-94241600I237500J0D01*
G01*
X158899800Y-94241600D01*
G75*
G02*
X159137300Y-94479100I0J-237500D01*
G01*
X159137300Y-94954100D01*
G75*
G02*
X158899800Y-95191600I-237500J0D01*
G01*
X158299800Y-95191600D01*
G75*
G02*
X158062300Y-94954100I0J237500D01*
G01*
G37*
%TD.AperFunction*%
%TD*%
%TO.P,C5,2*%
%TO.N,GND*%
%TA.AperFunction,SMDPad,CuDef*%
G36*
G01*
X160143700Y-92778600D02*
X160143700Y-91828600D01*
G75*
G02*
X160393700Y-91578600I250000J0D01*
G01*
X161068700Y-91578600D01*
G75*
G02*
X161318700Y-91828600I0J-250000D01*
G01*
X161318700Y-92778600D01*
G75*
G02*
X161068700Y-93028600I-250000J0D01*
G01*
X160393700Y-93028600D01*
G75*
G02*
X160143700Y-92778600I0J250000D01*
G01*
G37*
%TD.AperFunction*%
%TO.P,C5,1*%
%TO.N,Net-(C5-Pad1)*%
%TA.AperFunction,SMDPad,CuDef*%
G36*
G01*
X158068700Y-92778600D02*
X158068700Y-91828600D01*
G75*
G02*
X158318700Y-91578600I250000J0D01*
G01*
X158993700Y-91578600D01*
G75*
G02*
X159243700Y-91828600I0J-250000D01*
G01*
X159243700Y-92778600D01*
G75*
G02*
X158993700Y-93028600I-250000J0D01*
G01*
X158318700Y-93028600D01*
G75*
G02*
X158068700Y-92778600I0J250000D01*
G01*
G37*
%TD.AperFunction*%
%TD*%
D14*
%TO.P,C4,2*%
%TO.N,GND*%
X160147000Y-80264000D03*
D15*
%TO.P,C4,1*%
%TO.N,VBAT*%
X155147000Y-80264000D03*
%TD*%
%TO.P,C3,2*%
%TO.N,GND*%
%TA.AperFunction,SMDPad,CuDef*%
G36*
G01*
X153635700Y-102612700D02*
X154110700Y-102612700D01*
G75*
G02*
X154348200Y-102850200I0J-237500D01*
G01*
X154348200Y-103450200D01*
G75*
G02*
X154110700Y-103687700I-237500J0D01*
G01*
X153635700Y-103687700D01*
G75*
G02*
X153398200Y-103450200I0J237500D01*
G01*
X153398200Y-102850200D01*
G75*
G02*
X153635700Y-102612700I237500J0D01*
G01*
G37*
%TD.AperFunction*%
%TO.P,C3,1*%
%TO.N,Net-(C3-Pad1)*%
%TA.AperFunction,SMDPad,CuDef*%
G36*
G01*
X153635700Y-100887700D02*
X154110700Y-100887700D01*
G75*
G02*
X154348200Y-101125200I0J-237500D01*
G01*
X154348200Y-101725200D01*
G75*
G02*
X154110700Y-101962700I-237500J0D01*
G01*
X153635700Y-101962700D01*
G75*
G02*
X153398200Y-101725200I0J237500D01*
G01*
X153398200Y-101125200D01*
G75*
G02*
X153635700Y-100887700I237500J0D01*
G01*
G37*
%TD.AperFunction*%
%TD*%
%TO.P,C2,2*%
%TO.N,GND*%
%TA.AperFunction,SMDPad,CuDef*%
G36*
G01*
X153742100Y-96554300D02*
X153742100Y-96079300D01*
G75*
G02*
X153979600Y-95841800I237500J0D01*
G01*
X154579600Y-95841800D01*
G75*
G02*
X154817100Y-96079300I0J-237500D01*
G01*
X154817100Y-96554300D01*
G75*
G02*
X154579600Y-96791800I-237500J0D01*
G01*
X153979600Y-96791800D01*
G75*
G02*
X153742100Y-96554300I0J237500D01*
G01*
G37*
%TD.AperFunction*%
%TO.P,C2,1*%
%TO.N,VDC*%
%TA.AperFunction,SMDPad,CuDef*%
G36*
G01*
X152017100Y-96554300D02*
X152017100Y-96079300D01*
G75*
G02*
X152254600Y-95841800I237500J0D01*
G01*
X152854600Y-95841800D01*
G75*
G02*
X153092100Y-96079300I0J-237500D01*
G01*
X153092100Y-96554300D01*
G75*
G02*
X152854600Y-96791800I-237500J0D01*
G01*
X152254600Y-96791800D01*
G75*
G02*
X152017100Y-96554300I0J237500D01*
G01*
G37*
%TD.AperFunction*%
%TD*%
D16*
%TO.N,GND*%
X157589220Y-99720400D03*
X158483300Y-98823780D03*
X157604460Y-98808540D03*
X158478220Y-99712780D03*
D17*
X168351200Y-85267800D03*
X169164000Y-80137000D03*
X163576000Y-73406000D03*
X154432000Y-72898000D03*
X150850600Y-73406000D03*
X144678400Y-73406000D03*
X144373600Y-80187800D03*
X144399000Y-87122000D03*
X144475200Y-90474800D03*
X144475200Y-95224600D03*
X144272000Y-102006400D03*
X144246600Y-105333800D03*
X144018000Y-109905800D03*
X144322800Y-115493800D03*
X147599400Y-115824000D03*
X152095200Y-115773200D03*
X158343600Y-115671600D03*
X164566600Y-115646200D03*
X169824400Y-115722400D03*
X170815000Y-111099600D03*
X171018200Y-105333800D03*
X170942000Y-101600000D03*
X170662600Y-95910400D03*
X170713400Y-91541600D03*
X171043600Y-87426800D03*
X166268400Y-82321400D03*
X149555200Y-83693000D03*
X148869400Y-89027000D03*
X158394400Y-89535000D03*
X154508200Y-88493600D03*
X149479000Y-92100400D03*
X165023800Y-95631000D03*
X162280600Y-93624400D03*
X147955000Y-102616000D03*
X148031200Y-107188000D03*
X151282400Y-111912400D03*
X155422600Y-111658400D03*
X160451800Y-111582200D03*
X164642800Y-111277400D03*
X168046400Y-108204000D03*
X168071800Y-103835200D03*
X166852600Y-101041200D03*
%TO.N,VBAT*%
X159054800Y-96139000D03*
X164096700Y-89827100D03*
%TO.N,Net-(R1-Pad1)*%
X158292800Y-102209600D03*
X160934400Y-103073200D03*
D18*
%TO.N,Net-(J2-Pad1)*%
X161315400Y-98907600D03*
X162814000Y-97536000D03*
%TD*%
D19*
%TO.N,GND*%
X153823200Y-103200200D02*
X153873200Y-103150200D01*
X151790400Y-103200200D02*
X153823200Y-103200200D01*
X153873200Y-105609400D02*
X155549600Y-107285800D01*
X153873200Y-103150200D02*
X153873200Y-105609400D01*
X158323900Y-107285800D02*
X158345500Y-107264200D01*
X155549600Y-107285800D02*
X158323900Y-107285800D01*
X158345500Y-107264200D02*
X158345500Y-107395640D01*
X158345500Y-107264200D02*
X158345500Y-107296580D01*
D20*
X158345500Y-107264200D02*
X158345500Y-107266100D01*
X158345500Y-107266100D02*
X159689800Y-108610400D01*
X159689800Y-108610400D02*
X160782000Y-108610400D01*
X160782000Y-108610400D02*
X161518600Y-107873800D01*
X161518600Y-107873800D02*
X161518600Y-105537000D01*
X161518600Y-105537000D02*
X162509200Y-104546400D01*
X162509200Y-104546400D02*
X164795200Y-104546400D01*
X164795200Y-104546400D02*
X165633400Y-103708200D01*
X165633400Y-100888800D02*
X164338000Y-99593400D01*
X165633400Y-103708200D02*
X165633400Y-100888800D01*
D19*
X157338215Y-98567990D02*
X158040225Y-99270000D01*
X157050715Y-98567990D02*
X157338215Y-98567990D01*
X157002725Y-98520000D02*
X157050715Y-98567990D01*
X156402725Y-98520000D02*
X157002725Y-98520000D01*
X158790225Y-97632500D02*
X158790225Y-98520000D01*
X157338215Y-99972010D02*
X158040225Y-99270000D01*
X157338215Y-100235362D02*
X157338215Y-99972010D01*
X157290225Y-100283352D02*
X157338215Y-100235362D01*
X157290225Y-100907500D02*
X157290225Y-100283352D01*
X159899725Y-98298000D02*
X159677725Y-98520000D01*
X162153600Y-98298000D02*
X159899725Y-98298000D01*
X162287799Y-98432199D02*
X162153600Y-98298000D01*
X163176799Y-98432199D02*
X162287799Y-98432199D01*
X164338000Y-99593400D02*
X163176799Y-98432199D01*
X158790225Y-98520000D02*
X158040225Y-99270000D01*
X159677725Y-98520000D02*
X158790225Y-98520000D01*
%TO.N,VDC*%
X156402725Y-99020000D02*
X155408000Y-99020000D01*
X155408000Y-99020000D02*
X155194000Y-98806000D01*
%TO.N,Net-(C3-Pad1)*%
X153873200Y-101425200D02*
X154606800Y-101425200D01*
X156012000Y-100020000D02*
X156402725Y-100020000D01*
X154606800Y-101425200D02*
X156012000Y-100020000D01*
%TO.N,VBAT*%
X158290225Y-96878175D02*
X159029400Y-96139000D01*
X158290225Y-97632500D02*
X158290225Y-96878175D01*
D21*
X155702000Y-81432400D02*
X155702000Y-81407000D01*
X164109400Y-89839800D02*
X164096700Y-89827100D01*
X166447100Y-89827100D02*
X164096700Y-89827100D01*
X168000000Y-91380000D02*
X166447100Y-89827100D01*
X164096700Y-89213700D02*
X155147000Y-80264000D01*
X164096700Y-89827100D02*
X164096700Y-89213700D01*
D19*
%TO.N,Net-(C5-Pad1)*%
X157790225Y-95526175D02*
X158599800Y-94716600D01*
X157790225Y-97632500D02*
X157790225Y-95526175D01*
D21*
X158599800Y-92360000D02*
X158656200Y-92303600D01*
X158599800Y-94716600D02*
X158599800Y-92360000D01*
X158656200Y-92303600D02*
X160154800Y-90805000D01*
X160154800Y-90805000D02*
X164885000Y-90805000D01*
X164885000Y-90805000D02*
X168000000Y-93920000D01*
D20*
%TO.N,Net-(R1-Pad2)*%
X156442400Y-104568000D02*
X155549600Y-105460800D01*
X156442400Y-103682800D02*
X156442400Y-104568000D01*
D19*
X157790225Y-101558352D02*
X157790225Y-100907500D01*
X156442400Y-102906177D02*
X157790225Y-101558352D01*
X156442400Y-103682800D02*
X156442400Y-102906177D01*
%TO.N,Net-(R1-Pad1)*%
X158267400Y-103682800D02*
X158267400Y-102895400D01*
X158267400Y-102895400D02*
X158290225Y-102872575D01*
X158290225Y-102212175D02*
X158292800Y-102209600D01*
X158290225Y-102872575D02*
X158290225Y-102212175D01*
X158290225Y-102212175D02*
X158290225Y-100907500D01*
D20*
X162436800Y-103073200D02*
X162513000Y-103149400D01*
X160934400Y-103073200D02*
X162436800Y-103073200D01*
X158267400Y-105331900D02*
X158345500Y-105410000D01*
X158267400Y-103682800D02*
X158267400Y-105331900D01*
D19*
%TO.N,Net-(R3-Pad2)*%
X158790225Y-100907500D02*
X158790225Y-101631063D01*
X160170500Y-103011338D02*
X160170500Y-105410000D01*
X158790225Y-101631063D02*
X160170500Y-103011338D01*
D20*
X160170500Y-105410000D02*
X160170500Y-107264200D01*
D19*
%TO.N,Net-(R5-Pad2)*%
X162513000Y-101346000D02*
X162102800Y-101346000D01*
X160776800Y-100020000D02*
X159677725Y-100020000D01*
X162102800Y-101346000D02*
X160776800Y-100020000D01*
X164316400Y-103149400D02*
X162513000Y-101346000D01*
X164338000Y-103149400D02*
X164316400Y-103149400D01*
D20*
%TO.N,Net-(R6-Pad2)*%
X164265600Y-101346000D02*
X162513000Y-99593400D01*
X164338000Y-101346000D02*
X164265600Y-101346000D01*
D19*
X162513000Y-99593400D02*
X162439600Y-99520000D01*
X162439600Y-99520000D02*
X159677725Y-99520000D01*
%TO.N,Net-(R8-Pad2)*%
X151790400Y-100660200D02*
X152933400Y-99517200D01*
X151790400Y-101375200D02*
X151790400Y-100660200D01*
X156399925Y-99517200D02*
X156402725Y-99520000D01*
X152933400Y-99517200D02*
X156399925Y-99517200D01*
%TO.N,Net-(J2-Pad1)*%
X161330000Y-99020000D02*
X161340800Y-99009200D01*
X159677725Y-99020000D02*
X161330000Y-99020000D01*
D20*
X166536000Y-97536000D02*
X168000000Y-99000000D01*
X162814000Y-97536000D02*
X166536000Y-97536000D01*
%TD*%
D19*
%TO.N,VDC*%
X153924000Y-94951452D02*
X153443830Y-95551664D01*
X153430257Y-95572535D01*
X153421018Y-95595654D01*
X153416000Y-95631000D01*
X153416000Y-95824091D01*
X153406478Y-95841905D01*
X153371177Y-95958277D01*
X153359257Y-96079300D01*
X153359257Y-96554300D01*
X153371177Y-96675323D01*
X153406478Y-96791695D01*
X153416000Y-96809509D01*
X153416000Y-97536000D01*
X153418440Y-97560776D01*
X153425667Y-97584601D01*
X153437403Y-97606557D01*
X153453197Y-97625803D01*
X153472443Y-97641597D01*
X153494399Y-97653333D01*
X153518224Y-97660560D01*
X153543000Y-97663000D01*
X153755425Y-97663000D01*
X155487243Y-98933000D01*
X153697509Y-98933000D01*
X153622049Y-98841051D01*
X153528044Y-98763904D01*
X153420795Y-98706578D01*
X153304423Y-98671277D01*
X153183400Y-98659357D01*
X152683400Y-98659357D01*
X152562377Y-98671277D01*
X152446005Y-98706578D01*
X152338756Y-98763904D01*
X152244751Y-98841051D01*
X152169291Y-98933000D01*
X151765000Y-98933000D01*
X151740224Y-98935440D01*
X151716399Y-98942667D01*
X151694443Y-98954403D01*
X151675197Y-98970197D01*
X151659403Y-98989443D01*
X151647667Y-99011399D01*
X151640440Y-99035224D01*
X151638000Y-99060000D01*
X151638000Y-99896394D01*
X151458394Y-100076000D01*
X150368000Y-100076000D01*
X150368000Y-98679000D01*
X150365560Y-98654224D01*
X150358333Y-98630399D01*
X150346597Y-98608443D01*
X150325374Y-98584079D01*
X149361684Y-97727466D01*
X149380537Y-97704494D01*
X149439502Y-97594180D01*
X149475812Y-97474482D01*
X149488072Y-97350000D01*
X149485000Y-96785750D01*
X149326250Y-96627000D01*
X148127000Y-96627000D01*
X148127000Y-96647000D01*
X147873000Y-96647000D01*
X147873000Y-96627000D01*
X147853000Y-96627000D01*
X147853000Y-96373000D01*
X147873000Y-96373000D01*
X147873000Y-96353000D01*
X148127000Y-96353000D01*
X148127000Y-96373000D01*
X149326250Y-96373000D01*
X149485000Y-96214250D01*
X149488072Y-95650000D01*
X149475812Y-95525518D01*
X149469285Y-95504000D01*
X150495000Y-95504000D01*
X150519776Y-95501560D01*
X150543601Y-95494333D01*
X150574336Y-95476170D01*
X151844336Y-94460170D01*
X151862159Y-94442787D01*
X151876248Y-94422261D01*
X151886062Y-94399380D01*
X151891223Y-94375025D01*
X151892000Y-94361000D01*
X151892000Y-92202000D01*
X153924000Y-92202000D01*
X153924000Y-94951452D01*
%TA.AperFunction,Conductor*%
D22*
G36*
X153924000Y-94951452D02*
G01*
X153443830Y-95551664D01*
X153430257Y-95572535D01*
X153421018Y-95595654D01*
X153416000Y-95631000D01*
X153416000Y-95824091D01*
X153406478Y-95841905D01*
X153371177Y-95958277D01*
X153359257Y-96079300D01*
X153359257Y-96554300D01*
X153371177Y-96675323D01*
X153406478Y-96791695D01*
X153416000Y-96809509D01*
X153416000Y-97536000D01*
X153418440Y-97560776D01*
X153425667Y-97584601D01*
X153437403Y-97606557D01*
X153453197Y-97625803D01*
X153472443Y-97641597D01*
X153494399Y-97653333D01*
X153518224Y-97660560D01*
X153543000Y-97663000D01*
X153755425Y-97663000D01*
X155487243Y-98933000D01*
X153697509Y-98933000D01*
X153622049Y-98841051D01*
X153528044Y-98763904D01*
X153420795Y-98706578D01*
X153304423Y-98671277D01*
X153183400Y-98659357D01*
X152683400Y-98659357D01*
X152562377Y-98671277D01*
X152446005Y-98706578D01*
X152338756Y-98763904D01*
X152244751Y-98841051D01*
X152169291Y-98933000D01*
X151765000Y-98933000D01*
X151740224Y-98935440D01*
X151716399Y-98942667D01*
X151694443Y-98954403D01*
X151675197Y-98970197D01*
X151659403Y-98989443D01*
X151647667Y-99011399D01*
X151640440Y-99035224D01*
X151638000Y-99060000D01*
X151638000Y-99896394D01*
X151458394Y-100076000D01*
X150368000Y-100076000D01*
X150368000Y-98679000D01*
X150365560Y-98654224D01*
X150358333Y-98630399D01*
X150346597Y-98608443D01*
X150325374Y-98584079D01*
X149361684Y-97727466D01*
X149380537Y-97704494D01*
X149439502Y-97594180D01*
X149475812Y-97474482D01*
X149488072Y-97350000D01*
X149485000Y-96785750D01*
X149326250Y-96627000D01*
X148127000Y-96627000D01*
X148127000Y-96647000D01*
X147873000Y-96647000D01*
X147873000Y-96627000D01*
X147853000Y-96627000D01*
X147853000Y-96373000D01*
X147873000Y-96373000D01*
X147873000Y-96353000D01*
X148127000Y-96353000D01*
X148127000Y-96373000D01*
X149326250Y-96373000D01*
X149485000Y-96214250D01*
X149488072Y-95650000D01*
X149475812Y-95525518D01*
X149469285Y-95504000D01*
X150495000Y-95504000D01*
X150519776Y-95501560D01*
X150543601Y-95494333D01*
X150574336Y-95476170D01*
X151844336Y-94460170D01*
X151862159Y-94442787D01*
X151876248Y-94422261D01*
X151886062Y-94399380D01*
X151891223Y-94375025D01*
X151892000Y-94361000D01*
X151892000Y-92202000D01*
X153924000Y-92202000D01*
X153924000Y-94951452D01*
G37*
%TD.AperFunction*%
%TD*%
D19*
%TO.N,Net-(L1-Pad2)*%
X156845000Y-95377000D02*
X156847440Y-95401776D01*
X156854667Y-95425601D01*
X156866403Y-95447557D01*
X156882197Y-95466803D01*
X156901443Y-95482597D01*
X156923399Y-95494333D01*
X156947224Y-95501560D01*
X156972000Y-95504000D01*
X157226000Y-95504000D01*
X157226000Y-97647124D01*
X156322059Y-95952235D01*
X156321820Y-95951789D01*
X155448000Y-94328980D01*
X155448000Y-92329000D01*
X156845000Y-92329000D01*
X156845000Y-95377000D01*
%TA.AperFunction,Conductor*%
D22*
G36*
X156845000Y-95377000D02*
G01*
X156847440Y-95401776D01*
X156854667Y-95425601D01*
X156866403Y-95447557D01*
X156882197Y-95466803D01*
X156901443Y-95482597D01*
X156923399Y-95494333D01*
X156947224Y-95501560D01*
X156972000Y-95504000D01*
X157226000Y-95504000D01*
X157226000Y-97647124D01*
X156322059Y-95952235D01*
X156321820Y-95951789D01*
X155448000Y-94328980D01*
X155448000Y-92329000D01*
X156845000Y-92329000D01*
X156845000Y-95377000D01*
G37*
%TD.AperFunction*%
%TD*%
D19*
%TO.N,GND*%
X171594001Y-116594000D02*
X143406000Y-116594000D01*
X143406000Y-112276089D01*
X144958000Y-112276089D01*
X144958000Y-112666311D01*
X145034129Y-113049036D01*
X145183461Y-113409555D01*
X145400257Y-113734014D01*
X145676186Y-114009943D01*
X146000645Y-114226739D01*
X146361164Y-114376071D01*
X146743889Y-114452200D01*
X147134111Y-114452200D01*
X147516836Y-114376071D01*
X147877355Y-114226739D01*
X148201814Y-114009943D01*
X148477743Y-113734014D01*
X148694539Y-113409555D01*
X148843871Y-113049036D01*
X148920000Y-112666311D01*
X148920000Y-112276089D01*
X165963800Y-112276089D01*
X165963800Y-112666311D01*
X166039929Y-113049036D01*
X166189261Y-113409555D01*
X166406057Y-113734014D01*
X166681986Y-114009943D01*
X167006445Y-114226739D01*
X167366964Y-114376071D01*
X167749689Y-114452200D01*
X168139911Y-114452200D01*
X168522636Y-114376071D01*
X168883155Y-114226739D01*
X169207614Y-114009943D01*
X169483543Y-113734014D01*
X169700339Y-113409555D01*
X169849671Y-113049036D01*
X169925800Y-112666311D01*
X169925800Y-112276089D01*
X169849671Y-111893364D01*
X169700339Y-111532845D01*
X169483543Y-111208386D01*
X169207614Y-110932457D01*
X168883155Y-110715661D01*
X168522636Y-110566329D01*
X168139911Y-110490200D01*
X167749689Y-110490200D01*
X167366964Y-110566329D01*
X167006445Y-110715661D01*
X166681986Y-110932457D01*
X166406057Y-111208386D01*
X166189261Y-111532845D01*
X166039929Y-111893364D01*
X165963800Y-112276089D01*
X148920000Y-112276089D01*
X148843871Y-111893364D01*
X148694539Y-111532845D01*
X148477743Y-111208386D01*
X148201814Y-110932457D01*
X147877355Y-110715661D01*
X147516836Y-110566329D01*
X147134111Y-110490200D01*
X146743889Y-110490200D01*
X146361164Y-110566329D01*
X146000645Y-110715661D01*
X145676186Y-110932457D01*
X145400257Y-111208386D01*
X145183461Y-111532845D01*
X145034129Y-111893364D01*
X144958000Y-112276089D01*
X143406000Y-112276089D01*
X143406000Y-99396890D01*
X146558524Y-99396890D01*
X146603175Y-99544099D01*
X146728359Y-99806920D01*
X146902412Y-100040269D01*
X147118645Y-100235178D01*
X147368748Y-100384157D01*
X147643109Y-100481481D01*
X147873000Y-100360814D01*
X147873000Y-99167000D01*
X148127000Y-99167000D01*
X148127000Y-100360814D01*
X148356891Y-100481481D01*
X148631252Y-100384157D01*
X148881355Y-100235178D01*
X149097588Y-100040269D01*
X149271641Y-99806920D01*
X149396825Y-99544099D01*
X149441476Y-99396890D01*
X149320155Y-99167000D01*
X148127000Y-99167000D01*
X147873000Y-99167000D01*
X146679845Y-99167000D01*
X146558524Y-99396890D01*
X143406000Y-99396890D01*
X143406000Y-95377000D01*
X146558000Y-95377000D01*
X146558000Y-97663000D01*
X146565321Y-97737329D01*
X146587002Y-97808802D01*
X146622210Y-97874672D01*
X146669592Y-97932408D01*
X146727328Y-97979790D01*
X146793198Y-98014998D01*
X146864671Y-98036679D01*
X146901950Y-98040351D01*
X146728359Y-98273080D01*
X146603175Y-98535901D01*
X146558524Y-98683110D01*
X146679845Y-98913000D01*
X147873000Y-98913000D01*
X147873000Y-98893000D01*
X148127000Y-98893000D01*
X148127000Y-98913000D01*
X149320155Y-98913000D01*
X149441476Y-98683110D01*
X149396825Y-98535901D01*
X149316271Y-98366780D01*
X149860000Y-98850095D01*
X149860000Y-100203000D01*
X149867321Y-100277329D01*
X149889002Y-100348802D01*
X149924210Y-100414672D01*
X149971592Y-100472408D01*
X150029328Y-100519790D01*
X150095198Y-100554998D01*
X150123000Y-100563432D01*
X150123000Y-109500000D01*
X150125440Y-109524776D01*
X150132667Y-109548601D01*
X150144403Y-109570557D01*
X150160197Y-109589803D01*
X150179443Y-109605597D01*
X150201399Y-109617333D01*
X150225224Y-109624560D01*
X150250000Y-109627000D01*
X166000000Y-109627000D01*
X166024776Y-109624560D01*
X166048601Y-109617333D01*
X166070557Y-109605597D01*
X166089803Y-109589803D01*
X166105597Y-109570557D01*
X166117333Y-109548601D01*
X166124560Y-109524776D01*
X166127000Y-109500000D01*
X166127000Y-99492442D01*
X166140226Y-98069400D01*
X166315059Y-98069400D01*
X166767157Y-98521498D01*
X166767157Y-99850000D01*
X166774513Y-99924689D01*
X166796299Y-99996508D01*
X166831678Y-100062696D01*
X166879289Y-100120711D01*
X166937304Y-100168322D01*
X167003492Y-100203701D01*
X167075311Y-100225487D01*
X167150000Y-100232843D01*
X168850000Y-100232843D01*
X168924689Y-100225487D01*
X168996508Y-100203701D01*
X169062696Y-100168322D01*
X169120711Y-100120711D01*
X169168322Y-100062696D01*
X169203701Y-99996508D01*
X169225487Y-99924689D01*
X169232843Y-99850000D01*
X169232843Y-98150000D01*
X169225487Y-98075311D01*
X169203701Y-98003492D01*
X169168322Y-97937304D01*
X169120711Y-97879289D01*
X169062696Y-97831678D01*
X168996508Y-97796299D01*
X168924689Y-97774513D01*
X168850000Y-97767157D01*
X168693367Y-97767157D01*
X168881355Y-97655178D01*
X169097588Y-97460269D01*
X169271641Y-97226920D01*
X169396825Y-96964099D01*
X169441476Y-96816890D01*
X169320155Y-96587000D01*
X168127000Y-96587000D01*
X168127000Y-96607000D01*
X167873000Y-96607000D01*
X167873000Y-96587000D01*
X166679845Y-96587000D01*
X166558524Y-96816890D01*
X166603175Y-96964099D01*
X166624433Y-97008730D01*
X166562195Y-97002600D01*
X166562187Y-97002600D01*
X166536000Y-97000021D01*
X166509813Y-97002600D01*
X163151481Y-97002600D01*
X163112891Y-96976815D01*
X162998056Y-96929249D01*
X162876148Y-96905000D01*
X162751852Y-96905000D01*
X162629944Y-96929249D01*
X162515109Y-96976815D01*
X162411761Y-97045870D01*
X162323870Y-97133761D01*
X162254815Y-97237109D01*
X162207249Y-97351944D01*
X162183000Y-97473852D01*
X162183000Y-97598148D01*
X162207249Y-97720056D01*
X162254815Y-97834891D01*
X162278761Y-97870729D01*
X160668647Y-97894582D01*
X160622403Y-97858033D01*
X160511023Y-97801108D01*
X160390677Y-97767005D01*
X160265991Y-97757036D01*
X159963475Y-97760000D01*
X159816265Y-97907210D01*
X159543230Y-97911255D01*
X159391475Y-97759500D01*
X159340943Y-97759500D01*
X159089459Y-97757036D01*
X159058641Y-97759500D01*
X158798068Y-97759500D01*
X158798068Y-97659041D01*
X158798225Y-97657447D01*
X158798225Y-97505500D01*
X159391475Y-97505500D01*
X159550225Y-97346750D01*
X159553189Y-97044234D01*
X159543220Y-96919548D01*
X159509117Y-96799202D01*
X159499796Y-96780964D01*
X159552659Y-96745642D01*
X159661442Y-96636859D01*
X159746913Y-96508942D01*
X159805787Y-96366809D01*
X159835800Y-96215922D01*
X159835800Y-96062078D01*
X159805787Y-95911191D01*
X159771371Y-95828103D01*
X159787300Y-95829672D01*
X160039050Y-95826600D01*
X160197800Y-95667850D01*
X160197800Y-94843600D01*
X160451800Y-94843600D01*
X160451800Y-95667850D01*
X160610550Y-95826600D01*
X160862300Y-95829672D01*
X160986782Y-95817412D01*
X161106480Y-95781102D01*
X161216794Y-95722137D01*
X161313485Y-95642785D01*
X161392837Y-95546094D01*
X161451802Y-95435780D01*
X161488112Y-95316082D01*
X161500372Y-95191600D01*
X161497300Y-95002350D01*
X161338550Y-94843600D01*
X160451800Y-94843600D01*
X160197800Y-94843600D01*
X160177800Y-94843600D01*
X160177800Y-94589600D01*
X160197800Y-94589600D01*
X160197800Y-94569600D01*
X160451800Y-94569600D01*
X160451800Y-94589600D01*
X161338550Y-94589600D01*
X161497300Y-94430850D01*
X161500372Y-94241600D01*
X161488112Y-94117118D01*
X161451802Y-93997420D01*
X161392837Y-93887106D01*
X161313485Y-93790415D01*
X161216794Y-93711063D01*
X161130155Y-93664752D01*
X161318700Y-93666672D01*
X161443182Y-93654412D01*
X161562880Y-93618102D01*
X161673194Y-93559137D01*
X161769885Y-93479785D01*
X161849237Y-93383094D01*
X161908202Y-93272780D01*
X161944512Y-93153082D01*
X161956772Y-93028600D01*
X161953700Y-92589350D01*
X161794950Y-92430600D01*
X160858200Y-92430600D01*
X160858200Y-92450600D01*
X160604200Y-92450600D01*
X160604200Y-92430600D01*
X160584200Y-92430600D01*
X160584200Y-92176600D01*
X160604200Y-92176600D01*
X160604200Y-92156600D01*
X160858200Y-92156600D01*
X160858200Y-92176600D01*
X161794950Y-92176600D01*
X161953700Y-92017850D01*
X161956772Y-91578600D01*
X161944512Y-91454118D01*
X161940229Y-91440000D01*
X164621976Y-91440000D01*
X166804129Y-93622154D01*
X166769000Y-93798757D01*
X166769000Y-94041243D01*
X166816307Y-94279069D01*
X166909102Y-94503097D01*
X167043820Y-94704717D01*
X167215283Y-94876180D01*
X167416903Y-95010898D01*
X167531168Y-95058228D01*
X167368748Y-95115843D01*
X167118645Y-95264822D01*
X166902412Y-95459731D01*
X166728359Y-95693080D01*
X166603175Y-95955901D01*
X166558524Y-96103110D01*
X166679845Y-96333000D01*
X167873000Y-96333000D01*
X167873000Y-96313000D01*
X168127000Y-96313000D01*
X168127000Y-96333000D01*
X169320155Y-96333000D01*
X169441476Y-96103110D01*
X169396825Y-95955901D01*
X169271641Y-95693080D01*
X169097588Y-95459731D01*
X168881355Y-95264822D01*
X168631252Y-95115843D01*
X168468832Y-95058228D01*
X168583097Y-95010898D01*
X168784717Y-94876180D01*
X168956180Y-94704717D01*
X169090898Y-94503097D01*
X169183693Y-94279069D01*
X169231000Y-94041243D01*
X169231000Y-93798757D01*
X169183693Y-93560931D01*
X169090898Y-93336903D01*
X168956180Y-93135283D01*
X168784717Y-92963820D01*
X168583097Y-92829102D01*
X168359069Y-92736307D01*
X168121243Y-92689000D01*
X167878757Y-92689000D01*
X167702154Y-92724129D01*
X167471564Y-92493539D01*
X167640931Y-92563693D01*
X167878757Y-92611000D01*
X168121243Y-92611000D01*
X168359069Y-92563693D01*
X168583097Y-92470898D01*
X168784717Y-92336180D01*
X168956180Y-92164717D01*
X169090898Y-91963097D01*
X169183693Y-91739069D01*
X169231000Y-91501243D01*
X169231000Y-91258757D01*
X169183693Y-91020931D01*
X169090898Y-90796903D01*
X168956180Y-90595283D01*
X168784717Y-90423820D01*
X168583097Y-90289102D01*
X168359069Y-90196307D01*
X168121243Y-90149000D01*
X167878757Y-90149000D01*
X167702153Y-90184129D01*
X166918174Y-89400150D01*
X166898285Y-89375915D01*
X166801594Y-89296563D01*
X166691280Y-89237598D01*
X166571582Y-89201288D01*
X166478292Y-89192100D01*
X166478281Y-89192100D01*
X166447100Y-89189029D01*
X166415919Y-89192100D01*
X164732644Y-89192100D01*
X164731700Y-89182518D01*
X164731700Y-89182508D01*
X164722512Y-89089218D01*
X164686202Y-88969520D01*
X164627237Y-88859206D01*
X164547885Y-88762515D01*
X164523655Y-88742630D01*
X157323005Y-81541980D01*
X159048626Y-81541980D01*
X159168514Y-81826836D01*
X159492210Y-81987699D01*
X159841069Y-82082322D01*
X160201684Y-82107067D01*
X160560198Y-82060985D01*
X160902833Y-81945846D01*
X161125486Y-81826836D01*
X161245374Y-81541980D01*
X160147000Y-80443605D01*
X159048626Y-81541980D01*
X157323005Y-81541980D01*
X156729843Y-80948819D01*
X156729843Y-80318684D01*
X158303933Y-80318684D01*
X158350015Y-80677198D01*
X158465154Y-81019833D01*
X158584164Y-81242486D01*
X158869020Y-81362374D01*
X159967395Y-80264000D01*
X160326605Y-80264000D01*
X161424980Y-81362374D01*
X161709836Y-81242486D01*
X161870699Y-80918790D01*
X161965322Y-80569931D01*
X161990067Y-80209316D01*
X161943985Y-79850802D01*
X161828846Y-79508167D01*
X161709836Y-79285514D01*
X161424980Y-79165626D01*
X160326605Y-80264000D01*
X159967395Y-80264000D01*
X158869020Y-79165626D01*
X158584164Y-79285514D01*
X158423301Y-79609210D01*
X158328678Y-79958069D01*
X158303933Y-80318684D01*
X156729843Y-80318684D01*
X156729843Y-79064000D01*
X156722487Y-78989311D01*
X156721489Y-78986020D01*
X159048626Y-78986020D01*
X160147000Y-80084395D01*
X161245374Y-78986020D01*
X161125486Y-78701164D01*
X160801790Y-78540301D01*
X160452931Y-78445678D01*
X160092316Y-78420933D01*
X159733802Y-78467015D01*
X159391167Y-78582154D01*
X159168514Y-78701164D01*
X159048626Y-78986020D01*
X156721489Y-78986020D01*
X156700701Y-78917492D01*
X156665322Y-78851304D01*
X156617711Y-78793289D01*
X156559696Y-78745678D01*
X156493508Y-78710299D01*
X156421689Y-78688513D01*
X156347000Y-78681157D01*
X153947000Y-78681157D01*
X153872311Y-78688513D01*
X153800492Y-78710299D01*
X153734304Y-78745678D01*
X153676289Y-78793289D01*
X153628678Y-78851304D01*
X153593299Y-78917492D01*
X153571513Y-78989311D01*
X153564157Y-79064000D01*
X153564157Y-81464000D01*
X153571513Y-81538689D01*
X153593299Y-81610508D01*
X153628678Y-81676696D01*
X153676289Y-81734711D01*
X153734304Y-81782322D01*
X153800492Y-81817701D01*
X153872311Y-81839487D01*
X153947000Y-81846843D01*
X155220662Y-81846843D01*
X155250815Y-81883585D01*
X155347506Y-81962937D01*
X155457820Y-82021902D01*
X155577518Y-82058212D01*
X155702000Y-82070472D01*
X155826481Y-82058212D01*
X155946179Y-82021902D01*
X155985735Y-82000759D01*
X163419626Y-89434651D01*
X163404587Y-89457158D01*
X163345713Y-89599291D01*
X163315700Y-89750178D01*
X163315700Y-89904022D01*
X163345713Y-90054909D01*
X163393386Y-90170000D01*
X160185980Y-90170000D01*
X160154799Y-90166929D01*
X160123618Y-90170000D01*
X160123608Y-90170000D01*
X160030318Y-90179188D01*
X159910620Y-90215498D01*
X159838731Y-90253924D01*
X159800305Y-90274463D01*
X159727842Y-90333932D01*
X159727839Y-90333935D01*
X159703615Y-90353815D01*
X159683734Y-90378040D01*
X158866018Y-91195757D01*
X158318700Y-91195757D01*
X158195238Y-91207917D01*
X158076521Y-91243929D01*
X157967111Y-91302410D01*
X157871212Y-91381112D01*
X157792510Y-91477011D01*
X157734029Y-91586421D01*
X157698017Y-91705138D01*
X157685857Y-91828600D01*
X157685857Y-92778600D01*
X157698017Y-92902062D01*
X157734029Y-93020779D01*
X157792510Y-93130189D01*
X157871212Y-93226088D01*
X157964801Y-93302894D01*
X157964800Y-93958149D01*
X157955156Y-93963304D01*
X157861151Y-94040451D01*
X157784004Y-94134456D01*
X157726678Y-94241705D01*
X157691377Y-94358077D01*
X157679457Y-94479100D01*
X157679457Y-94918523D01*
X157547141Y-95050839D01*
X157498802Y-95025002D01*
X157427329Y-95003321D01*
X157353000Y-94996000D01*
X157353000Y-92202000D01*
X157345679Y-92127671D01*
X157323998Y-92056198D01*
X157288790Y-91990328D01*
X157241408Y-91932592D01*
X157183672Y-91885210D01*
X157117802Y-91850002D01*
X157046329Y-91828321D01*
X156972000Y-91821000D01*
X156884843Y-91821000D01*
X156884843Y-90356800D01*
X156877487Y-90282111D01*
X156855701Y-90210292D01*
X156820322Y-90144104D01*
X156772711Y-90086089D01*
X156714696Y-90038478D01*
X156648508Y-90003099D01*
X156576689Y-89981313D01*
X156502000Y-89973957D01*
X154902000Y-89973957D01*
X154827311Y-89981313D01*
X154755492Y-90003099D01*
X154689304Y-90038478D01*
X154631289Y-90086089D01*
X154583678Y-90144104D01*
X154548299Y-90210292D01*
X154526513Y-90282111D01*
X154519157Y-90356800D01*
X154519157Y-94656800D01*
X154526513Y-94731489D01*
X154548299Y-94803308D01*
X154583678Y-94869496D01*
X154631289Y-94927511D01*
X154689304Y-94975122D01*
X154755492Y-95010501D01*
X154827311Y-95032287D01*
X154902000Y-95039643D01*
X155253701Y-95039643D01*
X155874184Y-96191969D01*
X156710353Y-97759786D01*
X156688475Y-97760000D01*
X156529725Y-97918750D01*
X156529725Y-98512157D01*
X156429266Y-98512157D01*
X156427672Y-98512000D01*
X156275725Y-98512000D01*
X156275725Y-97918750D01*
X156116975Y-97760000D01*
X155814459Y-97757036D01*
X155689773Y-97767005D01*
X155569427Y-97801108D01*
X155458047Y-97858033D01*
X155359913Y-97935594D01*
X155278796Y-98030810D01*
X155231504Y-98115502D01*
X154292365Y-97426800D01*
X154406602Y-97426800D01*
X154406602Y-97268052D01*
X154565350Y-97426800D01*
X154817100Y-97429872D01*
X154941582Y-97417612D01*
X155061280Y-97381302D01*
X155171594Y-97322337D01*
X155268285Y-97242985D01*
X155347637Y-97146294D01*
X155406602Y-97035980D01*
X155442912Y-96916282D01*
X155455172Y-96791800D01*
X155452100Y-96602550D01*
X155293350Y-96443800D01*
X154406600Y-96443800D01*
X154406600Y-96463800D01*
X154152600Y-96463800D01*
X154152600Y-96443800D01*
X154132600Y-96443800D01*
X154132600Y-96189800D01*
X154152600Y-96189800D01*
X154152600Y-96169800D01*
X154406600Y-96169800D01*
X154406600Y-96189800D01*
X155293350Y-96189800D01*
X155452100Y-96031050D01*
X155455172Y-95841800D01*
X155442912Y-95717318D01*
X155406602Y-95597620D01*
X155347637Y-95487306D01*
X155268285Y-95390615D01*
X155171594Y-95311263D01*
X155061280Y-95252298D01*
X154941582Y-95215988D01*
X154817100Y-95203728D01*
X154565350Y-95206800D01*
X154406602Y-95365548D01*
X154406602Y-95206800D01*
X154364589Y-95206800D01*
X154402998Y-95141802D01*
X154424679Y-95070329D01*
X154432000Y-94996000D01*
X154432000Y-92075000D01*
X154424679Y-92000671D01*
X154402998Y-91929198D01*
X154367790Y-91863328D01*
X154320408Y-91805592D01*
X154262672Y-91758210D01*
X154196802Y-91723002D01*
X154184843Y-91719374D01*
X154184843Y-90356800D01*
X154177487Y-90282111D01*
X154155701Y-90210292D01*
X154120322Y-90144104D01*
X154072711Y-90086089D01*
X154014696Y-90038478D01*
X153948508Y-90003099D01*
X153876689Y-89981313D01*
X153802000Y-89973957D01*
X152202000Y-89973957D01*
X152127311Y-89981313D01*
X152055492Y-90003099D01*
X151989304Y-90038478D01*
X151931289Y-90086089D01*
X151883678Y-90144104D01*
X151848299Y-90210292D01*
X151826513Y-90282111D01*
X151819157Y-90356800D01*
X151819157Y-91694000D01*
X151765000Y-91694000D01*
X151690671Y-91701321D01*
X151619198Y-91723002D01*
X151553328Y-91758210D01*
X151495592Y-91805592D01*
X151448210Y-91863328D01*
X151413002Y-91929198D01*
X151391321Y-92000671D01*
X151384000Y-92075000D01*
X151384000Y-94177882D01*
X150361352Y-94996000D01*
X146939000Y-94996000D01*
X146864671Y-95003321D01*
X146793198Y-95025002D01*
X146727328Y-95060210D01*
X146669592Y-95107592D01*
X146622210Y-95165328D01*
X146587002Y-95231198D01*
X146565321Y-95302671D01*
X146558000Y-95377000D01*
X143406000Y-95377000D01*
X143406000Y-75801689D01*
X144958000Y-75801689D01*
X144958000Y-76191911D01*
X145034129Y-76574636D01*
X145183461Y-76935155D01*
X145400257Y-77259614D01*
X145676186Y-77535543D01*
X146000645Y-77752339D01*
X146361164Y-77901671D01*
X146743889Y-77977800D01*
X147134111Y-77977800D01*
X147516836Y-77901671D01*
X147877355Y-77752339D01*
X148201814Y-77535543D01*
X148477743Y-77259614D01*
X148694539Y-76935155D01*
X148843871Y-76574636D01*
X148920000Y-76191911D01*
X148920000Y-75801689D01*
X165963800Y-75801689D01*
X165963800Y-76191911D01*
X166039929Y-76574636D01*
X166189261Y-76935155D01*
X166406057Y-77259614D01*
X166681986Y-77535543D01*
X167006445Y-77752339D01*
X167366964Y-77901671D01*
X167749689Y-77977800D01*
X168139911Y-77977800D01*
X168522636Y-77901671D01*
X168883155Y-77752339D01*
X169207614Y-77535543D01*
X169483543Y-77259614D01*
X169700339Y-76935155D01*
X169849671Y-76574636D01*
X169925800Y-76191911D01*
X169925800Y-75801689D01*
X169849671Y-75418964D01*
X169700339Y-75058445D01*
X169483543Y-74733986D01*
X169207614Y-74458057D01*
X168883155Y-74241261D01*
X168522636Y-74091929D01*
X168139911Y-74015800D01*
X167749689Y-74015800D01*
X167366964Y-74091929D01*
X167006445Y-74241261D01*
X166681986Y-74458057D01*
X166406057Y-74733986D01*
X166189261Y-75058445D01*
X166039929Y-75418964D01*
X165963800Y-75801689D01*
X148920000Y-75801689D01*
X148843871Y-75418964D01*
X148694539Y-75058445D01*
X148477743Y-74733986D01*
X148201814Y-74458057D01*
X147877355Y-74241261D01*
X147516836Y-74091929D01*
X147134111Y-74015800D01*
X146743889Y-74015800D01*
X146361164Y-74091929D01*
X146000645Y-74241261D01*
X145676186Y-74458057D01*
X145400257Y-74733986D01*
X145183461Y-75058445D01*
X145034129Y-75418964D01*
X144958000Y-75801689D01*
X143406000Y-75801689D01*
X143406000Y-72406000D01*
X171594000Y-72406000D01*
X171594001Y-116594000D01*
%TA.AperFunction,Conductor*%
D22*
G36*
X171594001Y-116594000D02*
G01*
X143406000Y-116594000D01*
X143406000Y-112276089D01*
X144958000Y-112276089D01*
X144958000Y-112666311D01*
X145034129Y-113049036D01*
X145183461Y-113409555D01*
X145400257Y-113734014D01*
X145676186Y-114009943D01*
X146000645Y-114226739D01*
X146361164Y-114376071D01*
X146743889Y-114452200D01*
X147134111Y-114452200D01*
X147516836Y-114376071D01*
X147877355Y-114226739D01*
X148201814Y-114009943D01*
X148477743Y-113734014D01*
X148694539Y-113409555D01*
X148843871Y-113049036D01*
X148920000Y-112666311D01*
X148920000Y-112276089D01*
X165963800Y-112276089D01*
X165963800Y-112666311D01*
X166039929Y-113049036D01*
X166189261Y-113409555D01*
X166406057Y-113734014D01*
X166681986Y-114009943D01*
X167006445Y-114226739D01*
X167366964Y-114376071D01*
X167749689Y-114452200D01*
X168139911Y-114452200D01*
X168522636Y-114376071D01*
X168883155Y-114226739D01*
X169207614Y-114009943D01*
X169483543Y-113734014D01*
X169700339Y-113409555D01*
X169849671Y-113049036D01*
X169925800Y-112666311D01*
X169925800Y-112276089D01*
X169849671Y-111893364D01*
X169700339Y-111532845D01*
X169483543Y-111208386D01*
X169207614Y-110932457D01*
X168883155Y-110715661D01*
X168522636Y-110566329D01*
X168139911Y-110490200D01*
X167749689Y-110490200D01*
X167366964Y-110566329D01*
X167006445Y-110715661D01*
X166681986Y-110932457D01*
X166406057Y-111208386D01*
X166189261Y-111532845D01*
X166039929Y-111893364D01*
X165963800Y-112276089D01*
X148920000Y-112276089D01*
X148843871Y-111893364D01*
X148694539Y-111532845D01*
X148477743Y-111208386D01*
X148201814Y-110932457D01*
X147877355Y-110715661D01*
X147516836Y-110566329D01*
X147134111Y-110490200D01*
X146743889Y-110490200D01*
X146361164Y-110566329D01*
X146000645Y-110715661D01*
X145676186Y-110932457D01*
X145400257Y-111208386D01*
X145183461Y-111532845D01*
X145034129Y-111893364D01*
X144958000Y-112276089D01*
X143406000Y-112276089D01*
X143406000Y-99396890D01*
X146558524Y-99396890D01*
X146603175Y-99544099D01*
X146728359Y-99806920D01*
X146902412Y-100040269D01*
X147118645Y-100235178D01*
X147368748Y-100384157D01*
X147643109Y-100481481D01*
X147873000Y-100360814D01*
X147873000Y-99167000D01*
X148127000Y-99167000D01*
X148127000Y-100360814D01*
X148356891Y-100481481D01*
X148631252Y-100384157D01*
X148881355Y-100235178D01*
X149097588Y-100040269D01*
X149271641Y-99806920D01*
X149396825Y-99544099D01*
X149441476Y-99396890D01*
X149320155Y-99167000D01*
X148127000Y-99167000D01*
X147873000Y-99167000D01*
X146679845Y-99167000D01*
X146558524Y-99396890D01*
X143406000Y-99396890D01*
X143406000Y-95377000D01*
X146558000Y-95377000D01*
X146558000Y-97663000D01*
X146565321Y-97737329D01*
X146587002Y-97808802D01*
X146622210Y-97874672D01*
X146669592Y-97932408D01*
X146727328Y-97979790D01*
X146793198Y-98014998D01*
X146864671Y-98036679D01*
X146901950Y-98040351D01*
X146728359Y-98273080D01*
X146603175Y-98535901D01*
X146558524Y-98683110D01*
X146679845Y-98913000D01*
X147873000Y-98913000D01*
X147873000Y-98893000D01*
X148127000Y-98893000D01*
X148127000Y-98913000D01*
X149320155Y-98913000D01*
X149441476Y-98683110D01*
X149396825Y-98535901D01*
X149316271Y-98366780D01*
X149860000Y-98850095D01*
X149860000Y-100203000D01*
X149867321Y-100277329D01*
X149889002Y-100348802D01*
X149924210Y-100414672D01*
X149971592Y-100472408D01*
X150029328Y-100519790D01*
X150095198Y-100554998D01*
X150123000Y-100563432D01*
X150123000Y-109500000D01*
X150125440Y-109524776D01*
X150132667Y-109548601D01*
X150144403Y-109570557D01*
X150160197Y-109589803D01*
X150179443Y-109605597D01*
X150201399Y-109617333D01*
X150225224Y-109624560D01*
X150250000Y-109627000D01*
X166000000Y-109627000D01*
X166024776Y-109624560D01*
X166048601Y-109617333D01*
X166070557Y-109605597D01*
X166089803Y-109589803D01*
X166105597Y-109570557D01*
X166117333Y-109548601D01*
X166124560Y-109524776D01*
X166127000Y-109500000D01*
X166127000Y-99492442D01*
X166140226Y-98069400D01*
X166315059Y-98069400D01*
X166767157Y-98521498D01*
X166767157Y-99850000D01*
X166774513Y-99924689D01*
X166796299Y-99996508D01*
X166831678Y-100062696D01*
X166879289Y-100120711D01*
X166937304Y-100168322D01*
X167003492Y-100203701D01*
X167075311Y-100225487D01*
X167150000Y-100232843D01*
X168850000Y-100232843D01*
X168924689Y-100225487D01*
X168996508Y-100203701D01*
X169062696Y-100168322D01*
X169120711Y-100120711D01*
X169168322Y-100062696D01*
X169203701Y-99996508D01*
X169225487Y-99924689D01*
X169232843Y-99850000D01*
X169232843Y-98150000D01*
X169225487Y-98075311D01*
X169203701Y-98003492D01*
X169168322Y-97937304D01*
X169120711Y-97879289D01*
X169062696Y-97831678D01*
X168996508Y-97796299D01*
X168924689Y-97774513D01*
X168850000Y-97767157D01*
X168693367Y-97767157D01*
X168881355Y-97655178D01*
X169097588Y-97460269D01*
X169271641Y-97226920D01*
X169396825Y-96964099D01*
X169441476Y-96816890D01*
X169320155Y-96587000D01*
X168127000Y-96587000D01*
X168127000Y-96607000D01*
X167873000Y-96607000D01*
X167873000Y-96587000D01*
X166679845Y-96587000D01*
X166558524Y-96816890D01*
X166603175Y-96964099D01*
X166624433Y-97008730D01*
X166562195Y-97002600D01*
X166562187Y-97002600D01*
X166536000Y-97000021D01*
X166509813Y-97002600D01*
X163151481Y-97002600D01*
X163112891Y-96976815D01*
X162998056Y-96929249D01*
X162876148Y-96905000D01*
X162751852Y-96905000D01*
X162629944Y-96929249D01*
X162515109Y-96976815D01*
X162411761Y-97045870D01*
X162323870Y-97133761D01*
X162254815Y-97237109D01*
X162207249Y-97351944D01*
X162183000Y-97473852D01*
X162183000Y-97598148D01*
X162207249Y-97720056D01*
X162254815Y-97834891D01*
X162278761Y-97870729D01*
X160668647Y-97894582D01*
X160622403Y-97858033D01*
X160511023Y-97801108D01*
X160390677Y-97767005D01*
X160265991Y-97757036D01*
X159963475Y-97760000D01*
X159816265Y-97907210D01*
X159543230Y-97911255D01*
X159391475Y-97759500D01*
X159340943Y-97759500D01*
X159089459Y-97757036D01*
X159058641Y-97759500D01*
X158798068Y-97759500D01*
X158798068Y-97659041D01*
X158798225Y-97657447D01*
X158798225Y-97505500D01*
X159391475Y-97505500D01*
X159550225Y-97346750D01*
X159553189Y-97044234D01*
X159543220Y-96919548D01*
X159509117Y-96799202D01*
X159499796Y-96780964D01*
X159552659Y-96745642D01*
X159661442Y-96636859D01*
X159746913Y-96508942D01*
X159805787Y-96366809D01*
X159835800Y-96215922D01*
X159835800Y-96062078D01*
X159805787Y-95911191D01*
X159771371Y-95828103D01*
X159787300Y-95829672D01*
X160039050Y-95826600D01*
X160197800Y-95667850D01*
X160197800Y-94843600D01*
X160451800Y-94843600D01*
X160451800Y-95667850D01*
X160610550Y-95826600D01*
X160862300Y-95829672D01*
X160986782Y-95817412D01*
X161106480Y-95781102D01*
X161216794Y-95722137D01*
X161313485Y-95642785D01*
X161392837Y-95546094D01*
X161451802Y-95435780D01*
X161488112Y-95316082D01*
X161500372Y-95191600D01*
X161497300Y-95002350D01*
X161338550Y-94843600D01*
X160451800Y-94843600D01*
X160197800Y-94843600D01*
X160177800Y-94843600D01*
X160177800Y-94589600D01*
X160197800Y-94589600D01*
X160197800Y-94569600D01*
X160451800Y-94569600D01*
X160451800Y-94589600D01*
X161338550Y-94589600D01*
X161497300Y-94430850D01*
X161500372Y-94241600D01*
X161488112Y-94117118D01*
X161451802Y-93997420D01*
X161392837Y-93887106D01*
X161313485Y-93790415D01*
X161216794Y-93711063D01*
X161130155Y-93664752D01*
X161318700Y-93666672D01*
X161443182Y-93654412D01*
X161562880Y-93618102D01*
X161673194Y-93559137D01*
X161769885Y-93479785D01*
X161849237Y-93383094D01*
X161908202Y-93272780D01*
X161944512Y-93153082D01*
X161956772Y-93028600D01*
X161953700Y-92589350D01*
X161794950Y-92430600D01*
X160858200Y-92430600D01*
X160858200Y-92450600D01*
X160604200Y-92450600D01*
X160604200Y-92430600D01*
X160584200Y-92430600D01*
X160584200Y-92176600D01*
X160604200Y-92176600D01*
X160604200Y-92156600D01*
X160858200Y-92156600D01*
X160858200Y-92176600D01*
X161794950Y-92176600D01*
X161953700Y-92017850D01*
X161956772Y-91578600D01*
X161944512Y-91454118D01*
X161940229Y-91440000D01*
X164621976Y-91440000D01*
X166804129Y-93622154D01*
X166769000Y-93798757D01*
X166769000Y-94041243D01*
X166816307Y-94279069D01*
X166909102Y-94503097D01*
X167043820Y-94704717D01*
X167215283Y-94876180D01*
X167416903Y-95010898D01*
X167531168Y-95058228D01*
X167368748Y-95115843D01*
X167118645Y-95264822D01*
X166902412Y-95459731D01*
X166728359Y-95693080D01*
X166603175Y-95955901D01*
X166558524Y-96103110D01*
X166679845Y-96333000D01*
X167873000Y-96333000D01*
X167873000Y-96313000D01*
X168127000Y-96313000D01*
X168127000Y-96333000D01*
X169320155Y-96333000D01*
X169441476Y-96103110D01*
X169396825Y-95955901D01*
X169271641Y-95693080D01*
X169097588Y-95459731D01*
X168881355Y-95264822D01*
X168631252Y-95115843D01*
X168468832Y-95058228D01*
X168583097Y-95010898D01*
X168784717Y-94876180D01*
X168956180Y-94704717D01*
X169090898Y-94503097D01*
X169183693Y-94279069D01*
X169231000Y-94041243D01*
X169231000Y-93798757D01*
X169183693Y-93560931D01*
X169090898Y-93336903D01*
X168956180Y-93135283D01*
X168784717Y-92963820D01*
X168583097Y-92829102D01*
X168359069Y-92736307D01*
X168121243Y-92689000D01*
X167878757Y-92689000D01*
X167702154Y-92724129D01*
X167471564Y-92493539D01*
X167640931Y-92563693D01*
X167878757Y-92611000D01*
X168121243Y-92611000D01*
X168359069Y-92563693D01*
X168583097Y-92470898D01*
X168784717Y-92336180D01*
X168956180Y-92164717D01*
X169090898Y-91963097D01*
X169183693Y-91739069D01*
X169231000Y-91501243D01*
X169231000Y-91258757D01*
X169183693Y-91020931D01*
X169090898Y-90796903D01*
X168956180Y-90595283D01*
X168784717Y-90423820D01*
X168583097Y-90289102D01*
X168359069Y-90196307D01*
X168121243Y-90149000D01*
X167878757Y-90149000D01*
X167702153Y-90184129D01*
X166918174Y-89400150D01*
X166898285Y-89375915D01*
X166801594Y-89296563D01*
X166691280Y-89237598D01*
X166571582Y-89201288D01*
X166478292Y-89192100D01*
X166478281Y-89192100D01*
X166447100Y-89189029D01*
X166415919Y-89192100D01*
X164732644Y-89192100D01*
X164731700Y-89182518D01*
X164731700Y-89182508D01*
X164722512Y-89089218D01*
X164686202Y-88969520D01*
X164627237Y-88859206D01*
X164547885Y-88762515D01*
X164523655Y-88742630D01*
X157323005Y-81541980D01*
X159048626Y-81541980D01*
X159168514Y-81826836D01*
X159492210Y-81987699D01*
X159841069Y-82082322D01*
X160201684Y-82107067D01*
X160560198Y-82060985D01*
X160902833Y-81945846D01*
X161125486Y-81826836D01*
X161245374Y-81541980D01*
X160147000Y-80443605D01*
X159048626Y-81541980D01*
X157323005Y-81541980D01*
X156729843Y-80948819D01*
X156729843Y-80318684D01*
X158303933Y-80318684D01*
X158350015Y-80677198D01*
X158465154Y-81019833D01*
X158584164Y-81242486D01*
X158869020Y-81362374D01*
X159967395Y-80264000D01*
X160326605Y-80264000D01*
X161424980Y-81362374D01*
X161709836Y-81242486D01*
X161870699Y-80918790D01*
X161965322Y-80569931D01*
X161990067Y-80209316D01*
X161943985Y-79850802D01*
X161828846Y-79508167D01*
X161709836Y-79285514D01*
X161424980Y-79165626D01*
X160326605Y-80264000D01*
X159967395Y-80264000D01*
X158869020Y-79165626D01*
X158584164Y-79285514D01*
X158423301Y-79609210D01*
X158328678Y-79958069D01*
X158303933Y-80318684D01*
X156729843Y-80318684D01*
X156729843Y-79064000D01*
X156722487Y-78989311D01*
X156721489Y-78986020D01*
X159048626Y-78986020D01*
X160147000Y-80084395D01*
X161245374Y-78986020D01*
X161125486Y-78701164D01*
X160801790Y-78540301D01*
X160452931Y-78445678D01*
X160092316Y-78420933D01*
X159733802Y-78467015D01*
X159391167Y-78582154D01*
X159168514Y-78701164D01*
X159048626Y-78986020D01*
X156721489Y-78986020D01*
X156700701Y-78917492D01*
X156665322Y-78851304D01*
X156617711Y-78793289D01*
X156559696Y-78745678D01*
X156493508Y-78710299D01*
X156421689Y-78688513D01*
X156347000Y-78681157D01*
X153947000Y-78681157D01*
X153872311Y-78688513D01*
X153800492Y-78710299D01*
X153734304Y-78745678D01*
X153676289Y-78793289D01*
X153628678Y-78851304D01*
X153593299Y-78917492D01*
X153571513Y-78989311D01*
X153564157Y-79064000D01*
X153564157Y-81464000D01*
X153571513Y-81538689D01*
X153593299Y-81610508D01*
X153628678Y-81676696D01*
X153676289Y-81734711D01*
X153734304Y-81782322D01*
X153800492Y-81817701D01*
X153872311Y-81839487D01*
X153947000Y-81846843D01*
X155220662Y-81846843D01*
X155250815Y-81883585D01*
X155347506Y-81962937D01*
X155457820Y-82021902D01*
X155577518Y-82058212D01*
X155702000Y-82070472D01*
X155826481Y-82058212D01*
X155946179Y-82021902D01*
X155985735Y-82000759D01*
X163419626Y-89434651D01*
X163404587Y-89457158D01*
X163345713Y-89599291D01*
X163315700Y-89750178D01*
X163315700Y-89904022D01*
X163345713Y-90054909D01*
X163393386Y-90170000D01*
X160185980Y-90170000D01*
X160154799Y-90166929D01*
X160123618Y-90170000D01*
X160123608Y-90170000D01*
X160030318Y-90179188D01*
X159910620Y-90215498D01*
X159838731Y-90253924D01*
X159800305Y-90274463D01*
X159727842Y-90333932D01*
X159727839Y-90333935D01*
X159703615Y-90353815D01*
X159683734Y-90378040D01*
X158866018Y-91195757D01*
X158318700Y-91195757D01*
X158195238Y-91207917D01*
X158076521Y-91243929D01*
X157967111Y-91302410D01*
X157871212Y-91381112D01*
X157792510Y-91477011D01*
X157734029Y-91586421D01*
X157698017Y-91705138D01*
X157685857Y-91828600D01*
X157685857Y-92778600D01*
X157698017Y-92902062D01*
X157734029Y-93020779D01*
X157792510Y-93130189D01*
X157871212Y-93226088D01*
X157964801Y-93302894D01*
X157964800Y-93958149D01*
X157955156Y-93963304D01*
X157861151Y-94040451D01*
X157784004Y-94134456D01*
X157726678Y-94241705D01*
X157691377Y-94358077D01*
X157679457Y-94479100D01*
X157679457Y-94918523D01*
X157547141Y-95050839D01*
X157498802Y-95025002D01*
X157427329Y-95003321D01*
X157353000Y-94996000D01*
X157353000Y-92202000D01*
X157345679Y-92127671D01*
X157323998Y-92056198D01*
X157288790Y-91990328D01*
X157241408Y-91932592D01*
X157183672Y-91885210D01*
X157117802Y-91850002D01*
X157046329Y-91828321D01*
X156972000Y-91821000D01*
X156884843Y-91821000D01*
X156884843Y-90356800D01*
X156877487Y-90282111D01*
X156855701Y-90210292D01*
X156820322Y-90144104D01*
X156772711Y-90086089D01*
X156714696Y-90038478D01*
X156648508Y-90003099D01*
X156576689Y-89981313D01*
X156502000Y-89973957D01*
X154902000Y-89973957D01*
X154827311Y-89981313D01*
X154755492Y-90003099D01*
X154689304Y-90038478D01*
X154631289Y-90086089D01*
X154583678Y-90144104D01*
X154548299Y-90210292D01*
X154526513Y-90282111D01*
X154519157Y-90356800D01*
X154519157Y-94656800D01*
X154526513Y-94731489D01*
X154548299Y-94803308D01*
X154583678Y-94869496D01*
X154631289Y-94927511D01*
X154689304Y-94975122D01*
X154755492Y-95010501D01*
X154827311Y-95032287D01*
X154902000Y-95039643D01*
X155253701Y-95039643D01*
X155874184Y-96191969D01*
X156710353Y-97759786D01*
X156688475Y-97760000D01*
X156529725Y-97918750D01*
X156529725Y-98512157D01*
X156429266Y-98512157D01*
X156427672Y-98512000D01*
X156275725Y-98512000D01*
X156275725Y-97918750D01*
X156116975Y-97760000D01*
X155814459Y-97757036D01*
X155689773Y-97767005D01*
X155569427Y-97801108D01*
X155458047Y-97858033D01*
X155359913Y-97935594D01*
X155278796Y-98030810D01*
X155231504Y-98115502D01*
X154292365Y-97426800D01*
X154406602Y-97426800D01*
X154406602Y-97268052D01*
X154565350Y-97426800D01*
X154817100Y-97429872D01*
X154941582Y-97417612D01*
X155061280Y-97381302D01*
X155171594Y-97322337D01*
X155268285Y-97242985D01*
X155347637Y-97146294D01*
X155406602Y-97035980D01*
X155442912Y-96916282D01*
X155455172Y-96791800D01*
X155452100Y-96602550D01*
X155293350Y-96443800D01*
X154406600Y-96443800D01*
X154406600Y-96463800D01*
X154152600Y-96463800D01*
X154152600Y-96443800D01*
X154132600Y-96443800D01*
X154132600Y-96189800D01*
X154152600Y-96189800D01*
X154152600Y-96169800D01*
X154406600Y-96169800D01*
X154406600Y-96189800D01*
X155293350Y-96189800D01*
X155452100Y-96031050D01*
X155455172Y-95841800D01*
X155442912Y-95717318D01*
X155406602Y-95597620D01*
X155347637Y-95487306D01*
X155268285Y-95390615D01*
X155171594Y-95311263D01*
X155061280Y-95252298D01*
X154941582Y-95215988D01*
X154817100Y-95203728D01*
X154565350Y-95206800D01*
X154406602Y-95365548D01*
X154406602Y-95206800D01*
X154364589Y-95206800D01*
X154402998Y-95141802D01*
X154424679Y-95070329D01*
X154432000Y-94996000D01*
X154432000Y-92075000D01*
X154424679Y-92000671D01*
X154402998Y-91929198D01*
X154367790Y-91863328D01*
X154320408Y-91805592D01*
X154262672Y-91758210D01*
X154196802Y-91723002D01*
X154184843Y-91719374D01*
X154184843Y-90356800D01*
X154177487Y-90282111D01*
X154155701Y-90210292D01*
X154120322Y-90144104D01*
X154072711Y-90086089D01*
X154014696Y-90038478D01*
X153948508Y-90003099D01*
X153876689Y-89981313D01*
X153802000Y-89973957D01*
X152202000Y-89973957D01*
X152127311Y-89981313D01*
X152055492Y-90003099D01*
X151989304Y-90038478D01*
X151931289Y-90086089D01*
X151883678Y-90144104D01*
X151848299Y-90210292D01*
X151826513Y-90282111D01*
X151819157Y-90356800D01*
X151819157Y-91694000D01*
X151765000Y-91694000D01*
X151690671Y-91701321D01*
X151619198Y-91723002D01*
X151553328Y-91758210D01*
X151495592Y-91805592D01*
X151448210Y-91863328D01*
X151413002Y-91929198D01*
X151391321Y-92000671D01*
X151384000Y-92075000D01*
X151384000Y-94177882D01*
X150361352Y-94996000D01*
X146939000Y-94996000D01*
X146864671Y-95003321D01*
X146793198Y-95025002D01*
X146727328Y-95060210D01*
X146669592Y-95107592D01*
X146622210Y-95165328D01*
X146587002Y-95231198D01*
X146565321Y-95302671D01*
X146558000Y-95377000D01*
X143406000Y-95377000D01*
X143406000Y-75801689D01*
X144958000Y-75801689D01*
X144958000Y-76191911D01*
X145034129Y-76574636D01*
X145183461Y-76935155D01*
X145400257Y-77259614D01*
X145676186Y-77535543D01*
X146000645Y-77752339D01*
X146361164Y-77901671D01*
X146743889Y-77977800D01*
X147134111Y-77977800D01*
X147516836Y-77901671D01*
X147877355Y-77752339D01*
X148201814Y-77535543D01*
X148477743Y-77259614D01*
X148694539Y-76935155D01*
X148843871Y-76574636D01*
X148920000Y-76191911D01*
X148920000Y-75801689D01*
X165963800Y-75801689D01*
X165963800Y-76191911D01*
X166039929Y-76574636D01*
X166189261Y-76935155D01*
X166406057Y-77259614D01*
X166681986Y-77535543D01*
X167006445Y-77752339D01*
X167366964Y-77901671D01*
X167749689Y-77977800D01*
X168139911Y-77977800D01*
X168522636Y-77901671D01*
X168883155Y-77752339D01*
X169207614Y-77535543D01*
X169483543Y-77259614D01*
X169700339Y-76935155D01*
X169849671Y-76574636D01*
X169925800Y-76191911D01*
X169925800Y-75801689D01*
X169849671Y-75418964D01*
X169700339Y-75058445D01*
X169483543Y-74733986D01*
X169207614Y-74458057D01*
X168883155Y-74241261D01*
X168522636Y-74091929D01*
X168139911Y-74015800D01*
X167749689Y-74015800D01*
X167366964Y-74091929D01*
X167006445Y-74241261D01*
X166681986Y-74458057D01*
X166406057Y-74733986D01*
X166189261Y-75058445D01*
X166039929Y-75418964D01*
X165963800Y-75801689D01*
X148920000Y-75801689D01*
X148843871Y-75418964D01*
X148694539Y-75058445D01*
X148477743Y-74733986D01*
X148201814Y-74458057D01*
X147877355Y-74241261D01*
X147516836Y-74091929D01*
X147134111Y-74015800D01*
X146743889Y-74015800D01*
X146361164Y-74091929D01*
X146000645Y-74241261D01*
X145676186Y-74458057D01*
X145400257Y-74733986D01*
X145183461Y-75058445D01*
X145034129Y-75418964D01*
X144958000Y-75801689D01*
X143406000Y-75801689D01*
X143406000Y-72406000D01*
X171594000Y-72406000D01*
X171594001Y-116594000D01*
G37*
%TD.AperFunction*%
D19*
X158167225Y-99143000D02*
X158187225Y-99143000D01*
X158187225Y-99397000D01*
X158167225Y-99397000D01*
X158167225Y-99417000D01*
X157913225Y-99417000D01*
X157913225Y-99397000D01*
X157893225Y-99397000D01*
X157893225Y-99143000D01*
X157913225Y-99143000D01*
X157913225Y-99123000D01*
X158167225Y-99123000D01*
X158167225Y-99143000D01*
%TA.AperFunction,Conductor*%
D22*
G36*
X158167225Y-99143000D02*
G01*
X158187225Y-99143000D01*
X158187225Y-99397000D01*
X158167225Y-99397000D01*
X158167225Y-99417000D01*
X157913225Y-99417000D01*
X157913225Y-99397000D01*
X157893225Y-99397000D01*
X157893225Y-99143000D01*
X157913225Y-99143000D01*
X157913225Y-99123000D01*
X158167225Y-99123000D01*
X158167225Y-99143000D01*
G37*
%TD.AperFunction*%
%TD*%
M02*
