M48
; DRILL file {KiCad (5.1.10)-1} date 09/08/21 10:04:39
; FORMAT={-:-/ absolute / inch / decimal}
; #@! TF.CreationDate,2021-09-08T10:04:39-05:00
; #@! TF.GenerationSoftware,Kicad,Pcbnew,(5.1.10)-1
; #@! TF.FileFunction,Plated,1,2,PTH
FMAT,2
INCH
T1C0.0118
T2C0.0157
T3C0.0394
T4C0.0472
%
G90
G05
T1
X6.2043Y-3.926
X6.2049Y-3.8901
X6.2393Y-3.9257
X6.2395Y-3.8907
X6.351Y-3.894
X6.41Y-3.84
T2
X5.67Y-4.327
X5.679Y-4.147
X5.68Y-4.016
X5.682Y-4.547
X5.684Y-3.157
X5.685Y-3.43
X5.688Y-3.562
X5.688Y-3.749
X5.696Y-2.89
X5.811Y-4.56
X5.825Y-4.04
X5.828Y-4.22
X5.861Y-3.505
X5.885Y-3.626
X5.888Y-3.295
X5.939Y-2.89
X5.956Y-4.406
X5.988Y-4.558
X6.08Y-2.87
X6.083Y-3.484
X6.119Y-4.396
X6.232Y-4.024
X6.234Y-4.554
X6.236Y-3.525
X6.262Y-3.785
X6.317Y-4.393
X6.336Y-4.058
X6.389Y-3.686
X6.44Y-2.89
X6.4605Y-3.5365
X6.479Y-4.553
X6.482Y-4.381
X6.497Y-3.765
X6.546Y-3.241
X6.569Y-3.978
X6.616Y-4.26
X6.617Y-4.088
X6.628Y-3.357
X6.66Y-3.155
X6.686Y-4.556
X6.719Y-3.776
X6.721Y-3.604
X6.725Y-4.374
X6.73Y-4.0
X6.733Y-4.147
X6.734Y-3.442
T3
X5.8268Y-3.7992
X5.8268Y-3.8992
X6.6142Y-3.5976
X6.6142Y-3.6976
X6.6142Y-3.7976
X6.6142Y-3.8976
T4
X6.1081Y-3.16
X6.305Y-3.16
T0
M30
