%TF.GenerationSoftware,KiCad,Pcbnew,(5.1.10)-1*%
%TF.CreationDate,2021-11-18T09:17:22-06:00*%
%TF.ProjectId,batteryless_gaming_device,62617474-6572-4796-9c65-73735f67616d,rev?*%
%TF.SameCoordinates,Original*%
%TF.FileFunction,Paste,Top*%
%TF.FilePolarity,Positive*%
%FSLAX46Y46*%
G04 Gerber Fmt 4.6, Leading zero omitted, Abs format (unit mm)*
G04 Created by KiCad (PCBNEW (5.1.10)-1) date 2021-11-18 09:17:22*
%MOMM*%
%LPD*%
G01*
G04 APERTURE LIST*
%ADD10R,1.000000X0.800000*%
%ADD11R,1.800000X1.000000*%
%ADD12O,0.800000X0.230000*%
%ADD13R,0.230000X0.230000*%
%ADD14R,0.680000X1.050000*%
%ADD15R,0.260000X0.500000*%
%ADD16R,1.600000X2.180000*%
%ADD17R,2.900000X1.800000*%
%ADD18R,4.300000X2.000000*%
%ADD19R,1.500000X0.400000*%
%ADD20R,0.800000X1.300000*%
G04 APERTURE END LIST*
D10*
%TO.C,D601*%
X107415000Y-151536400D03*
X107415000Y-148996400D03*
X113565000Y-148996400D03*
X113565000Y-151536400D03*
%TD*%
%TO.C,U400*%
G36*
G01*
X117199000Y-112256400D02*
X115799000Y-112256400D01*
G75*
G02*
X115724000Y-112181400I0J75000D01*
G01*
X115724000Y-112031400D01*
G75*
G02*
X115799000Y-111956400I75000J0D01*
G01*
X117199000Y-111956400D01*
G75*
G02*
X117274000Y-112031400I0J-75000D01*
G01*
X117274000Y-112181400D01*
G75*
G02*
X117199000Y-112256400I-75000J0D01*
G01*
G37*
G36*
G01*
X117199000Y-111756400D02*
X115799000Y-111756400D01*
G75*
G02*
X115724000Y-111681400I0J75000D01*
G01*
X115724000Y-111531400D01*
G75*
G02*
X115799000Y-111456400I75000J0D01*
G01*
X117199000Y-111456400D01*
G75*
G02*
X117274000Y-111531400I0J-75000D01*
G01*
X117274000Y-111681400D01*
G75*
G02*
X117199000Y-111756400I-75000J0D01*
G01*
G37*
G36*
G01*
X117199000Y-111256400D02*
X115799000Y-111256400D01*
G75*
G02*
X115724000Y-111181400I0J75000D01*
G01*
X115724000Y-111031400D01*
G75*
G02*
X115799000Y-110956400I75000J0D01*
G01*
X117199000Y-110956400D01*
G75*
G02*
X117274000Y-111031400I0J-75000D01*
G01*
X117274000Y-111181400D01*
G75*
G02*
X117199000Y-111256400I-75000J0D01*
G01*
G37*
G36*
G01*
X117199000Y-110756400D02*
X115799000Y-110756400D01*
G75*
G02*
X115724000Y-110681400I0J75000D01*
G01*
X115724000Y-110531400D01*
G75*
G02*
X115799000Y-110456400I75000J0D01*
G01*
X117199000Y-110456400D01*
G75*
G02*
X117274000Y-110531400I0J-75000D01*
G01*
X117274000Y-110681400D01*
G75*
G02*
X117199000Y-110756400I-75000J0D01*
G01*
G37*
G36*
G01*
X117199000Y-110256400D02*
X115799000Y-110256400D01*
G75*
G02*
X115724000Y-110181400I0J75000D01*
G01*
X115724000Y-110031400D01*
G75*
G02*
X115799000Y-109956400I75000J0D01*
G01*
X117199000Y-109956400D01*
G75*
G02*
X117274000Y-110031400I0J-75000D01*
G01*
X117274000Y-110181400D01*
G75*
G02*
X117199000Y-110256400I-75000J0D01*
G01*
G37*
G36*
G01*
X117199000Y-109756400D02*
X115799000Y-109756400D01*
G75*
G02*
X115724000Y-109681400I0J75000D01*
G01*
X115724000Y-109531400D01*
G75*
G02*
X115799000Y-109456400I75000J0D01*
G01*
X117199000Y-109456400D01*
G75*
G02*
X117274000Y-109531400I0J-75000D01*
G01*
X117274000Y-109681400D01*
G75*
G02*
X117199000Y-109756400I-75000J0D01*
G01*
G37*
G36*
G01*
X117199000Y-109256400D02*
X115799000Y-109256400D01*
G75*
G02*
X115724000Y-109181400I0J75000D01*
G01*
X115724000Y-109031400D01*
G75*
G02*
X115799000Y-108956400I75000J0D01*
G01*
X117199000Y-108956400D01*
G75*
G02*
X117274000Y-109031400I0J-75000D01*
G01*
X117274000Y-109181400D01*
G75*
G02*
X117199000Y-109256400I-75000J0D01*
G01*
G37*
G36*
G01*
X117199000Y-108756400D02*
X115799000Y-108756400D01*
G75*
G02*
X115724000Y-108681400I0J75000D01*
G01*
X115724000Y-108531400D01*
G75*
G02*
X115799000Y-108456400I75000J0D01*
G01*
X117199000Y-108456400D01*
G75*
G02*
X117274000Y-108531400I0J-75000D01*
G01*
X117274000Y-108681400D01*
G75*
G02*
X117199000Y-108756400I-75000J0D01*
G01*
G37*
G36*
G01*
X117199000Y-108256400D02*
X115799000Y-108256400D01*
G75*
G02*
X115724000Y-108181400I0J75000D01*
G01*
X115724000Y-108031400D01*
G75*
G02*
X115799000Y-107956400I75000J0D01*
G01*
X117199000Y-107956400D01*
G75*
G02*
X117274000Y-108031400I0J-75000D01*
G01*
X117274000Y-108181400D01*
G75*
G02*
X117199000Y-108256400I-75000J0D01*
G01*
G37*
G36*
G01*
X117199000Y-107756400D02*
X115799000Y-107756400D01*
G75*
G02*
X115724000Y-107681400I0J75000D01*
G01*
X115724000Y-107531400D01*
G75*
G02*
X115799000Y-107456400I75000J0D01*
G01*
X117199000Y-107456400D01*
G75*
G02*
X117274000Y-107531400I0J-75000D01*
G01*
X117274000Y-107681400D01*
G75*
G02*
X117199000Y-107756400I-75000J0D01*
G01*
G37*
G36*
G01*
X117199000Y-107256400D02*
X115799000Y-107256400D01*
G75*
G02*
X115724000Y-107181400I0J75000D01*
G01*
X115724000Y-107031400D01*
G75*
G02*
X115799000Y-106956400I75000J0D01*
G01*
X117199000Y-106956400D01*
G75*
G02*
X117274000Y-107031400I0J-75000D01*
G01*
X117274000Y-107181400D01*
G75*
G02*
X117199000Y-107256400I-75000J0D01*
G01*
G37*
G36*
G01*
X117199000Y-106756400D02*
X115799000Y-106756400D01*
G75*
G02*
X115724000Y-106681400I0J75000D01*
G01*
X115724000Y-106531400D01*
G75*
G02*
X115799000Y-106456400I75000J0D01*
G01*
X117199000Y-106456400D01*
G75*
G02*
X117274000Y-106531400I0J-75000D01*
G01*
X117274000Y-106681400D01*
G75*
G02*
X117199000Y-106756400I-75000J0D01*
G01*
G37*
G36*
G01*
X117199000Y-106256400D02*
X115799000Y-106256400D01*
G75*
G02*
X115724000Y-106181400I0J75000D01*
G01*
X115724000Y-106031400D01*
G75*
G02*
X115799000Y-105956400I75000J0D01*
G01*
X117199000Y-105956400D01*
G75*
G02*
X117274000Y-106031400I0J-75000D01*
G01*
X117274000Y-106181400D01*
G75*
G02*
X117199000Y-106256400I-75000J0D01*
G01*
G37*
G36*
G01*
X117199000Y-105756400D02*
X115799000Y-105756400D01*
G75*
G02*
X115724000Y-105681400I0J75000D01*
G01*
X115724000Y-105531400D01*
G75*
G02*
X115799000Y-105456400I75000J0D01*
G01*
X117199000Y-105456400D01*
G75*
G02*
X117274000Y-105531400I0J-75000D01*
G01*
X117274000Y-105681400D01*
G75*
G02*
X117199000Y-105756400I-75000J0D01*
G01*
G37*
G36*
G01*
X117199000Y-105256400D02*
X115799000Y-105256400D01*
G75*
G02*
X115724000Y-105181400I0J75000D01*
G01*
X115724000Y-105031400D01*
G75*
G02*
X115799000Y-104956400I75000J0D01*
G01*
X117199000Y-104956400D01*
G75*
G02*
X117274000Y-105031400I0J-75000D01*
G01*
X117274000Y-105181400D01*
G75*
G02*
X117199000Y-105256400I-75000J0D01*
G01*
G37*
G36*
G01*
X117199000Y-104756400D02*
X115799000Y-104756400D01*
G75*
G02*
X115724000Y-104681400I0J75000D01*
G01*
X115724000Y-104531400D01*
G75*
G02*
X115799000Y-104456400I75000J0D01*
G01*
X117199000Y-104456400D01*
G75*
G02*
X117274000Y-104531400I0J-75000D01*
G01*
X117274000Y-104681400D01*
G75*
G02*
X117199000Y-104756400I-75000J0D01*
G01*
G37*
G36*
G01*
X118499000Y-103456400D02*
X118349000Y-103456400D01*
G75*
G02*
X118274000Y-103381400I0J75000D01*
G01*
X118274000Y-101981400D01*
G75*
G02*
X118349000Y-101906400I75000J0D01*
G01*
X118499000Y-101906400D01*
G75*
G02*
X118574000Y-101981400I0J-75000D01*
G01*
X118574000Y-103381400D01*
G75*
G02*
X118499000Y-103456400I-75000J0D01*
G01*
G37*
G36*
G01*
X118999000Y-103456400D02*
X118849000Y-103456400D01*
G75*
G02*
X118774000Y-103381400I0J75000D01*
G01*
X118774000Y-101981400D01*
G75*
G02*
X118849000Y-101906400I75000J0D01*
G01*
X118999000Y-101906400D01*
G75*
G02*
X119074000Y-101981400I0J-75000D01*
G01*
X119074000Y-103381400D01*
G75*
G02*
X118999000Y-103456400I-75000J0D01*
G01*
G37*
G36*
G01*
X119499000Y-103456400D02*
X119349000Y-103456400D01*
G75*
G02*
X119274000Y-103381400I0J75000D01*
G01*
X119274000Y-101981400D01*
G75*
G02*
X119349000Y-101906400I75000J0D01*
G01*
X119499000Y-101906400D01*
G75*
G02*
X119574000Y-101981400I0J-75000D01*
G01*
X119574000Y-103381400D01*
G75*
G02*
X119499000Y-103456400I-75000J0D01*
G01*
G37*
G36*
G01*
X119999000Y-103456400D02*
X119849000Y-103456400D01*
G75*
G02*
X119774000Y-103381400I0J75000D01*
G01*
X119774000Y-101981400D01*
G75*
G02*
X119849000Y-101906400I75000J0D01*
G01*
X119999000Y-101906400D01*
G75*
G02*
X120074000Y-101981400I0J-75000D01*
G01*
X120074000Y-103381400D01*
G75*
G02*
X119999000Y-103456400I-75000J0D01*
G01*
G37*
G36*
G01*
X120499000Y-103456400D02*
X120349000Y-103456400D01*
G75*
G02*
X120274000Y-103381400I0J75000D01*
G01*
X120274000Y-101981400D01*
G75*
G02*
X120349000Y-101906400I75000J0D01*
G01*
X120499000Y-101906400D01*
G75*
G02*
X120574000Y-101981400I0J-75000D01*
G01*
X120574000Y-103381400D01*
G75*
G02*
X120499000Y-103456400I-75000J0D01*
G01*
G37*
G36*
G01*
X120999000Y-103456400D02*
X120849000Y-103456400D01*
G75*
G02*
X120774000Y-103381400I0J75000D01*
G01*
X120774000Y-101981400D01*
G75*
G02*
X120849000Y-101906400I75000J0D01*
G01*
X120999000Y-101906400D01*
G75*
G02*
X121074000Y-101981400I0J-75000D01*
G01*
X121074000Y-103381400D01*
G75*
G02*
X120999000Y-103456400I-75000J0D01*
G01*
G37*
G36*
G01*
X121499000Y-103456400D02*
X121349000Y-103456400D01*
G75*
G02*
X121274000Y-103381400I0J75000D01*
G01*
X121274000Y-101981400D01*
G75*
G02*
X121349000Y-101906400I75000J0D01*
G01*
X121499000Y-101906400D01*
G75*
G02*
X121574000Y-101981400I0J-75000D01*
G01*
X121574000Y-103381400D01*
G75*
G02*
X121499000Y-103456400I-75000J0D01*
G01*
G37*
G36*
G01*
X121999000Y-103456400D02*
X121849000Y-103456400D01*
G75*
G02*
X121774000Y-103381400I0J75000D01*
G01*
X121774000Y-101981400D01*
G75*
G02*
X121849000Y-101906400I75000J0D01*
G01*
X121999000Y-101906400D01*
G75*
G02*
X122074000Y-101981400I0J-75000D01*
G01*
X122074000Y-103381400D01*
G75*
G02*
X121999000Y-103456400I-75000J0D01*
G01*
G37*
G36*
G01*
X122499000Y-103456400D02*
X122349000Y-103456400D01*
G75*
G02*
X122274000Y-103381400I0J75000D01*
G01*
X122274000Y-101981400D01*
G75*
G02*
X122349000Y-101906400I75000J0D01*
G01*
X122499000Y-101906400D01*
G75*
G02*
X122574000Y-101981400I0J-75000D01*
G01*
X122574000Y-103381400D01*
G75*
G02*
X122499000Y-103456400I-75000J0D01*
G01*
G37*
G36*
G01*
X122999000Y-103456400D02*
X122849000Y-103456400D01*
G75*
G02*
X122774000Y-103381400I0J75000D01*
G01*
X122774000Y-101981400D01*
G75*
G02*
X122849000Y-101906400I75000J0D01*
G01*
X122999000Y-101906400D01*
G75*
G02*
X123074000Y-101981400I0J-75000D01*
G01*
X123074000Y-103381400D01*
G75*
G02*
X122999000Y-103456400I-75000J0D01*
G01*
G37*
G36*
G01*
X123499000Y-103456400D02*
X123349000Y-103456400D01*
G75*
G02*
X123274000Y-103381400I0J75000D01*
G01*
X123274000Y-101981400D01*
G75*
G02*
X123349000Y-101906400I75000J0D01*
G01*
X123499000Y-101906400D01*
G75*
G02*
X123574000Y-101981400I0J-75000D01*
G01*
X123574000Y-103381400D01*
G75*
G02*
X123499000Y-103456400I-75000J0D01*
G01*
G37*
G36*
G01*
X123999000Y-103456400D02*
X123849000Y-103456400D01*
G75*
G02*
X123774000Y-103381400I0J75000D01*
G01*
X123774000Y-101981400D01*
G75*
G02*
X123849000Y-101906400I75000J0D01*
G01*
X123999000Y-101906400D01*
G75*
G02*
X124074000Y-101981400I0J-75000D01*
G01*
X124074000Y-103381400D01*
G75*
G02*
X123999000Y-103456400I-75000J0D01*
G01*
G37*
G36*
G01*
X124499000Y-103456400D02*
X124349000Y-103456400D01*
G75*
G02*
X124274000Y-103381400I0J75000D01*
G01*
X124274000Y-101981400D01*
G75*
G02*
X124349000Y-101906400I75000J0D01*
G01*
X124499000Y-101906400D01*
G75*
G02*
X124574000Y-101981400I0J-75000D01*
G01*
X124574000Y-103381400D01*
G75*
G02*
X124499000Y-103456400I-75000J0D01*
G01*
G37*
G36*
G01*
X124999000Y-103456400D02*
X124849000Y-103456400D01*
G75*
G02*
X124774000Y-103381400I0J75000D01*
G01*
X124774000Y-101981400D01*
G75*
G02*
X124849000Y-101906400I75000J0D01*
G01*
X124999000Y-101906400D01*
G75*
G02*
X125074000Y-101981400I0J-75000D01*
G01*
X125074000Y-103381400D01*
G75*
G02*
X124999000Y-103456400I-75000J0D01*
G01*
G37*
G36*
G01*
X125499000Y-103456400D02*
X125349000Y-103456400D01*
G75*
G02*
X125274000Y-103381400I0J75000D01*
G01*
X125274000Y-101981400D01*
G75*
G02*
X125349000Y-101906400I75000J0D01*
G01*
X125499000Y-101906400D01*
G75*
G02*
X125574000Y-101981400I0J-75000D01*
G01*
X125574000Y-103381400D01*
G75*
G02*
X125499000Y-103456400I-75000J0D01*
G01*
G37*
G36*
G01*
X125999000Y-103456400D02*
X125849000Y-103456400D01*
G75*
G02*
X125774000Y-103381400I0J75000D01*
G01*
X125774000Y-101981400D01*
G75*
G02*
X125849000Y-101906400I75000J0D01*
G01*
X125999000Y-101906400D01*
G75*
G02*
X126074000Y-101981400I0J-75000D01*
G01*
X126074000Y-103381400D01*
G75*
G02*
X125999000Y-103456400I-75000J0D01*
G01*
G37*
G36*
G01*
X128549000Y-104756400D02*
X127149000Y-104756400D01*
G75*
G02*
X127074000Y-104681400I0J75000D01*
G01*
X127074000Y-104531400D01*
G75*
G02*
X127149000Y-104456400I75000J0D01*
G01*
X128549000Y-104456400D01*
G75*
G02*
X128624000Y-104531400I0J-75000D01*
G01*
X128624000Y-104681400D01*
G75*
G02*
X128549000Y-104756400I-75000J0D01*
G01*
G37*
G36*
G01*
X128549000Y-105256400D02*
X127149000Y-105256400D01*
G75*
G02*
X127074000Y-105181400I0J75000D01*
G01*
X127074000Y-105031400D01*
G75*
G02*
X127149000Y-104956400I75000J0D01*
G01*
X128549000Y-104956400D01*
G75*
G02*
X128624000Y-105031400I0J-75000D01*
G01*
X128624000Y-105181400D01*
G75*
G02*
X128549000Y-105256400I-75000J0D01*
G01*
G37*
G36*
G01*
X128549000Y-105756400D02*
X127149000Y-105756400D01*
G75*
G02*
X127074000Y-105681400I0J75000D01*
G01*
X127074000Y-105531400D01*
G75*
G02*
X127149000Y-105456400I75000J0D01*
G01*
X128549000Y-105456400D01*
G75*
G02*
X128624000Y-105531400I0J-75000D01*
G01*
X128624000Y-105681400D01*
G75*
G02*
X128549000Y-105756400I-75000J0D01*
G01*
G37*
G36*
G01*
X128549000Y-106256400D02*
X127149000Y-106256400D01*
G75*
G02*
X127074000Y-106181400I0J75000D01*
G01*
X127074000Y-106031400D01*
G75*
G02*
X127149000Y-105956400I75000J0D01*
G01*
X128549000Y-105956400D01*
G75*
G02*
X128624000Y-106031400I0J-75000D01*
G01*
X128624000Y-106181400D01*
G75*
G02*
X128549000Y-106256400I-75000J0D01*
G01*
G37*
G36*
G01*
X128549000Y-106756400D02*
X127149000Y-106756400D01*
G75*
G02*
X127074000Y-106681400I0J75000D01*
G01*
X127074000Y-106531400D01*
G75*
G02*
X127149000Y-106456400I75000J0D01*
G01*
X128549000Y-106456400D01*
G75*
G02*
X128624000Y-106531400I0J-75000D01*
G01*
X128624000Y-106681400D01*
G75*
G02*
X128549000Y-106756400I-75000J0D01*
G01*
G37*
G36*
G01*
X128549000Y-107256400D02*
X127149000Y-107256400D01*
G75*
G02*
X127074000Y-107181400I0J75000D01*
G01*
X127074000Y-107031400D01*
G75*
G02*
X127149000Y-106956400I75000J0D01*
G01*
X128549000Y-106956400D01*
G75*
G02*
X128624000Y-107031400I0J-75000D01*
G01*
X128624000Y-107181400D01*
G75*
G02*
X128549000Y-107256400I-75000J0D01*
G01*
G37*
G36*
G01*
X128549000Y-107756400D02*
X127149000Y-107756400D01*
G75*
G02*
X127074000Y-107681400I0J75000D01*
G01*
X127074000Y-107531400D01*
G75*
G02*
X127149000Y-107456400I75000J0D01*
G01*
X128549000Y-107456400D01*
G75*
G02*
X128624000Y-107531400I0J-75000D01*
G01*
X128624000Y-107681400D01*
G75*
G02*
X128549000Y-107756400I-75000J0D01*
G01*
G37*
G36*
G01*
X128549000Y-108256400D02*
X127149000Y-108256400D01*
G75*
G02*
X127074000Y-108181400I0J75000D01*
G01*
X127074000Y-108031400D01*
G75*
G02*
X127149000Y-107956400I75000J0D01*
G01*
X128549000Y-107956400D01*
G75*
G02*
X128624000Y-108031400I0J-75000D01*
G01*
X128624000Y-108181400D01*
G75*
G02*
X128549000Y-108256400I-75000J0D01*
G01*
G37*
G36*
G01*
X128549000Y-108756400D02*
X127149000Y-108756400D01*
G75*
G02*
X127074000Y-108681400I0J75000D01*
G01*
X127074000Y-108531400D01*
G75*
G02*
X127149000Y-108456400I75000J0D01*
G01*
X128549000Y-108456400D01*
G75*
G02*
X128624000Y-108531400I0J-75000D01*
G01*
X128624000Y-108681400D01*
G75*
G02*
X128549000Y-108756400I-75000J0D01*
G01*
G37*
G36*
G01*
X128549000Y-109256400D02*
X127149000Y-109256400D01*
G75*
G02*
X127074000Y-109181400I0J75000D01*
G01*
X127074000Y-109031400D01*
G75*
G02*
X127149000Y-108956400I75000J0D01*
G01*
X128549000Y-108956400D01*
G75*
G02*
X128624000Y-109031400I0J-75000D01*
G01*
X128624000Y-109181400D01*
G75*
G02*
X128549000Y-109256400I-75000J0D01*
G01*
G37*
G36*
G01*
X128549000Y-109756400D02*
X127149000Y-109756400D01*
G75*
G02*
X127074000Y-109681400I0J75000D01*
G01*
X127074000Y-109531400D01*
G75*
G02*
X127149000Y-109456400I75000J0D01*
G01*
X128549000Y-109456400D01*
G75*
G02*
X128624000Y-109531400I0J-75000D01*
G01*
X128624000Y-109681400D01*
G75*
G02*
X128549000Y-109756400I-75000J0D01*
G01*
G37*
G36*
G01*
X128549000Y-110256400D02*
X127149000Y-110256400D01*
G75*
G02*
X127074000Y-110181400I0J75000D01*
G01*
X127074000Y-110031400D01*
G75*
G02*
X127149000Y-109956400I75000J0D01*
G01*
X128549000Y-109956400D01*
G75*
G02*
X128624000Y-110031400I0J-75000D01*
G01*
X128624000Y-110181400D01*
G75*
G02*
X128549000Y-110256400I-75000J0D01*
G01*
G37*
G36*
G01*
X128549000Y-110756400D02*
X127149000Y-110756400D01*
G75*
G02*
X127074000Y-110681400I0J75000D01*
G01*
X127074000Y-110531400D01*
G75*
G02*
X127149000Y-110456400I75000J0D01*
G01*
X128549000Y-110456400D01*
G75*
G02*
X128624000Y-110531400I0J-75000D01*
G01*
X128624000Y-110681400D01*
G75*
G02*
X128549000Y-110756400I-75000J0D01*
G01*
G37*
G36*
G01*
X128549000Y-111256400D02*
X127149000Y-111256400D01*
G75*
G02*
X127074000Y-111181400I0J75000D01*
G01*
X127074000Y-111031400D01*
G75*
G02*
X127149000Y-110956400I75000J0D01*
G01*
X128549000Y-110956400D01*
G75*
G02*
X128624000Y-111031400I0J-75000D01*
G01*
X128624000Y-111181400D01*
G75*
G02*
X128549000Y-111256400I-75000J0D01*
G01*
G37*
G36*
G01*
X128549000Y-111756400D02*
X127149000Y-111756400D01*
G75*
G02*
X127074000Y-111681400I0J75000D01*
G01*
X127074000Y-111531400D01*
G75*
G02*
X127149000Y-111456400I75000J0D01*
G01*
X128549000Y-111456400D01*
G75*
G02*
X128624000Y-111531400I0J-75000D01*
G01*
X128624000Y-111681400D01*
G75*
G02*
X128549000Y-111756400I-75000J0D01*
G01*
G37*
G36*
G01*
X128549000Y-112256400D02*
X127149000Y-112256400D01*
G75*
G02*
X127074000Y-112181400I0J75000D01*
G01*
X127074000Y-112031400D01*
G75*
G02*
X127149000Y-111956400I75000J0D01*
G01*
X128549000Y-111956400D01*
G75*
G02*
X128624000Y-112031400I0J-75000D01*
G01*
X128624000Y-112181400D01*
G75*
G02*
X128549000Y-112256400I-75000J0D01*
G01*
G37*
G36*
G01*
X125999000Y-114806400D02*
X125849000Y-114806400D01*
G75*
G02*
X125774000Y-114731400I0J75000D01*
G01*
X125774000Y-113331400D01*
G75*
G02*
X125849000Y-113256400I75000J0D01*
G01*
X125999000Y-113256400D01*
G75*
G02*
X126074000Y-113331400I0J-75000D01*
G01*
X126074000Y-114731400D01*
G75*
G02*
X125999000Y-114806400I-75000J0D01*
G01*
G37*
G36*
G01*
X125499000Y-114806400D02*
X125349000Y-114806400D01*
G75*
G02*
X125274000Y-114731400I0J75000D01*
G01*
X125274000Y-113331400D01*
G75*
G02*
X125349000Y-113256400I75000J0D01*
G01*
X125499000Y-113256400D01*
G75*
G02*
X125574000Y-113331400I0J-75000D01*
G01*
X125574000Y-114731400D01*
G75*
G02*
X125499000Y-114806400I-75000J0D01*
G01*
G37*
G36*
G01*
X124999000Y-114806400D02*
X124849000Y-114806400D01*
G75*
G02*
X124774000Y-114731400I0J75000D01*
G01*
X124774000Y-113331400D01*
G75*
G02*
X124849000Y-113256400I75000J0D01*
G01*
X124999000Y-113256400D01*
G75*
G02*
X125074000Y-113331400I0J-75000D01*
G01*
X125074000Y-114731400D01*
G75*
G02*
X124999000Y-114806400I-75000J0D01*
G01*
G37*
G36*
G01*
X124499000Y-114806400D02*
X124349000Y-114806400D01*
G75*
G02*
X124274000Y-114731400I0J75000D01*
G01*
X124274000Y-113331400D01*
G75*
G02*
X124349000Y-113256400I75000J0D01*
G01*
X124499000Y-113256400D01*
G75*
G02*
X124574000Y-113331400I0J-75000D01*
G01*
X124574000Y-114731400D01*
G75*
G02*
X124499000Y-114806400I-75000J0D01*
G01*
G37*
G36*
G01*
X123999000Y-114806400D02*
X123849000Y-114806400D01*
G75*
G02*
X123774000Y-114731400I0J75000D01*
G01*
X123774000Y-113331400D01*
G75*
G02*
X123849000Y-113256400I75000J0D01*
G01*
X123999000Y-113256400D01*
G75*
G02*
X124074000Y-113331400I0J-75000D01*
G01*
X124074000Y-114731400D01*
G75*
G02*
X123999000Y-114806400I-75000J0D01*
G01*
G37*
G36*
G01*
X123499000Y-114806400D02*
X123349000Y-114806400D01*
G75*
G02*
X123274000Y-114731400I0J75000D01*
G01*
X123274000Y-113331400D01*
G75*
G02*
X123349000Y-113256400I75000J0D01*
G01*
X123499000Y-113256400D01*
G75*
G02*
X123574000Y-113331400I0J-75000D01*
G01*
X123574000Y-114731400D01*
G75*
G02*
X123499000Y-114806400I-75000J0D01*
G01*
G37*
G36*
G01*
X122999000Y-114806400D02*
X122849000Y-114806400D01*
G75*
G02*
X122774000Y-114731400I0J75000D01*
G01*
X122774000Y-113331400D01*
G75*
G02*
X122849000Y-113256400I75000J0D01*
G01*
X122999000Y-113256400D01*
G75*
G02*
X123074000Y-113331400I0J-75000D01*
G01*
X123074000Y-114731400D01*
G75*
G02*
X122999000Y-114806400I-75000J0D01*
G01*
G37*
G36*
G01*
X122499000Y-114806400D02*
X122349000Y-114806400D01*
G75*
G02*
X122274000Y-114731400I0J75000D01*
G01*
X122274000Y-113331400D01*
G75*
G02*
X122349000Y-113256400I75000J0D01*
G01*
X122499000Y-113256400D01*
G75*
G02*
X122574000Y-113331400I0J-75000D01*
G01*
X122574000Y-114731400D01*
G75*
G02*
X122499000Y-114806400I-75000J0D01*
G01*
G37*
G36*
G01*
X121999000Y-114806400D02*
X121849000Y-114806400D01*
G75*
G02*
X121774000Y-114731400I0J75000D01*
G01*
X121774000Y-113331400D01*
G75*
G02*
X121849000Y-113256400I75000J0D01*
G01*
X121999000Y-113256400D01*
G75*
G02*
X122074000Y-113331400I0J-75000D01*
G01*
X122074000Y-114731400D01*
G75*
G02*
X121999000Y-114806400I-75000J0D01*
G01*
G37*
G36*
G01*
X121499000Y-114806400D02*
X121349000Y-114806400D01*
G75*
G02*
X121274000Y-114731400I0J75000D01*
G01*
X121274000Y-113331400D01*
G75*
G02*
X121349000Y-113256400I75000J0D01*
G01*
X121499000Y-113256400D01*
G75*
G02*
X121574000Y-113331400I0J-75000D01*
G01*
X121574000Y-114731400D01*
G75*
G02*
X121499000Y-114806400I-75000J0D01*
G01*
G37*
G36*
G01*
X120999000Y-114806400D02*
X120849000Y-114806400D01*
G75*
G02*
X120774000Y-114731400I0J75000D01*
G01*
X120774000Y-113331400D01*
G75*
G02*
X120849000Y-113256400I75000J0D01*
G01*
X120999000Y-113256400D01*
G75*
G02*
X121074000Y-113331400I0J-75000D01*
G01*
X121074000Y-114731400D01*
G75*
G02*
X120999000Y-114806400I-75000J0D01*
G01*
G37*
G36*
G01*
X120499000Y-114806400D02*
X120349000Y-114806400D01*
G75*
G02*
X120274000Y-114731400I0J75000D01*
G01*
X120274000Y-113331400D01*
G75*
G02*
X120349000Y-113256400I75000J0D01*
G01*
X120499000Y-113256400D01*
G75*
G02*
X120574000Y-113331400I0J-75000D01*
G01*
X120574000Y-114731400D01*
G75*
G02*
X120499000Y-114806400I-75000J0D01*
G01*
G37*
G36*
G01*
X119999000Y-114806400D02*
X119849000Y-114806400D01*
G75*
G02*
X119774000Y-114731400I0J75000D01*
G01*
X119774000Y-113331400D01*
G75*
G02*
X119849000Y-113256400I75000J0D01*
G01*
X119999000Y-113256400D01*
G75*
G02*
X120074000Y-113331400I0J-75000D01*
G01*
X120074000Y-114731400D01*
G75*
G02*
X119999000Y-114806400I-75000J0D01*
G01*
G37*
G36*
G01*
X119499000Y-114806400D02*
X119349000Y-114806400D01*
G75*
G02*
X119274000Y-114731400I0J75000D01*
G01*
X119274000Y-113331400D01*
G75*
G02*
X119349000Y-113256400I75000J0D01*
G01*
X119499000Y-113256400D01*
G75*
G02*
X119574000Y-113331400I0J-75000D01*
G01*
X119574000Y-114731400D01*
G75*
G02*
X119499000Y-114806400I-75000J0D01*
G01*
G37*
G36*
G01*
X118999000Y-114806400D02*
X118849000Y-114806400D01*
G75*
G02*
X118774000Y-114731400I0J75000D01*
G01*
X118774000Y-113331400D01*
G75*
G02*
X118849000Y-113256400I75000J0D01*
G01*
X118999000Y-113256400D01*
G75*
G02*
X119074000Y-113331400I0J-75000D01*
G01*
X119074000Y-114731400D01*
G75*
G02*
X118999000Y-114806400I-75000J0D01*
G01*
G37*
G36*
G01*
X118499000Y-114806400D02*
X118349000Y-114806400D01*
G75*
G02*
X118274000Y-114731400I0J75000D01*
G01*
X118274000Y-113331400D01*
G75*
G02*
X118349000Y-113256400I75000J0D01*
G01*
X118499000Y-113256400D01*
G75*
G02*
X118574000Y-113331400I0J-75000D01*
G01*
X118574000Y-114731400D01*
G75*
G02*
X118499000Y-114806400I-75000J0D01*
G01*
G37*
%TD*%
D11*
%TO.C,Y400*%
X113334800Y-109595600D03*
X113334800Y-112095600D03*
%TD*%
D12*
%TO.C,U500*%
X144527800Y-119497600D03*
X144527800Y-119997600D03*
X144527800Y-120497600D03*
D13*
X144812800Y-120997600D03*
X144812800Y-121497600D03*
D12*
X141577800Y-121497600D03*
D13*
X141292800Y-120997600D03*
D12*
X141577800Y-120497600D03*
D13*
X141292800Y-119997600D03*
X141292800Y-119497600D03*
D14*
X143502800Y-121132600D03*
X142602800Y-121132600D03*
X143502800Y-119862600D03*
D15*
X143302800Y-122127600D03*
X142802800Y-122127600D03*
X143302800Y-118867600D03*
X142802800Y-118867600D03*
D14*
X142602800Y-119862600D03*
D13*
X144812800Y-119497600D03*
X144812800Y-119997600D03*
X144812800Y-120497600D03*
D12*
X144527800Y-120997600D03*
X144527800Y-121497600D03*
D13*
X141292800Y-121497600D03*
D12*
X141577800Y-120997600D03*
D13*
X141292800Y-120497600D03*
D12*
X141577800Y-119997600D03*
X141577800Y-119497600D03*
%TD*%
%TO.C,U401*%
G36*
G01*
X109503600Y-94242600D02*
X109303600Y-94242600D01*
G75*
G02*
X109203600Y-94142600I0J100000D01*
G01*
X109203600Y-92867600D01*
G75*
G02*
X109303600Y-92767600I100000J0D01*
G01*
X109503600Y-92767600D01*
G75*
G02*
X109603600Y-92867600I0J-100000D01*
G01*
X109603600Y-94142600D01*
G75*
G02*
X109503600Y-94242600I-100000J0D01*
G01*
G37*
G36*
G01*
X110153600Y-94242600D02*
X109953600Y-94242600D01*
G75*
G02*
X109853600Y-94142600I0J100000D01*
G01*
X109853600Y-92867600D01*
G75*
G02*
X109953600Y-92767600I100000J0D01*
G01*
X110153600Y-92767600D01*
G75*
G02*
X110253600Y-92867600I0J-100000D01*
G01*
X110253600Y-94142600D01*
G75*
G02*
X110153600Y-94242600I-100000J0D01*
G01*
G37*
G36*
G01*
X110803600Y-94242600D02*
X110603600Y-94242600D01*
G75*
G02*
X110503600Y-94142600I0J100000D01*
G01*
X110503600Y-92867600D01*
G75*
G02*
X110603600Y-92767600I100000J0D01*
G01*
X110803600Y-92767600D01*
G75*
G02*
X110903600Y-92867600I0J-100000D01*
G01*
X110903600Y-94142600D01*
G75*
G02*
X110803600Y-94242600I-100000J0D01*
G01*
G37*
G36*
G01*
X111453600Y-94242600D02*
X111253600Y-94242600D01*
G75*
G02*
X111153600Y-94142600I0J100000D01*
G01*
X111153600Y-92867600D01*
G75*
G02*
X111253600Y-92767600I100000J0D01*
G01*
X111453600Y-92767600D01*
G75*
G02*
X111553600Y-92867600I0J-100000D01*
G01*
X111553600Y-94142600D01*
G75*
G02*
X111453600Y-94242600I-100000J0D01*
G01*
G37*
G36*
G01*
X112103600Y-94242600D02*
X111903600Y-94242600D01*
G75*
G02*
X111803600Y-94142600I0J100000D01*
G01*
X111803600Y-92867600D01*
G75*
G02*
X111903600Y-92767600I100000J0D01*
G01*
X112103600Y-92767600D01*
G75*
G02*
X112203600Y-92867600I0J-100000D01*
G01*
X112203600Y-94142600D01*
G75*
G02*
X112103600Y-94242600I-100000J0D01*
G01*
G37*
G36*
G01*
X112753600Y-94242600D02*
X112553600Y-94242600D01*
G75*
G02*
X112453600Y-94142600I0J100000D01*
G01*
X112453600Y-92867600D01*
G75*
G02*
X112553600Y-92767600I100000J0D01*
G01*
X112753600Y-92767600D01*
G75*
G02*
X112853600Y-92867600I0J-100000D01*
G01*
X112853600Y-94142600D01*
G75*
G02*
X112753600Y-94242600I-100000J0D01*
G01*
G37*
G36*
G01*
X113403600Y-94242600D02*
X113203600Y-94242600D01*
G75*
G02*
X113103600Y-94142600I0J100000D01*
G01*
X113103600Y-92867600D01*
G75*
G02*
X113203600Y-92767600I100000J0D01*
G01*
X113403600Y-92767600D01*
G75*
G02*
X113503600Y-92867600I0J-100000D01*
G01*
X113503600Y-94142600D01*
G75*
G02*
X113403600Y-94242600I-100000J0D01*
G01*
G37*
G36*
G01*
X113403600Y-99967600D02*
X113203600Y-99967600D01*
G75*
G02*
X113103600Y-99867600I0J100000D01*
G01*
X113103600Y-98592600D01*
G75*
G02*
X113203600Y-98492600I100000J0D01*
G01*
X113403600Y-98492600D01*
G75*
G02*
X113503600Y-98592600I0J-100000D01*
G01*
X113503600Y-99867600D01*
G75*
G02*
X113403600Y-99967600I-100000J0D01*
G01*
G37*
G36*
G01*
X112753600Y-99967600D02*
X112553600Y-99967600D01*
G75*
G02*
X112453600Y-99867600I0J100000D01*
G01*
X112453600Y-98592600D01*
G75*
G02*
X112553600Y-98492600I100000J0D01*
G01*
X112753600Y-98492600D01*
G75*
G02*
X112853600Y-98592600I0J-100000D01*
G01*
X112853600Y-99867600D01*
G75*
G02*
X112753600Y-99967600I-100000J0D01*
G01*
G37*
G36*
G01*
X112103600Y-99967600D02*
X111903600Y-99967600D01*
G75*
G02*
X111803600Y-99867600I0J100000D01*
G01*
X111803600Y-98592600D01*
G75*
G02*
X111903600Y-98492600I100000J0D01*
G01*
X112103600Y-98492600D01*
G75*
G02*
X112203600Y-98592600I0J-100000D01*
G01*
X112203600Y-99867600D01*
G75*
G02*
X112103600Y-99967600I-100000J0D01*
G01*
G37*
G36*
G01*
X111453600Y-99967600D02*
X111253600Y-99967600D01*
G75*
G02*
X111153600Y-99867600I0J100000D01*
G01*
X111153600Y-98592600D01*
G75*
G02*
X111253600Y-98492600I100000J0D01*
G01*
X111453600Y-98492600D01*
G75*
G02*
X111553600Y-98592600I0J-100000D01*
G01*
X111553600Y-99867600D01*
G75*
G02*
X111453600Y-99967600I-100000J0D01*
G01*
G37*
G36*
G01*
X110803600Y-99967600D02*
X110603600Y-99967600D01*
G75*
G02*
X110503600Y-99867600I0J100000D01*
G01*
X110503600Y-98592600D01*
G75*
G02*
X110603600Y-98492600I100000J0D01*
G01*
X110803600Y-98492600D01*
G75*
G02*
X110903600Y-98592600I0J-100000D01*
G01*
X110903600Y-99867600D01*
G75*
G02*
X110803600Y-99967600I-100000J0D01*
G01*
G37*
G36*
G01*
X110153600Y-99967600D02*
X109953600Y-99967600D01*
G75*
G02*
X109853600Y-99867600I0J100000D01*
G01*
X109853600Y-98592600D01*
G75*
G02*
X109953600Y-98492600I100000J0D01*
G01*
X110153600Y-98492600D01*
G75*
G02*
X110253600Y-98592600I0J-100000D01*
G01*
X110253600Y-99867600D01*
G75*
G02*
X110153600Y-99967600I-100000J0D01*
G01*
G37*
G36*
G01*
X109503600Y-99967600D02*
X109303600Y-99967600D01*
G75*
G02*
X109203600Y-99867600I0J100000D01*
G01*
X109203600Y-98592600D01*
G75*
G02*
X109303600Y-98492600I100000J0D01*
G01*
X109503600Y-98492600D01*
G75*
G02*
X109603600Y-98592600I0J-100000D01*
G01*
X109603600Y-99867600D01*
G75*
G02*
X109503600Y-99967600I-100000J0D01*
G01*
G37*
%TD*%
%TO.C,U200*%
G36*
G01*
X140954800Y-142302200D02*
X140589800Y-142302200D01*
G75*
G02*
X140407300Y-142119700I0J182500D01*
G01*
X140407300Y-141754700D01*
G75*
G02*
X140589800Y-141572200I182500J0D01*
G01*
X140954800Y-141572200D01*
G75*
G02*
X141137300Y-141754700I0J-182500D01*
G01*
X141137300Y-142119700D01*
G75*
G02*
X140954800Y-142302200I-182500J0D01*
G01*
G37*
G36*
G01*
X140054800Y-142302200D02*
X139689800Y-142302200D01*
G75*
G02*
X139507300Y-142119700I0J182500D01*
G01*
X139507300Y-141754700D01*
G75*
G02*
X139689800Y-141572200I182500J0D01*
G01*
X140054800Y-141572200D01*
G75*
G02*
X140237300Y-141754700I0J-182500D01*
G01*
X140237300Y-142119700D01*
G75*
G02*
X140054800Y-142302200I-182500J0D01*
G01*
G37*
G36*
G01*
X140954800Y-143202200D02*
X140589800Y-143202200D01*
G75*
G02*
X140407300Y-143019700I0J182500D01*
G01*
X140407300Y-142654700D01*
G75*
G02*
X140589800Y-142472200I182500J0D01*
G01*
X140954800Y-142472200D01*
G75*
G02*
X141137300Y-142654700I0J-182500D01*
G01*
X141137300Y-143019700D01*
G75*
G02*
X140954800Y-143202200I-182500J0D01*
G01*
G37*
G36*
G01*
X140054800Y-143202200D02*
X139689800Y-143202200D01*
G75*
G02*
X139507300Y-143019700I0J182500D01*
G01*
X139507300Y-142654700D01*
G75*
G02*
X139689800Y-142472200I182500J0D01*
G01*
X140054800Y-142472200D01*
G75*
G02*
X140237300Y-142654700I0J-182500D01*
G01*
X140237300Y-143019700D01*
G75*
G02*
X140054800Y-143202200I-182500J0D01*
G01*
G37*
G36*
G01*
X139159800Y-143262200D02*
X138509800Y-143262200D01*
G75*
G02*
X138447300Y-143199700I0J62500D01*
G01*
X138447300Y-143074700D01*
G75*
G02*
X138509800Y-143012200I62500J0D01*
G01*
X139159800Y-143012200D01*
G75*
G02*
X139222300Y-143074700I0J-62500D01*
G01*
X139222300Y-143199700D01*
G75*
G02*
X139159800Y-143262200I-62500J0D01*
G01*
G37*
G36*
G01*
X139159800Y-142762200D02*
X138509800Y-142762200D01*
G75*
G02*
X138447300Y-142699700I0J62500D01*
G01*
X138447300Y-142574700D01*
G75*
G02*
X138509800Y-142512200I62500J0D01*
G01*
X139159800Y-142512200D01*
G75*
G02*
X139222300Y-142574700I0J-62500D01*
G01*
X139222300Y-142699700D01*
G75*
G02*
X139159800Y-142762200I-62500J0D01*
G01*
G37*
G36*
G01*
X139159800Y-142262200D02*
X138509800Y-142262200D01*
G75*
G02*
X138447300Y-142199700I0J62500D01*
G01*
X138447300Y-142074700D01*
G75*
G02*
X138509800Y-142012200I62500J0D01*
G01*
X139159800Y-142012200D01*
G75*
G02*
X139222300Y-142074700I0J-62500D01*
G01*
X139222300Y-142199700D01*
G75*
G02*
X139159800Y-142262200I-62500J0D01*
G01*
G37*
G36*
G01*
X139159800Y-141762200D02*
X138509800Y-141762200D01*
G75*
G02*
X138447300Y-141699700I0J62500D01*
G01*
X138447300Y-141574700D01*
G75*
G02*
X138509800Y-141512200I62500J0D01*
G01*
X139159800Y-141512200D01*
G75*
G02*
X139222300Y-141574700I0J-62500D01*
G01*
X139222300Y-141699700D01*
G75*
G02*
X139159800Y-141762200I-62500J0D01*
G01*
G37*
G36*
G01*
X139634800Y-141287200D02*
X139509800Y-141287200D01*
G75*
G02*
X139447300Y-141224700I0J62500D01*
G01*
X139447300Y-140574700D01*
G75*
G02*
X139509800Y-140512200I62500J0D01*
G01*
X139634800Y-140512200D01*
G75*
G02*
X139697300Y-140574700I0J-62500D01*
G01*
X139697300Y-141224700D01*
G75*
G02*
X139634800Y-141287200I-62500J0D01*
G01*
G37*
G36*
G01*
X140134800Y-141287200D02*
X140009800Y-141287200D01*
G75*
G02*
X139947300Y-141224700I0J62500D01*
G01*
X139947300Y-140574700D01*
G75*
G02*
X140009800Y-140512200I62500J0D01*
G01*
X140134800Y-140512200D01*
G75*
G02*
X140197300Y-140574700I0J-62500D01*
G01*
X140197300Y-141224700D01*
G75*
G02*
X140134800Y-141287200I-62500J0D01*
G01*
G37*
G36*
G01*
X140634800Y-141287200D02*
X140509800Y-141287200D01*
G75*
G02*
X140447300Y-141224700I0J62500D01*
G01*
X140447300Y-140574700D01*
G75*
G02*
X140509800Y-140512200I62500J0D01*
G01*
X140634800Y-140512200D01*
G75*
G02*
X140697300Y-140574700I0J-62500D01*
G01*
X140697300Y-141224700D01*
G75*
G02*
X140634800Y-141287200I-62500J0D01*
G01*
G37*
G36*
G01*
X141134800Y-141287200D02*
X141009800Y-141287200D01*
G75*
G02*
X140947300Y-141224700I0J62500D01*
G01*
X140947300Y-140574700D01*
G75*
G02*
X141009800Y-140512200I62500J0D01*
G01*
X141134800Y-140512200D01*
G75*
G02*
X141197300Y-140574700I0J-62500D01*
G01*
X141197300Y-141224700D01*
G75*
G02*
X141134800Y-141287200I-62500J0D01*
G01*
G37*
G36*
G01*
X142134800Y-141762200D02*
X141484800Y-141762200D01*
G75*
G02*
X141422300Y-141699700I0J62500D01*
G01*
X141422300Y-141574700D01*
G75*
G02*
X141484800Y-141512200I62500J0D01*
G01*
X142134800Y-141512200D01*
G75*
G02*
X142197300Y-141574700I0J-62500D01*
G01*
X142197300Y-141699700D01*
G75*
G02*
X142134800Y-141762200I-62500J0D01*
G01*
G37*
G36*
G01*
X142134800Y-142262200D02*
X141484800Y-142262200D01*
G75*
G02*
X141422300Y-142199700I0J62500D01*
G01*
X141422300Y-142074700D01*
G75*
G02*
X141484800Y-142012200I62500J0D01*
G01*
X142134800Y-142012200D01*
G75*
G02*
X142197300Y-142074700I0J-62500D01*
G01*
X142197300Y-142199700D01*
G75*
G02*
X142134800Y-142262200I-62500J0D01*
G01*
G37*
G36*
G01*
X142134800Y-142762200D02*
X141484800Y-142762200D01*
G75*
G02*
X141422300Y-142699700I0J62500D01*
G01*
X141422300Y-142574700D01*
G75*
G02*
X141484800Y-142512200I62500J0D01*
G01*
X142134800Y-142512200D01*
G75*
G02*
X142197300Y-142574700I0J-62500D01*
G01*
X142197300Y-142699700D01*
G75*
G02*
X142134800Y-142762200I-62500J0D01*
G01*
G37*
G36*
G01*
X142134800Y-143262200D02*
X141484800Y-143262200D01*
G75*
G02*
X141422300Y-143199700I0J62500D01*
G01*
X141422300Y-143074700D01*
G75*
G02*
X141484800Y-143012200I62500J0D01*
G01*
X142134800Y-143012200D01*
G75*
G02*
X142197300Y-143074700I0J-62500D01*
G01*
X142197300Y-143199700D01*
G75*
G02*
X142134800Y-143262200I-62500J0D01*
G01*
G37*
G36*
G01*
X141134800Y-144262200D02*
X141009800Y-144262200D01*
G75*
G02*
X140947300Y-144199700I0J62500D01*
G01*
X140947300Y-143549700D01*
G75*
G02*
X141009800Y-143487200I62500J0D01*
G01*
X141134800Y-143487200D01*
G75*
G02*
X141197300Y-143549700I0J-62500D01*
G01*
X141197300Y-144199700D01*
G75*
G02*
X141134800Y-144262200I-62500J0D01*
G01*
G37*
G36*
G01*
X140634800Y-144262200D02*
X140509800Y-144262200D01*
G75*
G02*
X140447300Y-144199700I0J62500D01*
G01*
X140447300Y-143549700D01*
G75*
G02*
X140509800Y-143487200I62500J0D01*
G01*
X140634800Y-143487200D01*
G75*
G02*
X140697300Y-143549700I0J-62500D01*
G01*
X140697300Y-144199700D01*
G75*
G02*
X140634800Y-144262200I-62500J0D01*
G01*
G37*
G36*
G01*
X140134800Y-144262200D02*
X140009800Y-144262200D01*
G75*
G02*
X139947300Y-144199700I0J62500D01*
G01*
X139947300Y-143549700D01*
G75*
G02*
X140009800Y-143487200I62500J0D01*
G01*
X140134800Y-143487200D01*
G75*
G02*
X140197300Y-143549700I0J-62500D01*
G01*
X140197300Y-144199700D01*
G75*
G02*
X140134800Y-144262200I-62500J0D01*
G01*
G37*
G36*
G01*
X139634800Y-144262200D02*
X139509800Y-144262200D01*
G75*
G02*
X139447300Y-144199700I0J62500D01*
G01*
X139447300Y-143549700D01*
G75*
G02*
X139509800Y-143487200I62500J0D01*
G01*
X139634800Y-143487200D01*
G75*
G02*
X139697300Y-143549700I0J-62500D01*
G01*
X139697300Y-144199700D01*
G75*
G02*
X139634800Y-144262200I-62500J0D01*
G01*
G37*
%TD*%
D16*
%TO.C,SW400*%
X148894800Y-96146400D03*
X148894800Y-105326400D03*
%TD*%
%TO.C,R607*%
G36*
G01*
X83864400Y-99814801D02*
X83864400Y-98914799D01*
G75*
G02*
X84114399Y-98664800I249999J0D01*
G01*
X84814401Y-98664800D01*
G75*
G02*
X85064400Y-98914799I0J-249999D01*
G01*
X85064400Y-99814801D01*
G75*
G02*
X84814401Y-100064800I-249999J0D01*
G01*
X84114399Y-100064800D01*
G75*
G02*
X83864400Y-99814801I0J249999D01*
G01*
G37*
G36*
G01*
X81864400Y-99814801D02*
X81864400Y-98914799D01*
G75*
G02*
X82114399Y-98664800I249999J0D01*
G01*
X82814401Y-98664800D01*
G75*
G02*
X83064400Y-98914799I0J-249999D01*
G01*
X83064400Y-99814801D01*
G75*
G02*
X82814401Y-100064800I-249999J0D01*
G01*
X82114399Y-100064800D01*
G75*
G02*
X81864400Y-99814801I0J249999D01*
G01*
G37*
%TD*%
%TO.C,R606*%
G36*
G01*
X117290800Y-151986401D02*
X117290800Y-151086399D01*
G75*
G02*
X117540799Y-150836400I249999J0D01*
G01*
X118240801Y-150836400D01*
G75*
G02*
X118490800Y-151086399I0J-249999D01*
G01*
X118490800Y-151986401D01*
G75*
G02*
X118240801Y-152236400I-249999J0D01*
G01*
X117540799Y-152236400D01*
G75*
G02*
X117290800Y-151986401I0J249999D01*
G01*
G37*
G36*
G01*
X115290800Y-151986401D02*
X115290800Y-151086399D01*
G75*
G02*
X115540799Y-150836400I249999J0D01*
G01*
X116240801Y-150836400D01*
G75*
G02*
X116490800Y-151086399I0J-249999D01*
G01*
X116490800Y-151986401D01*
G75*
G02*
X116240801Y-152236400I-249999J0D01*
G01*
X115540799Y-152236400D01*
G75*
G02*
X115290800Y-151986401I0J249999D01*
G01*
G37*
%TD*%
%TO.C,R605*%
G36*
G01*
X83029600Y-95612799D02*
X83029600Y-96512801D01*
G75*
G02*
X82779601Y-96762800I-249999J0D01*
G01*
X82079599Y-96762800D01*
G75*
G02*
X81829600Y-96512801I0J249999D01*
G01*
X81829600Y-95612799D01*
G75*
G02*
X82079599Y-95362800I249999J0D01*
G01*
X82779601Y-95362800D01*
G75*
G02*
X83029600Y-95612799I0J-249999D01*
G01*
G37*
G36*
G01*
X85029600Y-95612799D02*
X85029600Y-96512801D01*
G75*
G02*
X84779601Y-96762800I-249999J0D01*
G01*
X84079599Y-96762800D01*
G75*
G02*
X83829600Y-96512801I0J249999D01*
G01*
X83829600Y-95612799D01*
G75*
G02*
X84079599Y-95362800I249999J0D01*
G01*
X84779601Y-95362800D01*
G75*
G02*
X85029600Y-95612799I0J-249999D01*
G01*
G37*
%TD*%
%TO.C,R604*%
G36*
G01*
X99206000Y-151326001D02*
X99206000Y-150425999D01*
G75*
G02*
X99455999Y-150176000I249999J0D01*
G01*
X100156001Y-150176000D01*
G75*
G02*
X100406000Y-150425999I0J-249999D01*
G01*
X100406000Y-151326001D01*
G75*
G02*
X100156001Y-151576000I-249999J0D01*
G01*
X99455999Y-151576000D01*
G75*
G02*
X99206000Y-151326001I0J249999D01*
G01*
G37*
G36*
G01*
X97206000Y-151326001D02*
X97206000Y-150425999D01*
G75*
G02*
X97455999Y-150176000I249999J0D01*
G01*
X98156001Y-150176000D01*
G75*
G02*
X98406000Y-150425999I0J-249999D01*
G01*
X98406000Y-151326001D01*
G75*
G02*
X98156001Y-151576000I-249999J0D01*
G01*
X97455999Y-151576000D01*
G75*
G02*
X97206000Y-151326001I0J249999D01*
G01*
G37*
%TD*%
%TO.C,R603*%
G36*
G01*
X95675000Y-127796300D02*
X95675000Y-127321300D01*
G75*
G02*
X95912500Y-127083800I237500J0D01*
G01*
X96412500Y-127083800D01*
G75*
G02*
X96650000Y-127321300I0J-237500D01*
G01*
X96650000Y-127796300D01*
G75*
G02*
X96412500Y-128033800I-237500J0D01*
G01*
X95912500Y-128033800D01*
G75*
G02*
X95675000Y-127796300I0J237500D01*
G01*
G37*
G36*
G01*
X93850000Y-127796300D02*
X93850000Y-127321300D01*
G75*
G02*
X94087500Y-127083800I237500J0D01*
G01*
X94587500Y-127083800D01*
G75*
G02*
X94825000Y-127321300I0J-237500D01*
G01*
X94825000Y-127796300D01*
G75*
G02*
X94587500Y-128033800I-237500J0D01*
G01*
X94087500Y-128033800D01*
G75*
G02*
X93850000Y-127796300I0J237500D01*
G01*
G37*
%TD*%
%TO.C,R602*%
G36*
G01*
X99838500Y-122089100D02*
X100313500Y-122089100D01*
G75*
G02*
X100551000Y-122326600I0J-237500D01*
G01*
X100551000Y-122826600D01*
G75*
G02*
X100313500Y-123064100I-237500J0D01*
G01*
X99838500Y-123064100D01*
G75*
G02*
X99601000Y-122826600I0J237500D01*
G01*
X99601000Y-122326600D01*
G75*
G02*
X99838500Y-122089100I237500J0D01*
G01*
G37*
G36*
G01*
X99838500Y-120264100D02*
X100313500Y-120264100D01*
G75*
G02*
X100551000Y-120501600I0J-237500D01*
G01*
X100551000Y-121001600D01*
G75*
G02*
X100313500Y-121239100I-237500J0D01*
G01*
X99838500Y-121239100D01*
G75*
G02*
X99601000Y-121001600I0J237500D01*
G01*
X99601000Y-120501600D01*
G75*
G02*
X99838500Y-120264100I237500J0D01*
G01*
G37*
%TD*%
%TO.C,R601*%
G36*
G01*
X103920100Y-125695700D02*
X103920100Y-126170700D01*
G75*
G02*
X103682600Y-126408200I-237500J0D01*
G01*
X103182600Y-126408200D01*
G75*
G02*
X102945100Y-126170700I0J237500D01*
G01*
X102945100Y-125695700D01*
G75*
G02*
X103182600Y-125458200I237500J0D01*
G01*
X103682600Y-125458200D01*
G75*
G02*
X103920100Y-125695700I0J-237500D01*
G01*
G37*
G36*
G01*
X105745100Y-125695700D02*
X105745100Y-126170700D01*
G75*
G02*
X105507600Y-126408200I-237500J0D01*
G01*
X105007600Y-126408200D01*
G75*
G02*
X104770100Y-126170700I0J237500D01*
G01*
X104770100Y-125695700D01*
G75*
G02*
X105007600Y-125458200I237500J0D01*
G01*
X105507600Y-125458200D01*
G75*
G02*
X105745100Y-125695700I0J-237500D01*
G01*
G37*
%TD*%
%TO.C,R600*%
G36*
G01*
X101075500Y-131348300D02*
X100600500Y-131348300D01*
G75*
G02*
X100363000Y-131110800I0J237500D01*
G01*
X100363000Y-130610800D01*
G75*
G02*
X100600500Y-130373300I237500J0D01*
G01*
X101075500Y-130373300D01*
G75*
G02*
X101313000Y-130610800I0J-237500D01*
G01*
X101313000Y-131110800D01*
G75*
G02*
X101075500Y-131348300I-237500J0D01*
G01*
G37*
G36*
G01*
X101075500Y-133173300D02*
X100600500Y-133173300D01*
G75*
G02*
X100363000Y-132935800I0J237500D01*
G01*
X100363000Y-132435800D01*
G75*
G02*
X100600500Y-132198300I237500J0D01*
G01*
X101075500Y-132198300D01*
G75*
G02*
X101313000Y-132435800I0J-237500D01*
G01*
X101313000Y-132935800D01*
G75*
G02*
X101075500Y-133173300I-237500J0D01*
G01*
G37*
%TD*%
%TO.C,R505*%
G36*
G01*
X139030000Y-108465199D02*
X139030000Y-109365201D01*
G75*
G02*
X138780001Y-109615200I-249999J0D01*
G01*
X138079999Y-109615200D01*
G75*
G02*
X137830000Y-109365201I0J249999D01*
G01*
X137830000Y-108465199D01*
G75*
G02*
X138079999Y-108215200I249999J0D01*
G01*
X138780001Y-108215200D01*
G75*
G02*
X139030000Y-108465199I0J-249999D01*
G01*
G37*
G36*
G01*
X141030000Y-108465199D02*
X141030000Y-109365201D01*
G75*
G02*
X140780001Y-109615200I-249999J0D01*
G01*
X140079999Y-109615200D01*
G75*
G02*
X139830000Y-109365201I0J249999D01*
G01*
X139830000Y-108465199D01*
G75*
G02*
X140079999Y-108215200I249999J0D01*
G01*
X140780001Y-108215200D01*
G75*
G02*
X141030000Y-108465199I0J-249999D01*
G01*
G37*
%TD*%
%TO.C,R504*%
G36*
G01*
X147186200Y-117433100D02*
X147186200Y-116958100D01*
G75*
G02*
X147423700Y-116720600I237500J0D01*
G01*
X147923700Y-116720600D01*
G75*
G02*
X148161200Y-116958100I0J-237500D01*
G01*
X148161200Y-117433100D01*
G75*
G02*
X147923700Y-117670600I-237500J0D01*
G01*
X147423700Y-117670600D01*
G75*
G02*
X147186200Y-117433100I0J237500D01*
G01*
G37*
G36*
G01*
X145361200Y-117433100D02*
X145361200Y-116958100D01*
G75*
G02*
X145598700Y-116720600I237500J0D01*
G01*
X146098700Y-116720600D01*
G75*
G02*
X146336200Y-116958100I0J-237500D01*
G01*
X146336200Y-117433100D01*
G75*
G02*
X146098700Y-117670600I-237500J0D01*
G01*
X145598700Y-117670600D01*
G75*
G02*
X145361200Y-117433100I0J237500D01*
G01*
G37*
%TD*%
%TO.C,R503*%
G36*
G01*
X145355300Y-114469100D02*
X145830300Y-114469100D01*
G75*
G02*
X146067800Y-114706600I0J-237500D01*
G01*
X146067800Y-115206600D01*
G75*
G02*
X145830300Y-115444100I-237500J0D01*
G01*
X145355300Y-115444100D01*
G75*
G02*
X145117800Y-115206600I0J237500D01*
G01*
X145117800Y-114706600D01*
G75*
G02*
X145355300Y-114469100I237500J0D01*
G01*
G37*
G36*
G01*
X145355300Y-112644100D02*
X145830300Y-112644100D01*
G75*
G02*
X146067800Y-112881600I0J-237500D01*
G01*
X146067800Y-113381600D01*
G75*
G02*
X145830300Y-113619100I-237500J0D01*
G01*
X145355300Y-113619100D01*
G75*
G02*
X145117800Y-113381600I0J237500D01*
G01*
X145117800Y-112881600D01*
G75*
G02*
X145355300Y-112644100I237500J0D01*
G01*
G37*
%TD*%
%TO.C,R502*%
G36*
G01*
X148989201Y-119640400D02*
X148089199Y-119640400D01*
G75*
G02*
X147839200Y-119390401I0J249999D01*
G01*
X147839200Y-118690399D01*
G75*
G02*
X148089199Y-118440400I249999J0D01*
G01*
X148989201Y-118440400D01*
G75*
G02*
X149239200Y-118690399I0J-249999D01*
G01*
X149239200Y-119390401D01*
G75*
G02*
X148989201Y-119640400I-249999J0D01*
G01*
G37*
G36*
G01*
X148989201Y-121640400D02*
X148089199Y-121640400D01*
G75*
G02*
X147839200Y-121390401I0J249999D01*
G01*
X147839200Y-120690399D01*
G75*
G02*
X148089199Y-120440400I249999J0D01*
G01*
X148989201Y-120440400D01*
G75*
G02*
X149239200Y-120690399I0J-249999D01*
G01*
X149239200Y-121390401D01*
G75*
G02*
X148989201Y-121640400I-249999J0D01*
G01*
G37*
%TD*%
%TO.C,R501*%
G36*
G01*
X146006399Y-123539200D02*
X146906401Y-123539200D01*
G75*
G02*
X147156400Y-123789199I0J-249999D01*
G01*
X147156400Y-124489201D01*
G75*
G02*
X146906401Y-124739200I-249999J0D01*
G01*
X146006399Y-124739200D01*
G75*
G02*
X145756400Y-124489201I0J249999D01*
G01*
X145756400Y-123789199D01*
G75*
G02*
X146006399Y-123539200I249999J0D01*
G01*
G37*
G36*
G01*
X146006399Y-121539200D02*
X146906401Y-121539200D01*
G75*
G02*
X147156400Y-121789199I0J-249999D01*
G01*
X147156400Y-122489201D01*
G75*
G02*
X146906401Y-122739200I-249999J0D01*
G01*
X146006399Y-122739200D01*
G75*
G02*
X145756400Y-122489201I0J249999D01*
G01*
X145756400Y-121789199D01*
G75*
G02*
X146006399Y-121539200I249999J0D01*
G01*
G37*
%TD*%
%TO.C,R500*%
G36*
G01*
X141216801Y-129936800D02*
X140316799Y-129936800D01*
G75*
G02*
X140066800Y-129686801I0J249999D01*
G01*
X140066800Y-128986799D01*
G75*
G02*
X140316799Y-128736800I249999J0D01*
G01*
X141216801Y-128736800D01*
G75*
G02*
X141466800Y-128986799I0J-249999D01*
G01*
X141466800Y-129686801D01*
G75*
G02*
X141216801Y-129936800I-249999J0D01*
G01*
G37*
G36*
G01*
X141216801Y-131936800D02*
X140316799Y-131936800D01*
G75*
G02*
X140066800Y-131686801I0J249999D01*
G01*
X140066800Y-130986799D01*
G75*
G02*
X140316799Y-130736800I249999J0D01*
G01*
X141216801Y-130736800D01*
G75*
G02*
X141466800Y-130986799I0J-249999D01*
G01*
X141466800Y-131686801D01*
G75*
G02*
X141216801Y-131936800I-249999J0D01*
G01*
G37*
%TD*%
%TO.C,R401*%
G36*
G01*
X144796500Y-95626100D02*
X145271500Y-95626100D01*
G75*
G02*
X145509000Y-95863600I0J-237500D01*
G01*
X145509000Y-96363600D01*
G75*
G02*
X145271500Y-96601100I-237500J0D01*
G01*
X144796500Y-96601100D01*
G75*
G02*
X144559000Y-96363600I0J237500D01*
G01*
X144559000Y-95863600D01*
G75*
G02*
X144796500Y-95626100I237500J0D01*
G01*
G37*
G36*
G01*
X144796500Y-93801100D02*
X145271500Y-93801100D01*
G75*
G02*
X145509000Y-94038600I0J-237500D01*
G01*
X145509000Y-94538600D01*
G75*
G02*
X145271500Y-94776100I-237500J0D01*
G01*
X144796500Y-94776100D01*
G75*
G02*
X144559000Y-94538600I0J237500D01*
G01*
X144559000Y-94038600D01*
G75*
G02*
X144796500Y-93801100I237500J0D01*
G01*
G37*
%TD*%
%TO.C,R400*%
G36*
G01*
X106788799Y-94735600D02*
X107688801Y-94735600D01*
G75*
G02*
X107938800Y-94985599I0J-249999D01*
G01*
X107938800Y-95685601D01*
G75*
G02*
X107688801Y-95935600I-249999J0D01*
G01*
X106788799Y-95935600D01*
G75*
G02*
X106538800Y-95685601I0J249999D01*
G01*
X106538800Y-94985599D01*
G75*
G02*
X106788799Y-94735600I249999J0D01*
G01*
G37*
G36*
G01*
X106788799Y-92735600D02*
X107688801Y-92735600D01*
G75*
G02*
X107938800Y-92985599I0J-249999D01*
G01*
X107938800Y-93685601D01*
G75*
G02*
X107688801Y-93935600I-249999J0D01*
G01*
X106788799Y-93935600D01*
G75*
G02*
X106538800Y-93685601I0J249999D01*
G01*
X106538800Y-92985599D01*
G75*
G02*
X106788799Y-92735600I249999J0D01*
G01*
G37*
%TD*%
%TO.C,R302*%
G36*
G01*
X88817000Y-89442300D02*
X88817000Y-88967300D01*
G75*
G02*
X89054500Y-88729800I237500J0D01*
G01*
X89554500Y-88729800D01*
G75*
G02*
X89792000Y-88967300I0J-237500D01*
G01*
X89792000Y-89442300D01*
G75*
G02*
X89554500Y-89679800I-237500J0D01*
G01*
X89054500Y-89679800D01*
G75*
G02*
X88817000Y-89442300I0J237500D01*
G01*
G37*
G36*
G01*
X86992000Y-89442300D02*
X86992000Y-88967300D01*
G75*
G02*
X87229500Y-88729800I237500J0D01*
G01*
X87729500Y-88729800D01*
G75*
G02*
X87967000Y-88967300I0J-237500D01*
G01*
X87967000Y-89442300D01*
G75*
G02*
X87729500Y-89679800I-237500J0D01*
G01*
X87229500Y-89679800D01*
G75*
G02*
X86992000Y-89442300I0J237500D01*
G01*
G37*
%TD*%
%TO.C,R301*%
G36*
G01*
X81845999Y-91957600D02*
X82746001Y-91957600D01*
G75*
G02*
X82996000Y-92207599I0J-249999D01*
G01*
X82996000Y-92907601D01*
G75*
G02*
X82746001Y-93157600I-249999J0D01*
G01*
X81845999Y-93157600D01*
G75*
G02*
X81596000Y-92907601I0J249999D01*
G01*
X81596000Y-92207599D01*
G75*
G02*
X81845999Y-91957600I249999J0D01*
G01*
G37*
G36*
G01*
X81845999Y-89957600D02*
X82746001Y-89957600D01*
G75*
G02*
X82996000Y-90207599I0J-249999D01*
G01*
X82996000Y-90907601D01*
G75*
G02*
X82746001Y-91157600I-249999J0D01*
G01*
X81845999Y-91157600D01*
G75*
G02*
X81596000Y-90907601I0J249999D01*
G01*
X81596000Y-90207599D01*
G75*
G02*
X81845999Y-89957600I249999J0D01*
G01*
G37*
%TD*%
%TO.C,R300*%
G36*
G01*
X87916200Y-86986100D02*
X87916200Y-87461100D01*
G75*
G02*
X87678700Y-87698600I-237500J0D01*
G01*
X87178700Y-87698600D01*
G75*
G02*
X86941200Y-87461100I0J237500D01*
G01*
X86941200Y-86986100D01*
G75*
G02*
X87178700Y-86748600I237500J0D01*
G01*
X87678700Y-86748600D01*
G75*
G02*
X87916200Y-86986100I0J-237500D01*
G01*
G37*
G36*
G01*
X89741200Y-86986100D02*
X89741200Y-87461100D01*
G75*
G02*
X89503700Y-87698600I-237500J0D01*
G01*
X89003700Y-87698600D01*
G75*
G02*
X88766200Y-87461100I0J237500D01*
G01*
X88766200Y-86986100D01*
G75*
G02*
X89003700Y-86748600I237500J0D01*
G01*
X89503700Y-86748600D01*
G75*
G02*
X89741200Y-86986100I0J-237500D01*
G01*
G37*
%TD*%
%TO.C,R208*%
G36*
G01*
X140483600Y-147847500D02*
X140008600Y-147847500D01*
G75*
G02*
X139771100Y-147610000I0J237500D01*
G01*
X139771100Y-147110000D01*
G75*
G02*
X140008600Y-146872500I237500J0D01*
G01*
X140483600Y-146872500D01*
G75*
G02*
X140721100Y-147110000I0J-237500D01*
G01*
X140721100Y-147610000D01*
G75*
G02*
X140483600Y-147847500I-237500J0D01*
G01*
G37*
G36*
G01*
X140483600Y-149672500D02*
X140008600Y-149672500D01*
G75*
G02*
X139771100Y-149435000I0J237500D01*
G01*
X139771100Y-148935000D01*
G75*
G02*
X140008600Y-148697500I237500J0D01*
G01*
X140483600Y-148697500D01*
G75*
G02*
X140721100Y-148935000I0J-237500D01*
G01*
X140721100Y-149435000D01*
G75*
G02*
X140483600Y-149672500I-237500J0D01*
G01*
G37*
%TD*%
%TO.C,R207*%
G36*
G01*
X143390800Y-148306800D02*
X143390800Y-147831800D01*
G75*
G02*
X143628300Y-147594300I237500J0D01*
G01*
X144128300Y-147594300D01*
G75*
G02*
X144365800Y-147831800I0J-237500D01*
G01*
X144365800Y-148306800D01*
G75*
G02*
X144128300Y-148544300I-237500J0D01*
G01*
X143628300Y-148544300D01*
G75*
G02*
X143390800Y-148306800I0J237500D01*
G01*
G37*
G36*
G01*
X141565800Y-148306800D02*
X141565800Y-147831800D01*
G75*
G02*
X141803300Y-147594300I237500J0D01*
G01*
X142303300Y-147594300D01*
G75*
G02*
X142540800Y-147831800I0J-237500D01*
G01*
X142540800Y-148306800D01*
G75*
G02*
X142303300Y-148544300I-237500J0D01*
G01*
X141803300Y-148544300D01*
G75*
G02*
X141565800Y-148306800I0J237500D01*
G01*
G37*
%TD*%
%TO.C,R206*%
G36*
G01*
X140839200Y-136862000D02*
X140364200Y-136862000D01*
G75*
G02*
X140126700Y-136624500I0J237500D01*
G01*
X140126700Y-136124500D01*
G75*
G02*
X140364200Y-135887000I237500J0D01*
G01*
X140839200Y-135887000D01*
G75*
G02*
X141076700Y-136124500I0J-237500D01*
G01*
X141076700Y-136624500D01*
G75*
G02*
X140839200Y-136862000I-237500J0D01*
G01*
G37*
G36*
G01*
X140839200Y-138687000D02*
X140364200Y-138687000D01*
G75*
G02*
X140126700Y-138449500I0J237500D01*
G01*
X140126700Y-137949500D01*
G75*
G02*
X140364200Y-137712000I237500J0D01*
G01*
X140839200Y-137712000D01*
G75*
G02*
X141076700Y-137949500I0J-237500D01*
G01*
X141076700Y-138449500D01*
G75*
G02*
X140839200Y-138687000I-237500J0D01*
G01*
G37*
%TD*%
%TO.C,R205*%
G36*
G01*
X142490200Y-136851200D02*
X142015200Y-136851200D01*
G75*
G02*
X141777700Y-136613700I0J237500D01*
G01*
X141777700Y-136113700D01*
G75*
G02*
X142015200Y-135876200I237500J0D01*
G01*
X142490200Y-135876200D01*
G75*
G02*
X142727700Y-136113700I0J-237500D01*
G01*
X142727700Y-136613700D01*
G75*
G02*
X142490200Y-136851200I-237500J0D01*
G01*
G37*
G36*
G01*
X142490200Y-138676200D02*
X142015200Y-138676200D01*
G75*
G02*
X141777700Y-138438700I0J237500D01*
G01*
X141777700Y-137938700D01*
G75*
G02*
X142015200Y-137701200I237500J0D01*
G01*
X142490200Y-137701200D01*
G75*
G02*
X142727700Y-137938700I0J-237500D01*
G01*
X142727700Y-138438700D01*
G75*
G02*
X142490200Y-138676200I-237500J0D01*
G01*
G37*
%TD*%
%TO.C,R204*%
G36*
G01*
X144153900Y-136825800D02*
X143678900Y-136825800D01*
G75*
G02*
X143441400Y-136588300I0J237500D01*
G01*
X143441400Y-136088300D01*
G75*
G02*
X143678900Y-135850800I237500J0D01*
G01*
X144153900Y-135850800D01*
G75*
G02*
X144391400Y-136088300I0J-237500D01*
G01*
X144391400Y-136588300D01*
G75*
G02*
X144153900Y-136825800I-237500J0D01*
G01*
G37*
G36*
G01*
X144153900Y-138650800D02*
X143678900Y-138650800D01*
G75*
G02*
X143441400Y-138413300I0J237500D01*
G01*
X143441400Y-137913300D01*
G75*
G02*
X143678900Y-137675800I237500J0D01*
G01*
X144153900Y-137675800D01*
G75*
G02*
X144391400Y-137913300I0J-237500D01*
G01*
X144391400Y-138413300D01*
G75*
G02*
X144153900Y-138650800I-237500J0D01*
G01*
G37*
%TD*%
%TO.C,R203*%
G36*
G01*
X147666700Y-141382300D02*
X148141700Y-141382300D01*
G75*
G02*
X148379200Y-141619800I0J-237500D01*
G01*
X148379200Y-142119800D01*
G75*
G02*
X148141700Y-142357300I-237500J0D01*
G01*
X147666700Y-142357300D01*
G75*
G02*
X147429200Y-142119800I0J237500D01*
G01*
X147429200Y-141619800D01*
G75*
G02*
X147666700Y-141382300I237500J0D01*
G01*
G37*
G36*
G01*
X147666700Y-139557300D02*
X148141700Y-139557300D01*
G75*
G02*
X148379200Y-139794800I0J-237500D01*
G01*
X148379200Y-140294800D01*
G75*
G02*
X148141700Y-140532300I-237500J0D01*
G01*
X147666700Y-140532300D01*
G75*
G02*
X147429200Y-140294800I0J237500D01*
G01*
X147429200Y-139794800D01*
G75*
G02*
X147666700Y-139557300I237500J0D01*
G01*
G37*
%TD*%
%TO.C,R202*%
G36*
G01*
X146439900Y-140545000D02*
X145964900Y-140545000D01*
G75*
G02*
X145727400Y-140307500I0J237500D01*
G01*
X145727400Y-139807500D01*
G75*
G02*
X145964900Y-139570000I237500J0D01*
G01*
X146439900Y-139570000D01*
G75*
G02*
X146677400Y-139807500I0J-237500D01*
G01*
X146677400Y-140307500D01*
G75*
G02*
X146439900Y-140545000I-237500J0D01*
G01*
G37*
G36*
G01*
X146439900Y-142370000D02*
X145964900Y-142370000D01*
G75*
G02*
X145727400Y-142132500I0J237500D01*
G01*
X145727400Y-141632500D01*
G75*
G02*
X145964900Y-141395000I237500J0D01*
G01*
X146439900Y-141395000D01*
G75*
G02*
X146677400Y-141632500I0J-237500D01*
G01*
X146677400Y-142132500D01*
G75*
G02*
X146439900Y-142370000I-237500J0D01*
G01*
G37*
%TD*%
%TO.C,R201*%
G36*
G01*
X147681500Y-144903200D02*
X147681500Y-144428200D01*
G75*
G02*
X147919000Y-144190700I237500J0D01*
G01*
X148419000Y-144190700D01*
G75*
G02*
X148656500Y-144428200I0J-237500D01*
G01*
X148656500Y-144903200D01*
G75*
G02*
X148419000Y-145140700I-237500J0D01*
G01*
X147919000Y-145140700D01*
G75*
G02*
X147681500Y-144903200I0J237500D01*
G01*
G37*
G36*
G01*
X145856500Y-144903200D02*
X145856500Y-144428200D01*
G75*
G02*
X146094000Y-144190700I237500J0D01*
G01*
X146594000Y-144190700D01*
G75*
G02*
X146831500Y-144428200I0J-237500D01*
G01*
X146831500Y-144903200D01*
G75*
G02*
X146594000Y-145140700I-237500J0D01*
G01*
X146094000Y-145140700D01*
G75*
G02*
X145856500Y-144903200I0J237500D01*
G01*
G37*
%TD*%
%TO.C,R200*%
G36*
G01*
X144161500Y-143541300D02*
X144636500Y-143541300D01*
G75*
G02*
X144874000Y-143778800I0J-237500D01*
G01*
X144874000Y-144278800D01*
G75*
G02*
X144636500Y-144516300I-237500J0D01*
G01*
X144161500Y-144516300D01*
G75*
G02*
X143924000Y-144278800I0J237500D01*
G01*
X143924000Y-143778800D01*
G75*
G02*
X144161500Y-143541300I237500J0D01*
G01*
G37*
G36*
G01*
X144161500Y-141716300D02*
X144636500Y-141716300D01*
G75*
G02*
X144874000Y-141953800I0J-237500D01*
G01*
X144874000Y-142453800D01*
G75*
G02*
X144636500Y-142691300I-237500J0D01*
G01*
X144161500Y-142691300D01*
G75*
G02*
X143924000Y-142453800I0J237500D01*
G01*
X143924000Y-141953800D01*
G75*
G02*
X144161500Y-141716300I237500J0D01*
G01*
G37*
%TD*%
D17*
%TO.C,L500*%
X138633200Y-121082000D03*
X138633200Y-124282000D03*
%TD*%
D18*
%TO.C,L200*%
X132118100Y-145032800D03*
X132118100Y-148132800D03*
%TD*%
D10*
%TO.C,D603*%
X88571400Y-102362000D03*
X88571400Y-104902000D03*
X82421400Y-104902000D03*
X82421400Y-102362000D03*
%TD*%
%TO.C,D602*%
X92635400Y-94183200D03*
X92635400Y-96723200D03*
X86485400Y-96723200D03*
X86485400Y-94183200D03*
%TD*%
%TO.C,D600*%
X89177800Y-150622000D03*
X89177800Y-148082000D03*
X95327800Y-148082000D03*
X95327800Y-150622000D03*
%TD*%
D19*
%TO.C,D300*%
X87080400Y-83728800D03*
X87080400Y-84378800D03*
X87080400Y-85028800D03*
X84420400Y-85028800D03*
X84420400Y-84378800D03*
X84420400Y-83728800D03*
%TD*%
D20*
%TO.C,D200*%
X127942300Y-154025300D03*
X128892300Y-151625300D03*
X129842300Y-154025300D03*
%TD*%
%TO.C,C603*%
G36*
G01*
X95576100Y-129574300D02*
X95576100Y-129099300D01*
G75*
G02*
X95813600Y-128861800I237500J0D01*
G01*
X96413600Y-128861800D01*
G75*
G02*
X96651100Y-129099300I0J-237500D01*
G01*
X96651100Y-129574300D01*
G75*
G02*
X96413600Y-129811800I-237500J0D01*
G01*
X95813600Y-129811800D01*
G75*
G02*
X95576100Y-129574300I0J237500D01*
G01*
G37*
G36*
G01*
X93851100Y-129574300D02*
X93851100Y-129099300D01*
G75*
G02*
X94088600Y-128861800I237500J0D01*
G01*
X94688600Y-128861800D01*
G75*
G02*
X94926100Y-129099300I0J-237500D01*
G01*
X94926100Y-129574300D01*
G75*
G02*
X94688600Y-129811800I-237500J0D01*
G01*
X94088600Y-129811800D01*
G75*
G02*
X93851100Y-129574300I0J237500D01*
G01*
G37*
%TD*%
%TO.C,C602*%
G36*
G01*
X98060500Y-121992100D02*
X98535500Y-121992100D01*
G75*
G02*
X98773000Y-122229600I0J-237500D01*
G01*
X98773000Y-122829600D01*
G75*
G02*
X98535500Y-123067100I-237500J0D01*
G01*
X98060500Y-123067100D01*
G75*
G02*
X97823000Y-122829600I0J237500D01*
G01*
X97823000Y-122229600D01*
G75*
G02*
X98060500Y-121992100I237500J0D01*
G01*
G37*
G36*
G01*
X98060500Y-120267100D02*
X98535500Y-120267100D01*
G75*
G02*
X98773000Y-120504600I0J-237500D01*
G01*
X98773000Y-121104600D01*
G75*
G02*
X98535500Y-121342100I-237500J0D01*
G01*
X98060500Y-121342100D01*
G75*
G02*
X97823000Y-121104600I0J237500D01*
G01*
X97823000Y-120504600D01*
G75*
G02*
X98060500Y-120267100I237500J0D01*
G01*
G37*
%TD*%
%TO.C,C601*%
G36*
G01*
X104019300Y-127321300D02*
X104019300Y-127796300D01*
G75*
G02*
X103781800Y-128033800I-237500J0D01*
G01*
X103181800Y-128033800D01*
G75*
G02*
X102944300Y-127796300I0J237500D01*
G01*
X102944300Y-127321300D01*
G75*
G02*
X103181800Y-127083800I237500J0D01*
G01*
X103781800Y-127083800D01*
G75*
G02*
X104019300Y-127321300I0J-237500D01*
G01*
G37*
G36*
G01*
X105744300Y-127321300D02*
X105744300Y-127796300D01*
G75*
G02*
X105506800Y-128033800I-237500J0D01*
G01*
X104906800Y-128033800D01*
G75*
G02*
X104669300Y-127796300I0J237500D01*
G01*
X104669300Y-127321300D01*
G75*
G02*
X104906800Y-127083800I237500J0D01*
G01*
X105506800Y-127083800D01*
G75*
G02*
X105744300Y-127321300I0J-237500D01*
G01*
G37*
%TD*%
%TO.C,C600*%
G36*
G01*
X99348300Y-131450200D02*
X98873300Y-131450200D01*
G75*
G02*
X98635800Y-131212700I0J237500D01*
G01*
X98635800Y-130612700D01*
G75*
G02*
X98873300Y-130375200I237500J0D01*
G01*
X99348300Y-130375200D01*
G75*
G02*
X99585800Y-130612700I0J-237500D01*
G01*
X99585800Y-131212700D01*
G75*
G02*
X99348300Y-131450200I-237500J0D01*
G01*
G37*
G36*
G01*
X99348300Y-133175200D02*
X98873300Y-133175200D01*
G75*
G02*
X98635800Y-132937700I0J237500D01*
G01*
X98635800Y-132337700D01*
G75*
G02*
X98873300Y-132100200I237500J0D01*
G01*
X99348300Y-132100200D01*
G75*
G02*
X99585800Y-132337700I0J-237500D01*
G01*
X99585800Y-132937700D01*
G75*
G02*
X99348300Y-133175200I-237500J0D01*
G01*
G37*
%TD*%
%TO.C,C505*%
G36*
G01*
X142893200Y-111574600D02*
X142893200Y-110624600D01*
G75*
G02*
X143143200Y-110374600I250000J0D01*
G01*
X143818200Y-110374600D01*
G75*
G02*
X144068200Y-110624600I0J-250000D01*
G01*
X144068200Y-111574600D01*
G75*
G02*
X143818200Y-111824600I-250000J0D01*
G01*
X143143200Y-111824600D01*
G75*
G02*
X142893200Y-111574600I0J250000D01*
G01*
G37*
G36*
G01*
X140818200Y-111574600D02*
X140818200Y-110624600D01*
G75*
G02*
X141068200Y-110374600I250000J0D01*
G01*
X141743200Y-110374600D01*
G75*
G02*
X141993200Y-110624600I0J-250000D01*
G01*
X141993200Y-111574600D01*
G75*
G02*
X141743200Y-111824600I-250000J0D01*
G01*
X141068200Y-111824600D01*
G75*
G02*
X140818200Y-111574600I0J250000D01*
G01*
G37*
%TD*%
%TO.C,C504*%
G36*
G01*
X142944000Y-113860600D02*
X142944000Y-112910600D01*
G75*
G02*
X143194000Y-112660600I250000J0D01*
G01*
X143869000Y-112660600D01*
G75*
G02*
X144119000Y-112910600I0J-250000D01*
G01*
X144119000Y-113860600D01*
G75*
G02*
X143869000Y-114110600I-250000J0D01*
G01*
X143194000Y-114110600D01*
G75*
G02*
X142944000Y-113860600I0J250000D01*
G01*
G37*
G36*
G01*
X140869000Y-113860600D02*
X140869000Y-112910600D01*
G75*
G02*
X141119000Y-112660600I250000J0D01*
G01*
X141794000Y-112660600D01*
G75*
G02*
X142044000Y-112910600I0J-250000D01*
G01*
X142044000Y-113860600D01*
G75*
G02*
X141794000Y-114110600I-250000J0D01*
G01*
X141119000Y-114110600D01*
G75*
G02*
X140869000Y-113860600I0J250000D01*
G01*
G37*
%TD*%
%TO.C,C503*%
G36*
G01*
X142819000Y-115705900D02*
X142819000Y-115230900D01*
G75*
G02*
X143056500Y-114993400I237500J0D01*
G01*
X143656500Y-114993400D01*
G75*
G02*
X143894000Y-115230900I0J-237500D01*
G01*
X143894000Y-115705900D01*
G75*
G02*
X143656500Y-115943400I-237500J0D01*
G01*
X143056500Y-115943400D01*
G75*
G02*
X142819000Y-115705900I0J237500D01*
G01*
G37*
G36*
G01*
X141094000Y-115705900D02*
X141094000Y-115230900D01*
G75*
G02*
X141331500Y-114993400I237500J0D01*
G01*
X141931500Y-114993400D01*
G75*
G02*
X142169000Y-115230900I0J-237500D01*
G01*
X142169000Y-115705900D01*
G75*
G02*
X141931500Y-115943400I-237500J0D01*
G01*
X141331500Y-115943400D01*
G75*
G02*
X141094000Y-115705900I0J237500D01*
G01*
G37*
%TD*%
%TO.C,C502*%
G36*
G01*
X142820100Y-117433100D02*
X142820100Y-116958100D01*
G75*
G02*
X143057600Y-116720600I237500J0D01*
G01*
X143657600Y-116720600D01*
G75*
G02*
X143895100Y-116958100I0J-237500D01*
G01*
X143895100Y-117433100D01*
G75*
G02*
X143657600Y-117670600I-237500J0D01*
G01*
X143057600Y-117670600D01*
G75*
G02*
X142820100Y-117433100I0J237500D01*
G01*
G37*
G36*
G01*
X141095100Y-117433100D02*
X141095100Y-116958100D01*
G75*
G02*
X141332600Y-116720600I237500J0D01*
G01*
X141932600Y-116720600D01*
G75*
G02*
X142170100Y-116958100I0J-237500D01*
G01*
X142170100Y-117433100D01*
G75*
G02*
X141932600Y-117670600I-237500J0D01*
G01*
X141332600Y-117670600D01*
G75*
G02*
X141095100Y-117433100I0J237500D01*
G01*
G37*
%TD*%
%TO.C,C501*%
G36*
G01*
X142566100Y-124240300D02*
X142566100Y-123765300D01*
G75*
G02*
X142803600Y-123527800I237500J0D01*
G01*
X143403600Y-123527800D01*
G75*
G02*
X143641100Y-123765300I0J-237500D01*
G01*
X143641100Y-124240300D01*
G75*
G02*
X143403600Y-124477800I-237500J0D01*
G01*
X142803600Y-124477800D01*
G75*
G02*
X142566100Y-124240300I0J237500D01*
G01*
G37*
G36*
G01*
X140841100Y-124240300D02*
X140841100Y-123765300D01*
G75*
G02*
X141078600Y-123527800I237500J0D01*
G01*
X141678600Y-123527800D01*
G75*
G02*
X141916100Y-123765300I0J-237500D01*
G01*
X141916100Y-124240300D01*
G75*
G02*
X141678600Y-124477800I-237500J0D01*
G01*
X141078600Y-124477800D01*
G75*
G02*
X140841100Y-124240300I0J237500D01*
G01*
G37*
%TD*%
%TO.C,C500*%
G36*
G01*
X142363700Y-127271800D02*
X142363700Y-126321800D01*
G75*
G02*
X142613700Y-126071800I250000J0D01*
G01*
X143288700Y-126071800D01*
G75*
G02*
X143538700Y-126321800I0J-250000D01*
G01*
X143538700Y-127271800D01*
G75*
G02*
X143288700Y-127521800I-250000J0D01*
G01*
X142613700Y-127521800D01*
G75*
G02*
X142363700Y-127271800I0J250000D01*
G01*
G37*
G36*
G01*
X140288700Y-127271800D02*
X140288700Y-126321800D01*
G75*
G02*
X140538700Y-126071800I250000J0D01*
G01*
X141213700Y-126071800D01*
G75*
G02*
X141463700Y-126321800I0J-250000D01*
G01*
X141463700Y-127271800D01*
G75*
G02*
X141213700Y-127521800I-250000J0D01*
G01*
X140538700Y-127521800D01*
G75*
G02*
X140288700Y-127271800I0J250000D01*
G01*
G37*
%TD*%
%TO.C,C407*%
G36*
G01*
X144745700Y-99182900D02*
X145220700Y-99182900D01*
G75*
G02*
X145458200Y-99420400I0J-237500D01*
G01*
X145458200Y-100020400D01*
G75*
G02*
X145220700Y-100257900I-237500J0D01*
G01*
X144745700Y-100257900D01*
G75*
G02*
X144508200Y-100020400I0J237500D01*
G01*
X144508200Y-99420400D01*
G75*
G02*
X144745700Y-99182900I237500J0D01*
G01*
G37*
G36*
G01*
X144745700Y-97457900D02*
X145220700Y-97457900D01*
G75*
G02*
X145458200Y-97695400I0J-237500D01*
G01*
X145458200Y-98295400D01*
G75*
G02*
X145220700Y-98532900I-237500J0D01*
G01*
X144745700Y-98532900D01*
G75*
G02*
X144508200Y-98295400I0J237500D01*
G01*
X144508200Y-97695400D01*
G75*
G02*
X144745700Y-97457900I237500J0D01*
G01*
G37*
%TD*%
%TO.C,C406*%
G36*
G01*
X110011500Y-111878100D02*
X110011500Y-112353100D01*
G75*
G02*
X109774000Y-112590600I-237500J0D01*
G01*
X109174000Y-112590600D01*
G75*
G02*
X108936500Y-112353100I0J237500D01*
G01*
X108936500Y-111878100D01*
G75*
G02*
X109174000Y-111640600I237500J0D01*
G01*
X109774000Y-111640600D01*
G75*
G02*
X110011500Y-111878100I0J-237500D01*
G01*
G37*
G36*
G01*
X111736500Y-111878100D02*
X111736500Y-112353100D01*
G75*
G02*
X111499000Y-112590600I-237500J0D01*
G01*
X110899000Y-112590600D01*
G75*
G02*
X110661500Y-112353100I0J237500D01*
G01*
X110661500Y-111878100D01*
G75*
G02*
X110899000Y-111640600I237500J0D01*
G01*
X111499000Y-111640600D01*
G75*
G02*
X111736500Y-111878100I0J-237500D01*
G01*
G37*
%TD*%
%TO.C,C405*%
G36*
G01*
X110012600Y-109388900D02*
X110012600Y-109863900D01*
G75*
G02*
X109775100Y-110101400I-237500J0D01*
G01*
X109175100Y-110101400D01*
G75*
G02*
X108937600Y-109863900I0J237500D01*
G01*
X108937600Y-109388900D01*
G75*
G02*
X109175100Y-109151400I237500J0D01*
G01*
X109775100Y-109151400D01*
G75*
G02*
X110012600Y-109388900I0J-237500D01*
G01*
G37*
G36*
G01*
X111737600Y-109388900D02*
X111737600Y-109863900D01*
G75*
G02*
X111500100Y-110101400I-237500J0D01*
G01*
X110900100Y-110101400D01*
G75*
G02*
X110662600Y-109863900I0J237500D01*
G01*
X110662600Y-109388900D01*
G75*
G02*
X110900100Y-109151400I237500J0D01*
G01*
X111500100Y-109151400D01*
G75*
G02*
X111737600Y-109388900I0J-237500D01*
G01*
G37*
%TD*%
%TO.C,C404*%
G36*
G01*
X131300200Y-114140400D02*
X132250200Y-114140400D01*
G75*
G02*
X132500200Y-114390400I0J-250000D01*
G01*
X132500200Y-115065400D01*
G75*
G02*
X132250200Y-115315400I-250000J0D01*
G01*
X131300200Y-115315400D01*
G75*
G02*
X131050200Y-115065400I0J250000D01*
G01*
X131050200Y-114390400D01*
G75*
G02*
X131300200Y-114140400I250000J0D01*
G01*
G37*
G36*
G01*
X131300200Y-112065400D02*
X132250200Y-112065400D01*
G75*
G02*
X132500200Y-112315400I0J-250000D01*
G01*
X132500200Y-112990400D01*
G75*
G02*
X132250200Y-113240400I-250000J0D01*
G01*
X131300200Y-113240400D01*
G75*
G02*
X131050200Y-112990400I0J250000D01*
G01*
X131050200Y-112315400D01*
G75*
G02*
X131300200Y-112065400I250000J0D01*
G01*
G37*
%TD*%
%TO.C,C402*%
G36*
G01*
X114537500Y-102900600D02*
X114062500Y-102900600D01*
G75*
G02*
X113825000Y-102663100I0J237500D01*
G01*
X113825000Y-102063100D01*
G75*
G02*
X114062500Y-101825600I237500J0D01*
G01*
X114537500Y-101825600D01*
G75*
G02*
X114775000Y-102063100I0J-237500D01*
G01*
X114775000Y-102663100D01*
G75*
G02*
X114537500Y-102900600I-237500J0D01*
G01*
G37*
G36*
G01*
X114537500Y-104625600D02*
X114062500Y-104625600D01*
G75*
G02*
X113825000Y-104388100I0J237500D01*
G01*
X113825000Y-103788100D01*
G75*
G02*
X114062500Y-103550600I237500J0D01*
G01*
X114537500Y-103550600D01*
G75*
G02*
X114775000Y-103788100I0J-237500D01*
G01*
X114775000Y-104388100D01*
G75*
G02*
X114537500Y-104625600I-237500J0D01*
G01*
G37*
%TD*%
%TO.C,C401*%
G36*
G01*
X125251500Y-115891300D02*
X125251500Y-116366300D01*
G75*
G02*
X125014000Y-116603800I-237500J0D01*
G01*
X124414000Y-116603800D01*
G75*
G02*
X124176500Y-116366300I0J237500D01*
G01*
X124176500Y-115891300D01*
G75*
G02*
X124414000Y-115653800I237500J0D01*
G01*
X125014000Y-115653800D01*
G75*
G02*
X125251500Y-115891300I0J-237500D01*
G01*
G37*
G36*
G01*
X126976500Y-115891300D02*
X126976500Y-116366300D01*
G75*
G02*
X126739000Y-116603800I-237500J0D01*
G01*
X126139000Y-116603800D01*
G75*
G02*
X125901500Y-116366300I0J237500D01*
G01*
X125901500Y-115891300D01*
G75*
G02*
X126139000Y-115653800I237500J0D01*
G01*
X126739000Y-115653800D01*
G75*
G02*
X126976500Y-115891300I0J-237500D01*
G01*
G37*
%TD*%
%TO.C,C400*%
G36*
G01*
X114330600Y-115129300D02*
X114330600Y-115604300D01*
G75*
G02*
X114093100Y-115841800I-237500J0D01*
G01*
X113493100Y-115841800D01*
G75*
G02*
X113255600Y-115604300I0J237500D01*
G01*
X113255600Y-115129300D01*
G75*
G02*
X113493100Y-114891800I237500J0D01*
G01*
X114093100Y-114891800D01*
G75*
G02*
X114330600Y-115129300I0J-237500D01*
G01*
G37*
G36*
G01*
X116055600Y-115129300D02*
X116055600Y-115604300D01*
G75*
G02*
X115818100Y-115841800I-237500J0D01*
G01*
X115218100Y-115841800D01*
G75*
G02*
X114980600Y-115604300I0J237500D01*
G01*
X114980600Y-115129300D01*
G75*
G02*
X115218100Y-114891800I237500J0D01*
G01*
X115818100Y-114891800D01*
G75*
G02*
X116055600Y-115129300I0J-237500D01*
G01*
G37*
%TD*%
%TO.C,C208*%
G36*
G01*
X136419300Y-140521700D02*
X136419300Y-140046700D01*
G75*
G02*
X136656800Y-139809200I237500J0D01*
G01*
X137256800Y-139809200D01*
G75*
G02*
X137494300Y-140046700I0J-237500D01*
G01*
X137494300Y-140521700D01*
G75*
G02*
X137256800Y-140759200I-237500J0D01*
G01*
X136656800Y-140759200D01*
G75*
G02*
X136419300Y-140521700I0J237500D01*
G01*
G37*
G36*
G01*
X134694300Y-140521700D02*
X134694300Y-140046700D01*
G75*
G02*
X134931800Y-139809200I237500J0D01*
G01*
X135531800Y-139809200D01*
G75*
G02*
X135769300Y-140046700I0J-237500D01*
G01*
X135769300Y-140521700D01*
G75*
G02*
X135531800Y-140759200I-237500J0D01*
G01*
X134931800Y-140759200D01*
G75*
G02*
X134694300Y-140521700I0J237500D01*
G01*
G37*
%TD*%
%TO.C,C207*%
G36*
G01*
X136775700Y-138625600D02*
X136775700Y-137675600D01*
G75*
G02*
X137025700Y-137425600I250000J0D01*
G01*
X137700700Y-137425600D01*
G75*
G02*
X137950700Y-137675600I0J-250000D01*
G01*
X137950700Y-138625600D01*
G75*
G02*
X137700700Y-138875600I-250000J0D01*
G01*
X137025700Y-138875600D01*
G75*
G02*
X136775700Y-138625600I0J250000D01*
G01*
G37*
G36*
G01*
X134700700Y-138625600D02*
X134700700Y-137675600D01*
G75*
G02*
X134950700Y-137425600I250000J0D01*
G01*
X135625700Y-137425600D01*
G75*
G02*
X135875700Y-137675600I0J-250000D01*
G01*
X135875700Y-138625600D01*
G75*
G02*
X135625700Y-138875600I-250000J0D01*
G01*
X134950700Y-138875600D01*
G75*
G02*
X134700700Y-138625600I0J250000D01*
G01*
G37*
%TD*%
%TO.C,C205*%
G36*
G01*
X143288900Y-146490700D02*
X143288900Y-146015700D01*
G75*
G02*
X143526400Y-145778200I237500J0D01*
G01*
X144126400Y-145778200D01*
G75*
G02*
X144363900Y-146015700I0J-237500D01*
G01*
X144363900Y-146490700D01*
G75*
G02*
X144126400Y-146728200I-237500J0D01*
G01*
X143526400Y-146728200D01*
G75*
G02*
X143288900Y-146490700I0J237500D01*
G01*
G37*
G36*
G01*
X141563900Y-146490700D02*
X141563900Y-146015700D01*
G75*
G02*
X141801400Y-145778200I237500J0D01*
G01*
X142401400Y-145778200D01*
G75*
G02*
X142638900Y-146015700I0J-237500D01*
G01*
X142638900Y-146490700D01*
G75*
G02*
X142401400Y-146728200I-237500J0D01*
G01*
X141801400Y-146728200D01*
G75*
G02*
X141563900Y-146490700I0J237500D01*
G01*
G37*
%TD*%
%TO.C,C204*%
G36*
G01*
X136965700Y-146677500D02*
X136490700Y-146677500D01*
G75*
G02*
X136253200Y-146440000I0J237500D01*
G01*
X136253200Y-145840000D01*
G75*
G02*
X136490700Y-145602500I237500J0D01*
G01*
X136965700Y-145602500D01*
G75*
G02*
X137203200Y-145840000I0J-237500D01*
G01*
X137203200Y-146440000D01*
G75*
G02*
X136965700Y-146677500I-237500J0D01*
G01*
G37*
G36*
G01*
X136965700Y-148402500D02*
X136490700Y-148402500D01*
G75*
G02*
X136253200Y-148165000I0J237500D01*
G01*
X136253200Y-147565000D01*
G75*
G02*
X136490700Y-147327500I237500J0D01*
G01*
X136965700Y-147327500D01*
G75*
G02*
X137203200Y-147565000I0J-237500D01*
G01*
X137203200Y-148165000D01*
G75*
G02*
X136965700Y-148402500I-237500J0D01*
G01*
G37*
%TD*%
%TO.C,C202*%
G36*
G01*
X131706600Y-153361900D02*
X132656600Y-153361900D01*
G75*
G02*
X132906600Y-153611900I0J-250000D01*
G01*
X132906600Y-154286900D01*
G75*
G02*
X132656600Y-154536900I-250000J0D01*
G01*
X131706600Y-154536900D01*
G75*
G02*
X131456600Y-154286900I0J250000D01*
G01*
X131456600Y-153611900D01*
G75*
G02*
X131706600Y-153361900I250000J0D01*
G01*
G37*
G36*
G01*
X131706600Y-151286900D02*
X132656600Y-151286900D01*
G75*
G02*
X132906600Y-151536900I0J-250000D01*
G01*
X132906600Y-152211900D01*
G75*
G02*
X132656600Y-152461900I-250000J0D01*
G01*
X131706600Y-152461900D01*
G75*
G02*
X131456600Y-152211900I0J250000D01*
G01*
X131456600Y-151536900D01*
G75*
G02*
X131706600Y-151286900I250000J0D01*
G01*
G37*
%TD*%
%TO.C,C201*%
G36*
G01*
X136037300Y-153319900D02*
X136987300Y-153319900D01*
G75*
G02*
X137237300Y-153569900I0J-250000D01*
G01*
X137237300Y-154244900D01*
G75*
G02*
X136987300Y-154494900I-250000J0D01*
G01*
X136037300Y-154494900D01*
G75*
G02*
X135787300Y-154244900I0J250000D01*
G01*
X135787300Y-153569900D01*
G75*
G02*
X136037300Y-153319900I250000J0D01*
G01*
G37*
G36*
G01*
X136037300Y-151244900D02*
X136987300Y-151244900D01*
G75*
G02*
X137237300Y-151494900I0J-250000D01*
G01*
X137237300Y-152169900D01*
G75*
G02*
X136987300Y-152419900I-250000J0D01*
G01*
X136037300Y-152419900D01*
G75*
G02*
X135787300Y-152169900I0J250000D01*
G01*
X135787300Y-151494900D01*
G75*
G02*
X136037300Y-151244900I250000J0D01*
G01*
G37*
%TD*%
%TO.C,C200*%
G36*
G01*
X133802100Y-153345300D02*
X134752100Y-153345300D01*
G75*
G02*
X135002100Y-153595300I0J-250000D01*
G01*
X135002100Y-154270300D01*
G75*
G02*
X134752100Y-154520300I-250000J0D01*
G01*
X133802100Y-154520300D01*
G75*
G02*
X133552100Y-154270300I0J250000D01*
G01*
X133552100Y-153595300D01*
G75*
G02*
X133802100Y-153345300I250000J0D01*
G01*
G37*
G36*
G01*
X133802100Y-151270300D02*
X134752100Y-151270300D01*
G75*
G02*
X135002100Y-151520300I0J-250000D01*
G01*
X135002100Y-152195300D01*
G75*
G02*
X134752100Y-152445300I-250000J0D01*
G01*
X133802100Y-152445300D01*
G75*
G02*
X133552100Y-152195300I0J250000D01*
G01*
X133552100Y-151520300D01*
G75*
G02*
X133802100Y-151270300I250000J0D01*
G01*
G37*
%TD*%
M02*
