%TF.GenerationSoftware,KiCad,Pcbnew,(5.1.10)-1*%
%TF.CreationDate,2021-11-18T09:17:22-06:00*%
%TF.ProjectId,batteryless_gaming_device,62617474-6572-4796-9c65-73735f67616d,rev?*%
%TF.SameCoordinates,Original*%
%TF.FileFunction,Profile,NP*%
%FSLAX46Y46*%
G04 Gerber Fmt 4.6, Leading zero omitted, Abs format (unit mm)*
G04 Created by KiCad (PCBNEW (5.1.10)-1) date 2021-11-18 09:17:22*
%MOMM*%
%LPD*%
G01*
G04 APERTURE LIST*
%TA.AperFunction,Profile*%
%ADD10C,0.050000*%
%TD*%
%TA.AperFunction,Profile*%
%ADD11C,0.120000*%
%TD*%
G04 APERTURE END LIST*
D10*
X84200964Y-157224489D02*
G75*
G02*
X78740000Y-151892000I-126964J5332489D01*
G01*
X146304036Y-157224489D02*
X84201000Y-157226000D01*
X146304036Y-157224489D02*
G75*
G03*
X151765000Y-151892000I126964J5332489D01*
G01*
X151765000Y-63881000D02*
X151765000Y-151892000D01*
X151765000Y-63627000D02*
X151765000Y-63881000D01*
X146431000Y-58166000D02*
X145923000Y-58166000D01*
X151765000Y-63627000D02*
G75*
G03*
X146432511Y-58166036I-5332489J126964D01*
G01*
X84074000Y-58166000D02*
X145923000Y-58166000D01*
X78740000Y-63627000D02*
X78740000Y-151892000D01*
X78741511Y-63626964D02*
G75*
G02*
X84074000Y-58166000I5332489J126964D01*
G01*
D11*
%TO.C,SW603*%
X90300000Y-128700000D02*
X90300000Y-124700000D01*
X85300000Y-129700000D02*
X89300000Y-129700000D01*
X84300000Y-124700000D02*
X84300000Y-128700000D01*
X89300000Y-123700000D02*
X85300000Y-123700000D01*
X89300000Y-123700000D02*
G75*
G02*
X90300000Y-124700000I0J-1000000D01*
G01*
X90300000Y-128700000D02*
G75*
G02*
X89300000Y-129700000I-1000000J0D01*
G01*
X85300000Y-129700000D02*
G75*
G02*
X84300000Y-128700000I0J1000000D01*
G01*
X84300000Y-124700000D02*
G75*
G02*
X85300000Y-123700000I1000000J0D01*
G01*
%TO.C,SW602*%
X102800000Y-116500000D02*
X102800000Y-112500000D01*
X97800000Y-117500000D02*
X101800000Y-117500000D01*
X96800000Y-112500000D02*
X96800000Y-116500000D01*
X101800000Y-111500000D02*
X97800000Y-111500000D01*
X101800000Y-111500000D02*
G75*
G02*
X102800000Y-112500000I0J-1000000D01*
G01*
X102800000Y-116500000D02*
G75*
G02*
X101800000Y-117500000I-1000000J0D01*
G01*
X97800000Y-117500000D02*
G75*
G02*
X96800000Y-116500000I0J1000000D01*
G01*
X96800000Y-112500000D02*
G75*
G02*
X97800000Y-111500000I1000000J0D01*
G01*
%TO.C,SW601*%
X109200000Y-125050000D02*
X109200000Y-129050000D01*
X114200000Y-124050000D02*
X110200000Y-124050000D01*
X115200000Y-129050000D02*
X115200000Y-125050000D01*
X110200000Y-130050000D02*
X114200000Y-130050000D01*
X110200000Y-130050000D02*
G75*
G02*
X109200000Y-129050000I0J1000000D01*
G01*
X109200000Y-125050000D02*
G75*
G02*
X110200000Y-124050000I1000000J0D01*
G01*
X114200000Y-124050000D02*
G75*
G02*
X115200000Y-125050000I0J-1000000D01*
G01*
X115200000Y-129050000D02*
G75*
G02*
X114200000Y-130050000I-1000000J0D01*
G01*
%TO.C,SW600*%
X101900000Y-136500000D02*
X97900000Y-136500000D01*
X102900000Y-141500000D02*
X102900000Y-137500000D01*
X97900000Y-142500000D02*
X101900000Y-142500000D01*
X96900000Y-137500000D02*
X96900000Y-141500000D01*
X96900000Y-137500000D02*
G75*
G02*
X97900000Y-136500000I1000000J0D01*
G01*
X101900000Y-136500000D02*
G75*
G02*
X102900000Y-137500000I0J-1000000D01*
G01*
X102900000Y-141500000D02*
G75*
G02*
X101900000Y-142500000I-1000000J0D01*
G01*
X97900000Y-142500000D02*
G75*
G02*
X96900000Y-141500000I0J1000000D01*
G01*
%TD*%
M02*
