M48
; DRILL file {KiCad (5.1.10)-1} date 11/18/21 09:17:26
; FORMAT={-:-/ absolute / inch / decimal}
; #@! TF.CreationDate,2021-11-18T09:17:26-06:00
; #@! TF.GenerationSoftware,Kicad,Pcbnew,(5.1.10)-1
; #@! TF.FileFunction,Plated,1,4,PTH
FMAT,2
INCH
T1C0.0118
T2C0.0157
T3C0.0315
T4C0.0394
T5C0.0472
T6C0.0591
T7C0.1181
T8C0.1260
%
G90
G05
T1
X4.31Y-4.366
X4.334Y-4.06
X4.358Y-3.976
X4.41Y-4.012
X4.414Y-4.1
X4.45Y-4.032
X4.48Y-4.49
X4.654Y-4.276
X4.654Y-4.336
X4.654Y-4.394
X4.866Y-3.8053
X4.874Y-3.974
X4.92Y-3.97
X5.397Y-5.565
X5.472Y-5.096
X5.508Y-5.5875
X5.508Y-5.625
X5.5116Y-5.4905
X5.512Y-4.396
X5.5435Y-5.587
X5.5435Y-5.6245
X5.6123Y-4.7145
X5.6123Y-4.7735
X5.632Y-4.744
X5.6517Y-4.7145
X5.6517Y-4.7735
X5.732Y-4.396
X5.83Y-4.83
T2
X3.134Y-2.62
X3.136Y-2.874
X3.136Y-3.558
X3.136Y-5.082
X3.136Y-5.34
X3.142Y-3.958
X3.142Y-5.924
X3.144Y-5.718
X3.146Y-3.21
X3.15Y-4.36
X3.15Y-4.858
X3.158Y-4.6
X3.176Y-4.128
X3.18Y-3.78
X3.194Y-5.238
X3.254Y-3.3
X3.32Y-3.68
X3.352Y-3.428
X3.38Y-3.92
X3.428Y-3.89
X3.44Y-3.598
X3.454Y-2.752
X3.484Y-2.334
X3.492Y-3.942
X3.508Y-6.158
X3.52Y-3.602
X3.524Y-5.74
X3.53Y-3.108
X3.55Y-5.246
X3.64Y-4.74
X3.644Y-4.074
X3.782Y-6.162
X3.788Y-5.194
X3.852Y-5.828
X3.896Y-2.724
X3.926Y-4.98
X3.932Y-4.302
X3.936Y-2.334
X3.962Y-3.244
X4.02Y-5.94
X4.062Y-4.69
X4.072Y-3.504
X4.082Y-5.828
X4.112Y-6.162
X4.116Y-5.146
X4.136Y-4.754
X4.156Y-5.276
X4.16Y-2.912
X4.162Y-4.12
X4.164Y-3.906
X4.17Y-5.448
X4.176Y-2.324
X4.178Y-4.234
X4.18Y-4.548
X4.182Y-4.844
X4.22Y-4.484
X4.234Y-3.832
X4.27Y-4.55
X4.316Y-6.136
X4.338Y-4.598
X4.34Y-4.508
X4.342Y-2.612
X4.35Y-4.176
X4.366Y-2.318
X4.37Y-3.244
X4.434Y-3.612
X4.456Y-4.68
X4.5Y-4.16
X4.522Y-3.908
X4.522Y-4.772
X4.526Y-3.566
X4.554Y-5.868
X4.562Y-3.988
X4.568Y-6.15
X4.572Y-3.568
X4.598Y-3.73
X4.616Y-4.562
X4.688Y-4.174
X4.696Y-3.88
X4.696Y-3.96
X4.698Y-3.168
X4.7Y-5.044
X4.714Y-5.366
X4.72Y-5.96
X4.754Y-2.884
X4.754Y-4.636
X4.77Y-3.452
X4.772Y-5.74
X4.782Y-4.124
X4.788Y-3.846
X4.794Y-2.324
X4.81Y-4.396
X4.832Y-4.232
X4.842Y-4.572
X4.896Y-2.558
X4.9Y-5.96
X4.9Y-6.164
X4.908Y-6.006
X4.91Y-4.274
X4.916Y-4.138
X4.92Y-4.19
X4.926Y-4.39
X4.936Y-5.782
X4.94Y-6.04
X4.954Y-4.116
X4.99Y-3.6
X5.01Y-2.324
X5.022Y-4.858
X5.032Y-3.984
X5.036Y-6.122
X5.038Y-3.91
X5.04Y-4.57
X5.084Y-5.612
X5.106Y-3.006
X5.118Y-4.436
X5.136Y-4.382
X5.146Y-3.53
X5.188Y-4.064
X5.188Y-4.362
X5.196Y-4.58
X5.2Y-6.126
X5.214Y-4.82
X5.23Y-2.324
X5.248Y-4.552
X5.288Y-6.126
X5.316Y-4.996
X5.33Y-2.786
X5.342Y-5.282
X5.37Y-3.046
X5.372Y-6.122
X5.386Y-3.68
X5.404Y-4.148
X5.42Y-5.172
X5.458Y-6.164
X5.49Y-4.038
X5.508Y-3.646
X5.512Y-3.7
X5.536Y-2.322
X5.548Y-3.4
X5.552Y-3.548
X5.568Y-5.246
X5.592Y-4.086
X5.596Y-3.29
X5.6Y-2.684
X5.6335Y-5.595
X5.638Y-3.362
X5.644Y-6.164
X5.658Y-2.916
X5.668Y-5.4915
X5.68Y-2.328
X5.694Y-3.21
X5.708Y-3.65
X5.708Y-3.99
X5.724Y-4.356
X5.748Y-4.144
X5.758Y-5.028
X5.794Y-5.204
X5.796Y-3.592
X5.918Y-3.694
X5.934Y-4.424
X5.936Y-4.248
X5.938Y-5.05
X5.938Y-5.588
X5.938Y-5.952
X5.94Y-4.582
X5.94Y-4.846
X5.942Y-2.528
X5.942Y-2.666
X5.942Y-5.754
X5.944Y-5.306
T3
X3.28Y-2.8613
X3.28Y-2.94
X3.28Y-3.0187
T4
X3.2795Y-4.8996
X3.2795Y-5.0768
X3.5945Y-4.8996
X3.5945Y-5.0768
X3.7717Y-4.4193
X3.7717Y-4.5965
X3.8445Y-5.3346
X3.8445Y-5.6496
X4.0217Y-5.3346
X4.0217Y-5.6496
X4.0866Y-4.4193
X4.0866Y-4.5965
X4.2598Y-4.9134
X4.2598Y-5.0906
X4.506Y-2.34
X4.5748Y-4.9134
X4.5748Y-5.0906
X4.606Y-2.34
X4.738Y-3.742
X4.838Y-3.742
X4.93Y-3.292
X4.938Y-3.742
X5.03Y-3.292
X5.038Y-3.742
X5.13Y-3.292
X5.138Y-3.742
X5.23Y-3.292
X5.238Y-3.742
X5.344Y-4.318
X5.344Y-4.418
X5.344Y-4.518
X5.922Y-2.888
X5.922Y-2.988
X5.922Y-3.088
X5.922Y-3.188
X5.922Y-3.288
X5.922Y-3.388
X5.922Y-3.488
X5.922Y-3.588
T5
X5.032Y-5.0911
X5.032Y-5.288
T6
X3.2559Y-5.4921
X3.3228Y-4.498
X3.437Y-4.311
X3.4429Y-5.378
X3.4429Y-5.6063
X3.5512Y-4.498
X3.815Y-4.0177
X3.9291Y-3.8307
X4.0433Y-4.0177
X4.3031Y-5.4921
X4.4173Y-5.6791
X4.5315Y-5.4921
T7
X3.685Y-2.4094
X3.685Y-3.5118
X5.378Y-2.4094
X5.378Y-3.5118
T8
X3.3Y-2.5
X3.3Y-6.0236
X4.792Y-4.806
X5.775Y-2.5
X5.775Y-6.0236
T0
M30
