%TF.GenerationSoftware,KiCad,Pcbnew,(5.1.10)-1*%
%TF.CreationDate,2021-11-18T09:17:22-06:00*%
%TF.ProjectId,batteryless_gaming_device,62617474-6572-4796-9c65-73735f67616d,rev?*%
%TF.SameCoordinates,Original*%
%TF.FileFunction,Legend,Bot*%
%TF.FilePolarity,Positive*%
%FSLAX46Y46*%
G04 Gerber Fmt 4.6, Leading zero omitted, Abs format (unit mm)*
G04 Created by KiCad (PCBNEW (5.1.10)-1) date 2021-11-18 09:17:22*
%MOMM*%
%LPD*%
G01*
G04 APERTURE LIST*
%ADD10C,0.150000*%
G04 APERTURE END LIST*
D10*
X125224038Y-71652761D02*
X125081180Y-71700380D01*
X124843085Y-71700380D01*
X124747847Y-71652761D01*
X124700228Y-71605142D01*
X124652609Y-71509904D01*
X124652609Y-71414666D01*
X124700228Y-71319428D01*
X124747847Y-71271809D01*
X124843085Y-71224190D01*
X125033561Y-71176571D01*
X125128800Y-71128952D01*
X125176419Y-71081333D01*
X125224038Y-70986095D01*
X125224038Y-70890857D01*
X125176419Y-70795619D01*
X125128800Y-70748000D01*
X125033561Y-70700380D01*
X124795466Y-70700380D01*
X124652609Y-70748000D01*
X123843085Y-71652761D02*
X123938323Y-71700380D01*
X124128800Y-71700380D01*
X124224038Y-71652761D01*
X124271657Y-71557523D01*
X124271657Y-71176571D01*
X124224038Y-71081333D01*
X124128800Y-71033714D01*
X123938323Y-71033714D01*
X123843085Y-71081333D01*
X123795466Y-71176571D01*
X123795466Y-71271809D01*
X124271657Y-71367047D01*
X123366895Y-71033714D02*
X123366895Y-71700380D01*
X123366895Y-71128952D02*
X123319276Y-71081333D01*
X123224038Y-71033714D01*
X123081180Y-71033714D01*
X122985942Y-71081333D01*
X122938323Y-71176571D01*
X122938323Y-71700380D01*
X122462133Y-71700380D02*
X122462133Y-71033714D01*
X122462133Y-70700380D02*
X122509752Y-70748000D01*
X122462133Y-70795619D01*
X122414514Y-70748000D01*
X122462133Y-70700380D01*
X122462133Y-70795619D01*
X121843085Y-71700380D02*
X121938323Y-71652761D01*
X121985942Y-71605142D01*
X122033561Y-71509904D01*
X122033561Y-71224190D01*
X121985942Y-71128952D01*
X121938323Y-71081333D01*
X121843085Y-71033714D01*
X121700228Y-71033714D01*
X121604990Y-71081333D01*
X121557371Y-71128952D01*
X121509752Y-71224190D01*
X121509752Y-71509904D01*
X121557371Y-71605142D01*
X121604990Y-71652761D01*
X121700228Y-71700380D01*
X121843085Y-71700380D01*
X121081180Y-71700380D02*
X121081180Y-71033714D01*
X121081180Y-71224190D02*
X121033561Y-71128952D01*
X120985942Y-71081333D01*
X120890704Y-71033714D01*
X120795466Y-71033714D01*
X119700228Y-71700380D02*
X119700228Y-70700380D01*
X119462133Y-70700380D01*
X119319276Y-70748000D01*
X119224038Y-70843238D01*
X119176419Y-70938476D01*
X119128800Y-71128952D01*
X119128800Y-71271809D01*
X119176419Y-71462285D01*
X119224038Y-71557523D01*
X119319276Y-71652761D01*
X119462133Y-71700380D01*
X119700228Y-71700380D01*
X118319276Y-71652761D02*
X118414514Y-71700380D01*
X118604990Y-71700380D01*
X118700228Y-71652761D01*
X118747847Y-71557523D01*
X118747847Y-71176571D01*
X118700228Y-71081333D01*
X118604990Y-71033714D01*
X118414514Y-71033714D01*
X118319276Y-71081333D01*
X118271657Y-71176571D01*
X118271657Y-71271809D01*
X118747847Y-71367047D01*
X117890704Y-71652761D02*
X117795466Y-71700380D01*
X117604990Y-71700380D01*
X117509752Y-71652761D01*
X117462133Y-71557523D01*
X117462133Y-71509904D01*
X117509752Y-71414666D01*
X117604990Y-71367047D01*
X117747847Y-71367047D01*
X117843085Y-71319428D01*
X117890704Y-71224190D01*
X117890704Y-71176571D01*
X117843085Y-71081333D01*
X117747847Y-71033714D01*
X117604990Y-71033714D01*
X117509752Y-71081333D01*
X117033561Y-71700380D02*
X117033561Y-71033714D01*
X117033561Y-70700380D02*
X117081180Y-70748000D01*
X117033561Y-70795619D01*
X116985942Y-70748000D01*
X117033561Y-70700380D01*
X117033561Y-70795619D01*
X116128800Y-71033714D02*
X116128800Y-71843238D01*
X116176419Y-71938476D01*
X116224038Y-71986095D01*
X116319276Y-72033714D01*
X116462133Y-72033714D01*
X116557371Y-71986095D01*
X116128800Y-71652761D02*
X116224038Y-71700380D01*
X116414514Y-71700380D01*
X116509752Y-71652761D01*
X116557371Y-71605142D01*
X116604990Y-71509904D01*
X116604990Y-71224190D01*
X116557371Y-71128952D01*
X116509752Y-71081333D01*
X116414514Y-71033714D01*
X116224038Y-71033714D01*
X116128800Y-71081333D01*
X115652609Y-71033714D02*
X115652609Y-71700380D01*
X115652609Y-71128952D02*
X115604990Y-71081333D01*
X115509752Y-71033714D01*
X115366895Y-71033714D01*
X115271657Y-71081333D01*
X115224038Y-71176571D01*
X115224038Y-71700380D01*
X113652609Y-71176571D02*
X113985942Y-71176571D01*
X113985942Y-71700380D02*
X113985942Y-70700380D01*
X113509752Y-70700380D01*
X112700228Y-71700380D02*
X112700228Y-71176571D01*
X112747847Y-71081333D01*
X112843085Y-71033714D01*
X113033561Y-71033714D01*
X113128800Y-71081333D01*
X112700228Y-71652761D02*
X112795466Y-71700380D01*
X113033561Y-71700380D01*
X113128800Y-71652761D01*
X113176419Y-71557523D01*
X113176419Y-71462285D01*
X113128800Y-71367047D01*
X113033561Y-71319428D01*
X112795466Y-71319428D01*
X112700228Y-71271809D01*
X112081180Y-71700380D02*
X112176419Y-71652761D01*
X112224038Y-71557523D01*
X112224038Y-70700380D01*
X111557371Y-71700380D02*
X111652609Y-71652761D01*
X111700228Y-71557523D01*
X111700228Y-70700380D01*
X110462133Y-70795619D02*
X110414514Y-70748000D01*
X110319276Y-70700380D01*
X110081180Y-70700380D01*
X109985942Y-70748000D01*
X109938323Y-70795619D01*
X109890704Y-70890857D01*
X109890704Y-70986095D01*
X109938323Y-71128952D01*
X110509752Y-71700380D01*
X109890704Y-71700380D01*
X109271657Y-70700380D02*
X109176419Y-70700380D01*
X109081180Y-70748000D01*
X109033561Y-70795619D01*
X108985942Y-70890857D01*
X108938323Y-71081333D01*
X108938323Y-71319428D01*
X108985942Y-71509904D01*
X109033561Y-71605142D01*
X109081180Y-71652761D01*
X109176419Y-71700380D01*
X109271657Y-71700380D01*
X109366895Y-71652761D01*
X109414514Y-71605142D01*
X109462133Y-71509904D01*
X109509752Y-71319428D01*
X109509752Y-71081333D01*
X109462133Y-70890857D01*
X109414514Y-70795619D01*
X109366895Y-70748000D01*
X109271657Y-70700380D01*
X108557371Y-70795619D02*
X108509752Y-70748000D01*
X108414514Y-70700380D01*
X108176419Y-70700380D01*
X108081180Y-70748000D01*
X108033561Y-70795619D01*
X107985942Y-70890857D01*
X107985942Y-70986095D01*
X108033561Y-71128952D01*
X108604990Y-71700380D01*
X107985942Y-71700380D01*
X107033561Y-71700380D02*
X107604990Y-71700380D01*
X107319276Y-71700380D02*
X107319276Y-70700380D01*
X107414514Y-70843238D01*
X107509752Y-70938476D01*
X107604990Y-70986095D01*
X117104990Y-73350380D02*
X117438323Y-72874190D01*
X117676419Y-73350380D02*
X117676419Y-72350380D01*
X117295466Y-72350380D01*
X117200228Y-72398000D01*
X117152609Y-72445619D01*
X117104990Y-72540857D01*
X117104990Y-72683714D01*
X117152609Y-72778952D01*
X117200228Y-72826571D01*
X117295466Y-72874190D01*
X117676419Y-72874190D01*
X116295466Y-73302761D02*
X116390704Y-73350380D01*
X116581180Y-73350380D01*
X116676419Y-73302761D01*
X116724038Y-73207523D01*
X116724038Y-72826571D01*
X116676419Y-72731333D01*
X116581180Y-72683714D01*
X116390704Y-72683714D01*
X116295466Y-72731333D01*
X116247847Y-72826571D01*
X116247847Y-72921809D01*
X116724038Y-73017047D01*
X115914514Y-72683714D02*
X115676419Y-73350380D01*
X115438323Y-72683714D01*
X114533561Y-73350380D02*
X115104990Y-73350380D01*
X114819276Y-73350380D02*
X114819276Y-72350380D01*
X114914514Y-72493238D01*
X115009752Y-72588476D01*
X115104990Y-72636095D01*
X123938323Y-75000380D02*
X123938323Y-74000380D01*
X123700228Y-74000380D01*
X123557371Y-74048000D01*
X123462133Y-74143238D01*
X123414514Y-74238476D01*
X123366895Y-74428952D01*
X123366895Y-74571809D01*
X123414514Y-74762285D01*
X123462133Y-74857523D01*
X123557371Y-74952761D01*
X123700228Y-75000380D01*
X123938323Y-75000380D01*
X122557371Y-74952761D02*
X122652609Y-75000380D01*
X122843085Y-75000380D01*
X122938323Y-74952761D01*
X122985942Y-74857523D01*
X122985942Y-74476571D01*
X122938323Y-74381333D01*
X122843085Y-74333714D01*
X122652609Y-74333714D01*
X122557371Y-74381333D01*
X122509752Y-74476571D01*
X122509752Y-74571809D01*
X122985942Y-74667047D01*
X122128800Y-74952761D02*
X122033561Y-75000380D01*
X121843085Y-75000380D01*
X121747847Y-74952761D01*
X121700228Y-74857523D01*
X121700228Y-74809904D01*
X121747847Y-74714666D01*
X121843085Y-74667047D01*
X121985942Y-74667047D01*
X122081180Y-74619428D01*
X122128800Y-74524190D01*
X122128800Y-74476571D01*
X122081180Y-74381333D01*
X121985942Y-74333714D01*
X121843085Y-74333714D01*
X121747847Y-74381333D01*
X121271657Y-75000380D02*
X121271657Y-74333714D01*
X121271657Y-74000380D02*
X121319276Y-74048000D01*
X121271657Y-74095619D01*
X121224038Y-74048000D01*
X121271657Y-74000380D01*
X121271657Y-74095619D01*
X120366895Y-74333714D02*
X120366895Y-75143238D01*
X120414514Y-75238476D01*
X120462133Y-75286095D01*
X120557371Y-75333714D01*
X120700228Y-75333714D01*
X120795466Y-75286095D01*
X120366895Y-74952761D02*
X120462133Y-75000380D01*
X120652609Y-75000380D01*
X120747847Y-74952761D01*
X120795466Y-74905142D01*
X120843085Y-74809904D01*
X120843085Y-74524190D01*
X120795466Y-74428952D01*
X120747847Y-74381333D01*
X120652609Y-74333714D01*
X120462133Y-74333714D01*
X120366895Y-74381333D01*
X119890704Y-74333714D02*
X119890704Y-75000380D01*
X119890704Y-74428952D02*
X119843085Y-74381333D01*
X119747847Y-74333714D01*
X119604990Y-74333714D01*
X119509752Y-74381333D01*
X119462133Y-74476571D01*
X119462133Y-75000380D01*
X118604990Y-74952761D02*
X118700228Y-75000380D01*
X118890704Y-75000380D01*
X118985942Y-74952761D01*
X119033561Y-74857523D01*
X119033561Y-74476571D01*
X118985942Y-74381333D01*
X118890704Y-74333714D01*
X118700228Y-74333714D01*
X118604990Y-74381333D01*
X118557371Y-74476571D01*
X118557371Y-74571809D01*
X119033561Y-74667047D01*
X118128800Y-75000380D02*
X118128800Y-74333714D01*
X118128800Y-74524190D02*
X118081180Y-74428952D01*
X118033561Y-74381333D01*
X117938323Y-74333714D01*
X117843085Y-74333714D01*
X117509752Y-74905142D02*
X117462133Y-74952761D01*
X117509752Y-75000380D01*
X117557371Y-74952761D01*
X117509752Y-74905142D01*
X117509752Y-75000380D01*
X117509752Y-74381333D02*
X117462133Y-74428952D01*
X117509752Y-74476571D01*
X117557371Y-74428952D01*
X117509752Y-74381333D01*
X117509752Y-74476571D01*
X115985942Y-74000380D02*
X115985942Y-74714666D01*
X116033561Y-74857523D01*
X116128800Y-74952761D01*
X116271657Y-75000380D01*
X116366895Y-75000380D01*
X115366895Y-75000380D02*
X115462133Y-74952761D01*
X115509752Y-74905142D01*
X115557371Y-74809904D01*
X115557371Y-74524190D01*
X115509752Y-74428952D01*
X115462133Y-74381333D01*
X115366895Y-74333714D01*
X115224038Y-74333714D01*
X115128800Y-74381333D01*
X115081180Y-74428952D01*
X115033561Y-74524190D01*
X115033561Y-74809904D01*
X115081180Y-74905142D01*
X115128800Y-74952761D01*
X115224038Y-75000380D01*
X115366895Y-75000380D01*
X114604990Y-75000380D02*
X114604990Y-74000380D01*
X114176419Y-75000380D02*
X114176419Y-74476571D01*
X114224038Y-74381333D01*
X114319276Y-74333714D01*
X114462133Y-74333714D01*
X114557371Y-74381333D01*
X114604990Y-74428952D01*
X113700228Y-74333714D02*
X113700228Y-75000380D01*
X113700228Y-74428952D02*
X113652609Y-74381333D01*
X113557371Y-74333714D01*
X113414514Y-74333714D01*
X113319276Y-74381333D01*
X113271657Y-74476571D01*
X113271657Y-75000380D01*
X111700228Y-74476571D02*
X111557371Y-74524190D01*
X111509752Y-74571809D01*
X111462133Y-74667047D01*
X111462133Y-74809904D01*
X111509752Y-74905142D01*
X111557371Y-74952761D01*
X111652609Y-75000380D01*
X112033561Y-75000380D01*
X112033561Y-74000380D01*
X111700228Y-74000380D01*
X111604990Y-74048000D01*
X111557371Y-74095619D01*
X111509752Y-74190857D01*
X111509752Y-74286095D01*
X111557371Y-74381333D01*
X111604990Y-74428952D01*
X111700228Y-74476571D01*
X112033561Y-74476571D01*
X111033561Y-75000380D02*
X111033561Y-74333714D01*
X111033561Y-74524190D02*
X110985942Y-74428952D01*
X110938323Y-74381333D01*
X110843085Y-74333714D01*
X110747847Y-74333714D01*
X110271657Y-75000380D02*
X110366895Y-74952761D01*
X110414514Y-74905142D01*
X110462133Y-74809904D01*
X110462133Y-74524190D01*
X110414514Y-74428952D01*
X110366895Y-74381333D01*
X110271657Y-74333714D01*
X110128800Y-74333714D01*
X110033561Y-74381333D01*
X109985942Y-74428952D01*
X109938323Y-74524190D01*
X109938323Y-74809904D01*
X109985942Y-74905142D01*
X110033561Y-74952761D01*
X110128800Y-75000380D01*
X110271657Y-75000380D01*
X109557371Y-74952761D02*
X109462133Y-75000380D01*
X109271657Y-75000380D01*
X109176419Y-74952761D01*
X109128800Y-74857523D01*
X109128800Y-74809904D01*
X109176419Y-74714666D01*
X109271657Y-74667047D01*
X109414514Y-74667047D01*
X109509752Y-74619428D01*
X109557371Y-74524190D01*
X109557371Y-74476571D01*
X109509752Y-74381333D01*
X109414514Y-74333714D01*
X109271657Y-74333714D01*
X109176419Y-74381333D01*
X108319276Y-74952761D02*
X108414514Y-75000380D01*
X108604990Y-75000380D01*
X108700228Y-74952761D01*
X108747847Y-74857523D01*
X108747847Y-74476571D01*
X108700228Y-74381333D01*
X108604990Y-74333714D01*
X108414514Y-74333714D01*
X108319276Y-74381333D01*
X108271657Y-74476571D01*
X108271657Y-74571809D01*
X108747847Y-74667047D01*
M02*
