%TF.GenerationSoftware,KiCad,Pcbnew,(5.1.10)-1*%
%TF.CreationDate,2021-11-18T09:17:22-06:00*%
%TF.ProjectId,batteryless_gaming_device,62617474-6572-4796-9c65-73735f67616d,rev?*%
%TF.SameCoordinates,Original*%
%TF.FileFunction,Soldermask,Bot*%
%TF.FilePolarity,Negative*%
%FSLAX46Y46*%
G04 Gerber Fmt 4.6, Leading zero omitted, Abs format (unit mm)*
G04 Created by KiCad (PCBNEW (5.1.10)-1) date 2021-11-18 09:17:22*
%MOMM*%
%LPD*%
G01*
G04 APERTURE LIST*
%ADD10C,2.400000*%
%ADD11C,1.500000*%
%ADD12C,5.600000*%
%ADD13O,1.350000X1.350000*%
%ADD14R,1.350000X1.350000*%
%ADD15O,1.700000X1.700000*%
%ADD16R,1.700000X1.700000*%
%ADD17C,4.500000*%
%ADD18C,0.600000*%
%ADD19R,2.400000X2.400000*%
G04 APERTURE END LIST*
D10*
%TO.C,SW603*%
X87300000Y-109500000D03*
D11*
X91300000Y-128950000D03*
X83300000Y-128950000D03*
X83300000Y-124450000D03*
X91300000Y-124450000D03*
D10*
X84400000Y-114250000D03*
X90200000Y-114250000D03*
%TD*%
%TO.C,SW602*%
X99800000Y-97300000D03*
D11*
X103800000Y-116750000D03*
X95800000Y-116750000D03*
X95800000Y-112250000D03*
X103800000Y-112250000D03*
D10*
X96900000Y-102050000D03*
X102700000Y-102050000D03*
%TD*%
%TO.C,SW601*%
X112200000Y-144250000D03*
D11*
X108200000Y-124800000D03*
X116200000Y-124800000D03*
X116200000Y-129300000D03*
X108200000Y-129300000D03*
D10*
X115100000Y-139500000D03*
X109300000Y-139500000D03*
%TD*%
%TO.C,SW600*%
X82700000Y-139500000D03*
D11*
X102150000Y-135500000D03*
X102150000Y-143500000D03*
X97650000Y-143500000D03*
X97650000Y-135500000D03*
D10*
X87450000Y-142400000D03*
X87450000Y-136600000D03*
%TD*%
D12*
%TO.C,H104*%
X121716800Y-122072400D03*
%TD*%
%TO.C,H102*%
X83820000Y-63500000D03*
%TD*%
D13*
%TO.C,M300*%
X83312000Y-72676000D03*
X83312000Y-74676000D03*
D14*
X83312000Y-76676000D03*
%TD*%
D15*
%TO.C,J400*%
X125222000Y-83616800D03*
X127762000Y-83616800D03*
X130302000Y-83616800D03*
D16*
X132842000Y-83616800D03*
%TD*%
D15*
%TO.C,U100*%
X150418800Y-91135200D03*
X150418800Y-88595200D03*
X150418800Y-86055200D03*
X150418800Y-83515200D03*
X150418800Y-80975200D03*
X150418800Y-78435200D03*
X150418800Y-75895200D03*
D16*
X150418800Y-73355200D03*
%TD*%
D17*
%TO.C,U101*%
X93600000Y-89200000D03*
X93600000Y-61200000D03*
X136600000Y-61200000D03*
X136600000Y-89200000D03*
%TD*%
D18*
%TO.C,U500*%
X142552800Y-121247600D03*
X142552800Y-119747600D03*
X143552800Y-119747600D03*
X143052800Y-120497600D03*
X143552800Y-121247600D03*
%TD*%
D15*
%TO.C,J402*%
X133045200Y-95046800D03*
X130505200Y-95046800D03*
X127965200Y-95046800D03*
X125425200Y-95046800D03*
X122885200Y-95046800D03*
D16*
X120345200Y-95046800D03*
%TD*%
D15*
%TO.C,J401*%
X116992400Y-59436000D03*
D16*
X114452400Y-59436000D03*
%TD*%
D15*
%TO.C,J100*%
X135737600Y-109677200D03*
X135737600Y-112217200D03*
D16*
X135737600Y-114757200D03*
%TD*%
D12*
%TO.C,H103*%
X83820000Y-153000000D03*
%TD*%
%TO.C,H101*%
X146685000Y-63500000D03*
%TD*%
%TO.C,H100*%
X146685000Y-153000000D03*
%TD*%
D10*
%TO.C,C206*%
X127812800Y-129315200D03*
D19*
X127812800Y-134315200D03*
%TD*%
M02*
