%TF.GenerationSoftware,KiCad,Pcbnew,(5.1.10)-1*%
%TF.CreationDate,2021-09-07T14:02:49-05:00*%
%TF.ProjectId,bq25504_breakout_module,62713235-3530-4345-9f62-7265616b6f75,rev?*%
%TF.SameCoordinates,Original*%
%TF.FileFunction,Legend,Top*%
%TF.FilePolarity,Positive*%
%FSLAX46Y46*%
G04 Gerber Fmt 4.6, Leading zero omitted, Abs format (unit mm)*
G04 Created by KiCad (PCBNEW (5.1.10)-1) date 2021-09-07 14:02:49*
%MOMM*%
%LPD*%
G01*
G04 APERTURE LIST*
%ADD10C,0.150000*%
%ADD11C,0.120000*%
G04 APERTURE END LIST*
D10*
X170600619Y-98076095D02*
X169600619Y-98409428D01*
X170600619Y-98742761D01*
X169600619Y-99076095D02*
X170600619Y-99076095D01*
X170219666Y-99076095D02*
X170267285Y-99171333D01*
X170267285Y-99361809D01*
X170219666Y-99457047D01*
X170172047Y-99504666D01*
X170076809Y-99552285D01*
X169791095Y-99552285D01*
X169695857Y-99504666D01*
X169648238Y-99457047D01*
X169600619Y-99361809D01*
X169600619Y-99171333D01*
X169648238Y-99076095D01*
X169600619Y-100409428D02*
X170124428Y-100409428D01*
X170219666Y-100361809D01*
X170267285Y-100266571D01*
X170267285Y-100076095D01*
X170219666Y-99980857D01*
X169648238Y-100409428D02*
X169600619Y-100314190D01*
X169600619Y-100076095D01*
X169648238Y-99980857D01*
X169743476Y-99933238D01*
X169838714Y-99933238D01*
X169933952Y-99980857D01*
X169981571Y-100076095D01*
X169981571Y-100314190D01*
X170029190Y-100409428D01*
X170267285Y-100742761D02*
X170267285Y-101123714D01*
X170600619Y-100885619D02*
X169743476Y-100885619D01*
X169648238Y-100933238D01*
X169600619Y-101028476D01*
X169600619Y-101123714D01*
X169505380Y-101218952D02*
X169505380Y-101980857D01*
X169600619Y-102361809D02*
X169648238Y-102266571D01*
X169695857Y-102218952D01*
X169791095Y-102171333D01*
X170076809Y-102171333D01*
X170172047Y-102218952D01*
X170219666Y-102266571D01*
X170267285Y-102361809D01*
X170267285Y-102504666D01*
X170219666Y-102599904D01*
X170172047Y-102647523D01*
X170076809Y-102695142D01*
X169791095Y-102695142D01*
X169695857Y-102647523D01*
X169648238Y-102599904D01*
X169600619Y-102504666D01*
X169600619Y-102361809D01*
X169600619Y-103123714D02*
X170600619Y-103123714D01*
X169981571Y-103218952D02*
X169600619Y-103504666D01*
X170267285Y-103504666D02*
X169886333Y-103123714D01*
X164536523Y-96178714D02*
X164536523Y-96988238D01*
X164488904Y-97083476D01*
X164441285Y-97131095D01*
X164346047Y-97178714D01*
X164203190Y-97178714D01*
X164107952Y-97131095D01*
X164536523Y-96797761D02*
X164441285Y-96845380D01*
X164250809Y-96845380D01*
X164155571Y-96797761D01*
X164107952Y-96750142D01*
X164060333Y-96654904D01*
X164060333Y-96369190D01*
X164107952Y-96273952D01*
X164155571Y-96226333D01*
X164250809Y-96178714D01*
X164441285Y-96178714D01*
X164536523Y-96226333D01*
X165012714Y-96178714D02*
X165012714Y-96845380D01*
X165012714Y-96273952D02*
X165060333Y-96226333D01*
X165155571Y-96178714D01*
X165298428Y-96178714D01*
X165393666Y-96226333D01*
X165441285Y-96321571D01*
X165441285Y-96845380D01*
X166346047Y-96845380D02*
X166346047Y-95845380D01*
X166346047Y-96797761D02*
X166250809Y-96845380D01*
X166060333Y-96845380D01*
X165965095Y-96797761D01*
X165917476Y-96750142D01*
X165869857Y-96654904D01*
X165869857Y-96369190D01*
X165917476Y-96273952D01*
X165965095Y-96226333D01*
X166060333Y-96178714D01*
X166250809Y-96178714D01*
X166346047Y-96226333D01*
X162933285Y-93178380D02*
X163266619Y-94178380D01*
X163599952Y-93178380D01*
X163885666Y-94130761D02*
X163980904Y-94178380D01*
X164171380Y-94178380D01*
X164266619Y-94130761D01*
X164314238Y-94035523D01*
X164314238Y-93987904D01*
X164266619Y-93892666D01*
X164171380Y-93845047D01*
X164028523Y-93845047D01*
X163933285Y-93797428D01*
X163885666Y-93702190D01*
X163885666Y-93654571D01*
X163933285Y-93559333D01*
X164028523Y-93511714D01*
X164171380Y-93511714D01*
X164266619Y-93559333D01*
X164599952Y-93511714D02*
X164980904Y-93511714D01*
X164742809Y-93178380D02*
X164742809Y-94035523D01*
X164790428Y-94130761D01*
X164885666Y-94178380D01*
X164980904Y-94178380D01*
X165457095Y-94178380D02*
X165361857Y-94130761D01*
X165314238Y-94083142D01*
X165266619Y-93987904D01*
X165266619Y-93702190D01*
X165314238Y-93606952D01*
X165361857Y-93559333D01*
X165457095Y-93511714D01*
X165599952Y-93511714D01*
X165695190Y-93559333D01*
X165742809Y-93606952D01*
X165790428Y-93702190D01*
X165790428Y-93987904D01*
X165742809Y-94083142D01*
X165695190Y-94130761D01*
X165599952Y-94178380D01*
X165457095Y-94178380D01*
X166219000Y-94178380D02*
X166219000Y-93511714D01*
X166219000Y-93702190D02*
X166266619Y-93606952D01*
X166314238Y-93559333D01*
X166409476Y-93511714D01*
X166504714Y-93511714D01*
X163449190Y-90765380D02*
X163782523Y-91765380D01*
X164115857Y-90765380D01*
X164449190Y-91765380D02*
X164449190Y-90765380D01*
X164449190Y-91146333D02*
X164544428Y-91098714D01*
X164734904Y-91098714D01*
X164830142Y-91146333D01*
X164877761Y-91193952D01*
X164925380Y-91289190D01*
X164925380Y-91574904D01*
X164877761Y-91670142D01*
X164830142Y-91717761D01*
X164734904Y-91765380D01*
X164544428Y-91765380D01*
X164449190Y-91717761D01*
X165782523Y-91765380D02*
X165782523Y-91241571D01*
X165734904Y-91146333D01*
X165639666Y-91098714D01*
X165449190Y-91098714D01*
X165353952Y-91146333D01*
X165782523Y-91717761D02*
X165687285Y-91765380D01*
X165449190Y-91765380D01*
X165353952Y-91717761D01*
X165306333Y-91622523D01*
X165306333Y-91527285D01*
X165353952Y-91432047D01*
X165449190Y-91384428D01*
X165687285Y-91384428D01*
X165782523Y-91336809D01*
X166115857Y-91098714D02*
X166496809Y-91098714D01*
X166258714Y-90765380D02*
X166258714Y-91622523D01*
X166306333Y-91717761D01*
X166401571Y-91765380D01*
X166496809Y-91765380D01*
D11*
%TO.C,U1*%
X159175225Y-97660000D02*
X159650225Y-97660000D01*
X159650225Y-97660000D02*
X159650225Y-98135000D01*
X156905225Y-100880000D02*
X156430225Y-100880000D01*
X156430225Y-100880000D02*
X156430225Y-100405000D01*
X159175225Y-100880000D02*
X159650225Y-100880000D01*
X159650225Y-100880000D02*
X159650225Y-100405000D01*
X156905225Y-97660000D02*
X156430225Y-97660000D01*
%TO.C,R9*%
X151766176Y-100039700D02*
X152275624Y-100039700D01*
X151766176Y-98994700D02*
X152275624Y-98994700D01*
%TO.C,R8*%
X151267900Y-102542424D02*
X151267900Y-102032976D01*
X152312900Y-102542424D02*
X152312900Y-102032976D01*
%TO.C,R7*%
X163170776Y-99070900D02*
X163680224Y-99070900D01*
X163170776Y-100115900D02*
X163680224Y-100115900D01*
%TO.C,R6*%
X163170776Y-100823500D02*
X163680224Y-100823500D01*
X163170776Y-101868500D02*
X163680224Y-101868500D01*
%TO.C,R5*%
X163170776Y-102626900D02*
X163680224Y-102626900D01*
X163170776Y-103671900D02*
X163680224Y-103671900D01*
%TO.C,R4*%
X159512724Y-107786700D02*
X159003276Y-107786700D01*
X159512724Y-106741700D02*
X159003276Y-106741700D01*
%TO.C,R3*%
X159003276Y-104887500D02*
X159512724Y-104887500D01*
X159003276Y-105932500D02*
X159512724Y-105932500D01*
%TO.C,R2*%
X156072100Y-106118576D02*
X156072100Y-106628024D01*
X155027100Y-106118576D02*
X155027100Y-106628024D01*
%TO.C,R1*%
X157609624Y-104205300D02*
X157100176Y-104205300D01*
X157609624Y-103160300D02*
X157100176Y-103160300D01*
%TO.C,L1*%
X151802000Y-90106800D02*
X156802000Y-90106800D01*
X156802000Y-90106800D02*
X156802000Y-94906800D01*
X156802000Y-94906800D02*
X151802000Y-94906800D01*
X151802000Y-94906800D02*
X151802000Y-90106800D01*
%TO.C,J2*%
X169330000Y-90050000D02*
X166670000Y-90050000D01*
X169330000Y-97730000D02*
X169330000Y-90050000D01*
X166670000Y-97730000D02*
X166670000Y-90050000D01*
X169330000Y-97730000D02*
X166670000Y-97730000D01*
X169330000Y-99000000D02*
X169330000Y-100330000D01*
X169330000Y-100330000D02*
X168000000Y-100330000D01*
%TO.C,J1*%
X146670000Y-100370000D02*
X149330000Y-100370000D01*
X146670000Y-97770000D02*
X146670000Y-100370000D01*
X149330000Y-97770000D02*
X149330000Y-100370000D01*
X146670000Y-97770000D02*
X149330000Y-97770000D01*
X146670000Y-96500000D02*
X146670000Y-95170000D01*
X146670000Y-95170000D02*
X148000000Y-95170000D01*
%TO.C,C6*%
X159316033Y-94206600D02*
X159608567Y-94206600D01*
X159316033Y-95226600D02*
X159608567Y-95226600D01*
%TO.C,C5*%
X159432448Y-91568600D02*
X159954952Y-91568600D01*
X159432448Y-93038600D02*
X159954952Y-93038600D01*
%TO.C,C4*%
X164767000Y-80264000D02*
G75*
G03*
X164767000Y-80264000I-7120000J0D01*
G01*
X157647000Y-73184000D02*
X157647000Y-87344000D01*
X157687000Y-73184000D02*
X157687000Y-87344000D01*
X157727000Y-73184000D02*
X157727000Y-87344000D01*
X157767000Y-73185000D02*
X157767000Y-87343000D01*
X157807000Y-73185000D02*
X157807000Y-87343000D01*
X157847000Y-73186000D02*
X157847000Y-87342000D01*
X157887000Y-73188000D02*
X157887000Y-87340000D01*
X157927000Y-73189000D02*
X157927000Y-87339000D01*
X157967000Y-73191000D02*
X157967000Y-87337000D01*
X158007000Y-73193000D02*
X158007000Y-87335000D01*
X158047000Y-73195000D02*
X158047000Y-87333000D01*
X158087000Y-73197000D02*
X158087000Y-87331000D01*
X158127000Y-73200000D02*
X158127000Y-87328000D01*
X158167000Y-73203000D02*
X158167000Y-87325000D01*
X158207000Y-73206000D02*
X158207000Y-87322000D01*
X158247000Y-73209000D02*
X158247000Y-87319000D01*
X158287000Y-73212000D02*
X158287000Y-87316000D01*
X158327000Y-73216000D02*
X158327000Y-87312000D01*
X158368000Y-73220000D02*
X158368000Y-87308000D01*
X158408000Y-73224000D02*
X158408000Y-87304000D01*
X158448000Y-73229000D02*
X158448000Y-87299000D01*
X158488000Y-73233000D02*
X158488000Y-87295000D01*
X158528000Y-73238000D02*
X158528000Y-87290000D01*
X158568000Y-73243000D02*
X158568000Y-87285000D01*
X158608000Y-73249000D02*
X158608000Y-87279000D01*
X158648000Y-73254000D02*
X158648000Y-87274000D01*
X158688000Y-73260000D02*
X158688000Y-87268000D01*
X158728000Y-73266000D02*
X158728000Y-78824000D01*
X158728000Y-81704000D02*
X158728000Y-87262000D01*
X158768000Y-73272000D02*
X158768000Y-78824000D01*
X158768000Y-81704000D02*
X158768000Y-87256000D01*
X158808000Y-73279000D02*
X158808000Y-78824000D01*
X158808000Y-81704000D02*
X158808000Y-87249000D01*
X158848000Y-73285000D02*
X158848000Y-78824000D01*
X158848000Y-81704000D02*
X158848000Y-87243000D01*
X158888000Y-73292000D02*
X158888000Y-78824000D01*
X158888000Y-81704000D02*
X158888000Y-87236000D01*
X158928000Y-73300000D02*
X158928000Y-78824000D01*
X158928000Y-81704000D02*
X158928000Y-87228000D01*
X158968000Y-73307000D02*
X158968000Y-78824000D01*
X158968000Y-81704000D02*
X158968000Y-87221000D01*
X159008000Y-73315000D02*
X159008000Y-78824000D01*
X159008000Y-81704000D02*
X159008000Y-87213000D01*
X159048000Y-73322000D02*
X159048000Y-78824000D01*
X159048000Y-81704000D02*
X159048000Y-87206000D01*
X159088000Y-73331000D02*
X159088000Y-78824000D01*
X159088000Y-81704000D02*
X159088000Y-87197000D01*
X159128000Y-73339000D02*
X159128000Y-78824000D01*
X159128000Y-81704000D02*
X159128000Y-87189000D01*
X159168000Y-73348000D02*
X159168000Y-78824000D01*
X159168000Y-81704000D02*
X159168000Y-87180000D01*
X159208000Y-73357000D02*
X159208000Y-78824000D01*
X159208000Y-81704000D02*
X159208000Y-87171000D01*
X159248000Y-73366000D02*
X159248000Y-78824000D01*
X159248000Y-81704000D02*
X159248000Y-87162000D01*
X159288000Y-73375000D02*
X159288000Y-78824000D01*
X159288000Y-81704000D02*
X159288000Y-87153000D01*
X159328000Y-73385000D02*
X159328000Y-78824000D01*
X159328000Y-81704000D02*
X159328000Y-87143000D01*
X159368000Y-73394000D02*
X159368000Y-78824000D01*
X159368000Y-81704000D02*
X159368000Y-87134000D01*
X159408000Y-73404000D02*
X159408000Y-78824000D01*
X159408000Y-81704000D02*
X159408000Y-87124000D01*
X159448000Y-73415000D02*
X159448000Y-78824000D01*
X159448000Y-81704000D02*
X159448000Y-87113000D01*
X159488000Y-73425000D02*
X159488000Y-78824000D01*
X159488000Y-81704000D02*
X159488000Y-87103000D01*
X159528000Y-73436000D02*
X159528000Y-78824000D01*
X159528000Y-81704000D02*
X159528000Y-87092000D01*
X159568000Y-73447000D02*
X159568000Y-78824000D01*
X159568000Y-81704000D02*
X159568000Y-87081000D01*
X159608000Y-73459000D02*
X159608000Y-78824000D01*
X159608000Y-81704000D02*
X159608000Y-87069000D01*
X159648000Y-73470000D02*
X159648000Y-78824000D01*
X159648000Y-81704000D02*
X159648000Y-87058000D01*
X159688000Y-73482000D02*
X159688000Y-78824000D01*
X159688000Y-81704000D02*
X159688000Y-87046000D01*
X159728000Y-73494000D02*
X159728000Y-78824000D01*
X159728000Y-81704000D02*
X159728000Y-87034000D01*
X159768000Y-73506000D02*
X159768000Y-78824000D01*
X159768000Y-81704000D02*
X159768000Y-87022000D01*
X159808000Y-73519000D02*
X159808000Y-78824000D01*
X159808000Y-81704000D02*
X159808000Y-87009000D01*
X159848000Y-73532000D02*
X159848000Y-78824000D01*
X159848000Y-81704000D02*
X159848000Y-86996000D01*
X159888000Y-73545000D02*
X159888000Y-78824000D01*
X159888000Y-81704000D02*
X159888000Y-86983000D01*
X159928000Y-73558000D02*
X159928000Y-78824000D01*
X159928000Y-81704000D02*
X159928000Y-86970000D01*
X159968000Y-73572000D02*
X159968000Y-78824000D01*
X159968000Y-81704000D02*
X159968000Y-86956000D01*
X160008000Y-73586000D02*
X160008000Y-78824000D01*
X160008000Y-81704000D02*
X160008000Y-86942000D01*
X160048000Y-73600000D02*
X160048000Y-78824000D01*
X160048000Y-81704000D02*
X160048000Y-86928000D01*
X160088000Y-73615000D02*
X160088000Y-78824000D01*
X160088000Y-81704000D02*
X160088000Y-86913000D01*
X160128000Y-73629000D02*
X160128000Y-78824000D01*
X160128000Y-81704000D02*
X160128000Y-86899000D01*
X160168000Y-73644000D02*
X160168000Y-78824000D01*
X160168000Y-81704000D02*
X160168000Y-86884000D01*
X160208000Y-73660000D02*
X160208000Y-78824000D01*
X160208000Y-81704000D02*
X160208000Y-86868000D01*
X160248000Y-73675000D02*
X160248000Y-78824000D01*
X160248000Y-81704000D02*
X160248000Y-86853000D01*
X160288000Y-73691000D02*
X160288000Y-78824000D01*
X160288000Y-81704000D02*
X160288000Y-86837000D01*
X160328000Y-73707000D02*
X160328000Y-78824000D01*
X160328000Y-81704000D02*
X160328000Y-86821000D01*
X160368000Y-73724000D02*
X160368000Y-78824000D01*
X160368000Y-81704000D02*
X160368000Y-86804000D01*
X160408000Y-73740000D02*
X160408000Y-78824000D01*
X160408000Y-81704000D02*
X160408000Y-86788000D01*
X160448000Y-73757000D02*
X160448000Y-78824000D01*
X160448000Y-81704000D02*
X160448000Y-86771000D01*
X160488000Y-73774000D02*
X160488000Y-78824000D01*
X160488000Y-81704000D02*
X160488000Y-86754000D01*
X160528000Y-73792000D02*
X160528000Y-78824000D01*
X160528000Y-81704000D02*
X160528000Y-86736000D01*
X160568000Y-73810000D02*
X160568000Y-78824000D01*
X160568000Y-81704000D02*
X160568000Y-86718000D01*
X160608000Y-73828000D02*
X160608000Y-78824000D01*
X160608000Y-81704000D02*
X160608000Y-86700000D01*
X160648000Y-73846000D02*
X160648000Y-78824000D01*
X160648000Y-81704000D02*
X160648000Y-86682000D01*
X160688000Y-73865000D02*
X160688000Y-78824000D01*
X160688000Y-81704000D02*
X160688000Y-86663000D01*
X160728000Y-73884000D02*
X160728000Y-78824000D01*
X160728000Y-81704000D02*
X160728000Y-86644000D01*
X160768000Y-73904000D02*
X160768000Y-78824000D01*
X160768000Y-81704000D02*
X160768000Y-86624000D01*
X160808000Y-73923000D02*
X160808000Y-78824000D01*
X160808000Y-81704000D02*
X160808000Y-86605000D01*
X160848000Y-73943000D02*
X160848000Y-78824000D01*
X160848000Y-81704000D02*
X160848000Y-86585000D01*
X160888000Y-73963000D02*
X160888000Y-78824000D01*
X160888000Y-81704000D02*
X160888000Y-86565000D01*
X160928000Y-73984000D02*
X160928000Y-78824000D01*
X160928000Y-81704000D02*
X160928000Y-86544000D01*
X160968000Y-74005000D02*
X160968000Y-78824000D01*
X160968000Y-81704000D02*
X160968000Y-86523000D01*
X161008000Y-74026000D02*
X161008000Y-78824000D01*
X161008000Y-81704000D02*
X161008000Y-86502000D01*
X161048000Y-74048000D02*
X161048000Y-78824000D01*
X161048000Y-81704000D02*
X161048000Y-86480000D01*
X161088000Y-74070000D02*
X161088000Y-78824000D01*
X161088000Y-81704000D02*
X161088000Y-86458000D01*
X161128000Y-74092000D02*
X161128000Y-78824000D01*
X161128000Y-81704000D02*
X161128000Y-86436000D01*
X161168000Y-74114000D02*
X161168000Y-78824000D01*
X161168000Y-81704000D02*
X161168000Y-86414000D01*
X161208000Y-74137000D02*
X161208000Y-78824000D01*
X161208000Y-81704000D02*
X161208000Y-86391000D01*
X161248000Y-74161000D02*
X161248000Y-78824000D01*
X161248000Y-81704000D02*
X161248000Y-86367000D01*
X161288000Y-74184000D02*
X161288000Y-78824000D01*
X161288000Y-81704000D02*
X161288000Y-86344000D01*
X161328000Y-74208000D02*
X161328000Y-78824000D01*
X161328000Y-81704000D02*
X161328000Y-86320000D01*
X161368000Y-74233000D02*
X161368000Y-78824000D01*
X161368000Y-81704000D02*
X161368000Y-86295000D01*
X161408000Y-74257000D02*
X161408000Y-78824000D01*
X161408000Y-81704000D02*
X161408000Y-86271000D01*
X161448000Y-74282000D02*
X161448000Y-78824000D01*
X161448000Y-81704000D02*
X161448000Y-86246000D01*
X161488000Y-74308000D02*
X161488000Y-78824000D01*
X161488000Y-81704000D02*
X161488000Y-86220000D01*
X161528000Y-74334000D02*
X161528000Y-78824000D01*
X161528000Y-81704000D02*
X161528000Y-86194000D01*
X161568000Y-74360000D02*
X161568000Y-78824000D01*
X161568000Y-81704000D02*
X161568000Y-86168000D01*
X161608000Y-74386000D02*
X161608000Y-86142000D01*
X161648000Y-74413000D02*
X161648000Y-86115000D01*
X161688000Y-74441000D02*
X161688000Y-86087000D01*
X161728000Y-74468000D02*
X161728000Y-86060000D01*
X161768000Y-74497000D02*
X161768000Y-86031000D01*
X161808000Y-74525000D02*
X161808000Y-86003000D01*
X161848000Y-74554000D02*
X161848000Y-85974000D01*
X161888000Y-74584000D02*
X161888000Y-85944000D01*
X161928000Y-74614000D02*
X161928000Y-85914000D01*
X161968000Y-74644000D02*
X161968000Y-85884000D01*
X162008000Y-74675000D02*
X162008000Y-85853000D01*
X162048000Y-74706000D02*
X162048000Y-85822000D01*
X162088000Y-74737000D02*
X162088000Y-85791000D01*
X162128000Y-74770000D02*
X162128000Y-85758000D01*
X162168000Y-74802000D02*
X162168000Y-85726000D01*
X162208000Y-74835000D02*
X162208000Y-85693000D01*
X162248000Y-74869000D02*
X162248000Y-85659000D01*
X162288000Y-74903000D02*
X162288000Y-85625000D01*
X162328000Y-74938000D02*
X162328000Y-85590000D01*
X162368000Y-74973000D02*
X162368000Y-85555000D01*
X162408000Y-75009000D02*
X162408000Y-85519000D01*
X162448000Y-75045000D02*
X162448000Y-85483000D01*
X162488000Y-75082000D02*
X162488000Y-85446000D01*
X162528000Y-75119000D02*
X162528000Y-85409000D01*
X162568000Y-75157000D02*
X162568000Y-85371000D01*
X162608000Y-75195000D02*
X162608000Y-85333000D01*
X162648000Y-75235000D02*
X162648000Y-85293000D01*
X162688000Y-75274000D02*
X162688000Y-85254000D01*
X162728000Y-75315000D02*
X162728000Y-85213000D01*
X162768000Y-75356000D02*
X162768000Y-85172000D01*
X162808000Y-75398000D02*
X162808000Y-85130000D01*
X162848000Y-75440000D02*
X162848000Y-85088000D01*
X162888000Y-75483000D02*
X162888000Y-85045000D01*
X162928000Y-75527000D02*
X162928000Y-85001000D01*
X162968000Y-75571000D02*
X162968000Y-84957000D01*
X163008000Y-75617000D02*
X163008000Y-84911000D01*
X163048000Y-75663000D02*
X163048000Y-84865000D01*
X163088000Y-75710000D02*
X163088000Y-84818000D01*
X163128000Y-75758000D02*
X163128000Y-84770000D01*
X163168000Y-75806000D02*
X163168000Y-84722000D01*
X163208000Y-75856000D02*
X163208000Y-84672000D01*
X163248000Y-75906000D02*
X163248000Y-84622000D01*
X163288000Y-75958000D02*
X163288000Y-84570000D01*
X163328000Y-76010000D02*
X163328000Y-84518000D01*
X163368000Y-76064000D02*
X163368000Y-84464000D01*
X163408000Y-76118000D02*
X163408000Y-84410000D01*
X163448000Y-76174000D02*
X163448000Y-84354000D01*
X163488000Y-76231000D02*
X163488000Y-84297000D01*
X163528000Y-76289000D02*
X163528000Y-84239000D01*
X163568000Y-76348000D02*
X163568000Y-84180000D01*
X163608000Y-76408000D02*
X163608000Y-84120000D01*
X163648000Y-76470000D02*
X163648000Y-84058000D01*
X163688000Y-76534000D02*
X163688000Y-83994000D01*
X163728000Y-76598000D02*
X163728000Y-83930000D01*
X163768000Y-76665000D02*
X163768000Y-83863000D01*
X163808000Y-76733000D02*
X163808000Y-83795000D01*
X163848000Y-76803000D02*
X163848000Y-83725000D01*
X163888000Y-76875000D02*
X163888000Y-83653000D01*
X163928000Y-76949000D02*
X163928000Y-83579000D01*
X163968000Y-77024000D02*
X163968000Y-83504000D01*
X164008000Y-77103000D02*
X164008000Y-83425000D01*
X164048000Y-77184000D02*
X164048000Y-83344000D01*
X164088000Y-77267000D02*
X164088000Y-83261000D01*
X164128000Y-77353000D02*
X164128000Y-83175000D01*
X164168000Y-77443000D02*
X164168000Y-83085000D01*
X164208000Y-77536000D02*
X164208000Y-82992000D01*
X164248000Y-77632000D02*
X164248000Y-82896000D01*
X164288000Y-77734000D02*
X164288000Y-82794000D01*
X164328000Y-77839000D02*
X164328000Y-82689000D01*
X164368000Y-77951000D02*
X164368000Y-82577000D01*
X164408000Y-78068000D02*
X164408000Y-82460000D01*
X164448000Y-78193000D02*
X164448000Y-82335000D01*
X164488000Y-78326000D02*
X164488000Y-82202000D01*
X164528000Y-78470000D02*
X164528000Y-82058000D01*
X164568000Y-78628000D02*
X164568000Y-81900000D01*
X164608000Y-78803000D02*
X164608000Y-81725000D01*
X164648000Y-79002000D02*
X164648000Y-81526000D01*
X164688000Y-79239000D02*
X164688000Y-81289000D01*
X164728000Y-79550000D02*
X164728000Y-80978000D01*
X150027457Y-76269000D02*
X151427457Y-76269000D01*
X150727457Y-75569000D02*
X150727457Y-76969000D01*
%TO.C,C3*%
X154383200Y-102141433D02*
X154383200Y-102433967D01*
X153363200Y-102141433D02*
X153363200Y-102433967D01*
%TO.C,C2*%
X153270833Y-95806800D02*
X153563367Y-95806800D01*
X153270833Y-96826800D02*
X153563367Y-96826800D01*
%TO.C,H4*%
D10*
X167386095Y-110383580D02*
X167386095Y-109383580D01*
X167386095Y-109859771D02*
X167957523Y-109859771D01*
X167957523Y-110383580D02*
X167957523Y-109383580D01*
X168862285Y-109716914D02*
X168862285Y-110383580D01*
X168624190Y-109335961D02*
X168386095Y-110050247D01*
X169005142Y-110050247D01*
%TO.C,H3*%
X167665495Y-73858380D02*
X167665495Y-72858380D01*
X167665495Y-73334571D02*
X168236923Y-73334571D01*
X168236923Y-73858380D02*
X168236923Y-72858380D01*
X168617876Y-72858380D02*
X169236923Y-72858380D01*
X168903590Y-73239333D01*
X169046447Y-73239333D01*
X169141685Y-73286952D01*
X169189304Y-73334571D01*
X169236923Y-73429809D01*
X169236923Y-73667904D01*
X169189304Y-73763142D01*
X169141685Y-73810761D01*
X169046447Y-73858380D01*
X168760733Y-73858380D01*
X168665495Y-73810761D01*
X168617876Y-73763142D01*
%TO.C,H2*%
X146278695Y-110307380D02*
X146278695Y-109307380D01*
X146278695Y-109783571D02*
X146850123Y-109783571D01*
X146850123Y-110307380D02*
X146850123Y-109307380D01*
X147278695Y-109402619D02*
X147326314Y-109355000D01*
X147421552Y-109307380D01*
X147659647Y-109307380D01*
X147754885Y-109355000D01*
X147802504Y-109402619D01*
X147850123Y-109497857D01*
X147850123Y-109593095D01*
X147802504Y-109735952D01*
X147231076Y-110307380D01*
X147850123Y-110307380D01*
%TO.C,H1*%
X146431095Y-73731380D02*
X146431095Y-72731380D01*
X146431095Y-73207571D02*
X147002523Y-73207571D01*
X147002523Y-73731380D02*
X147002523Y-72731380D01*
X148002523Y-73731380D02*
X147431095Y-73731380D01*
X147716809Y-73731380D02*
X147716809Y-72731380D01*
X147621571Y-72874238D01*
X147526333Y-72969476D01*
X147431095Y-73017095D01*
%TO.C,U1*%
X155371895Y-96378780D02*
X155371895Y-97188304D01*
X155419514Y-97283542D01*
X155467133Y-97331161D01*
X155562371Y-97378780D01*
X155752847Y-97378780D01*
X155848085Y-97331161D01*
X155895704Y-97283542D01*
X155943323Y-97188304D01*
X155943323Y-96378780D01*
X156943323Y-97378780D02*
X156371895Y-97378780D01*
X156657609Y-97378780D02*
X156657609Y-96378780D01*
X156562371Y-96521638D01*
X156467133Y-96616876D01*
X156371895Y-96664495D01*
%TO.C,R9*%
X151344333Y-98648780D02*
X151011000Y-98172590D01*
X150772904Y-98648780D02*
X150772904Y-97648780D01*
X151153857Y-97648780D01*
X151249095Y-97696400D01*
X151296714Y-97744019D01*
X151344333Y-97839257D01*
X151344333Y-97982114D01*
X151296714Y-98077352D01*
X151249095Y-98124971D01*
X151153857Y-98172590D01*
X150772904Y-98172590D01*
X151820523Y-98648780D02*
X152011000Y-98648780D01*
X152106238Y-98601161D01*
X152153857Y-98553542D01*
X152249095Y-98410685D01*
X152296714Y-98220209D01*
X152296714Y-97839257D01*
X152249095Y-97744019D01*
X152201476Y-97696400D01*
X152106238Y-97648780D01*
X151915761Y-97648780D01*
X151820523Y-97696400D01*
X151772904Y-97744019D01*
X151725285Y-97839257D01*
X151725285Y-98077352D01*
X151772904Y-98172590D01*
X151820523Y-98220209D01*
X151915761Y-98267828D01*
X152106238Y-98267828D01*
X152201476Y-98220209D01*
X152249095Y-98172590D01*
X152296714Y-98077352D01*
%TO.C,R8*%
X150812780Y-102454366D02*
X150336590Y-102787700D01*
X150812780Y-103025795D02*
X149812780Y-103025795D01*
X149812780Y-102644842D01*
X149860400Y-102549604D01*
X149908019Y-102501985D01*
X150003257Y-102454366D01*
X150146114Y-102454366D01*
X150241352Y-102501985D01*
X150288971Y-102549604D01*
X150336590Y-102644842D01*
X150336590Y-103025795D01*
X150241352Y-101882938D02*
X150193733Y-101978176D01*
X150146114Y-102025795D01*
X150050876Y-102073414D01*
X150003257Y-102073414D01*
X149908019Y-102025795D01*
X149860400Y-101978176D01*
X149812780Y-101882938D01*
X149812780Y-101692461D01*
X149860400Y-101597223D01*
X149908019Y-101549604D01*
X150003257Y-101501985D01*
X150050876Y-101501985D01*
X150146114Y-101549604D01*
X150193733Y-101597223D01*
X150241352Y-101692461D01*
X150241352Y-101882938D01*
X150288971Y-101978176D01*
X150336590Y-102025795D01*
X150431828Y-102073414D01*
X150622304Y-102073414D01*
X150717542Y-102025795D01*
X150765161Y-101978176D01*
X150812780Y-101882938D01*
X150812780Y-101692461D01*
X150765161Y-101597223D01*
X150717542Y-101549604D01*
X150622304Y-101501985D01*
X150431828Y-101501985D01*
X150336590Y-101549604D01*
X150288971Y-101597223D01*
X150241352Y-101692461D01*
%TO.C,R7*%
X165822333Y-100071180D02*
X165489000Y-99594990D01*
X165250904Y-100071180D02*
X165250904Y-99071180D01*
X165631857Y-99071180D01*
X165727095Y-99118800D01*
X165774714Y-99166419D01*
X165822333Y-99261657D01*
X165822333Y-99404514D01*
X165774714Y-99499752D01*
X165727095Y-99547371D01*
X165631857Y-99594990D01*
X165250904Y-99594990D01*
X166155666Y-99071180D02*
X166822333Y-99071180D01*
X166393761Y-100071180D01*
%TO.C,R6*%
X165974733Y-101874580D02*
X165641400Y-101398390D01*
X165403304Y-101874580D02*
X165403304Y-100874580D01*
X165784257Y-100874580D01*
X165879495Y-100922200D01*
X165927114Y-100969819D01*
X165974733Y-101065057D01*
X165974733Y-101207914D01*
X165927114Y-101303152D01*
X165879495Y-101350771D01*
X165784257Y-101398390D01*
X165403304Y-101398390D01*
X166831876Y-100874580D02*
X166641400Y-100874580D01*
X166546161Y-100922200D01*
X166498542Y-100969819D01*
X166403304Y-101112676D01*
X166355685Y-101303152D01*
X166355685Y-101684104D01*
X166403304Y-101779342D01*
X166450923Y-101826961D01*
X166546161Y-101874580D01*
X166736638Y-101874580D01*
X166831876Y-101826961D01*
X166879495Y-101779342D01*
X166927114Y-101684104D01*
X166927114Y-101446009D01*
X166879495Y-101350771D01*
X166831876Y-101303152D01*
X166736638Y-101255533D01*
X166546161Y-101255533D01*
X166450923Y-101303152D01*
X166403304Y-101350771D01*
X166355685Y-101446009D01*
%TO.C,R5*%
X166101733Y-103677980D02*
X165768400Y-103201790D01*
X165530304Y-103677980D02*
X165530304Y-102677980D01*
X165911257Y-102677980D01*
X166006495Y-102725600D01*
X166054114Y-102773219D01*
X166101733Y-102868457D01*
X166101733Y-103011314D01*
X166054114Y-103106552D01*
X166006495Y-103154171D01*
X165911257Y-103201790D01*
X165530304Y-103201790D01*
X167006495Y-102677980D02*
X166530304Y-102677980D01*
X166482685Y-103154171D01*
X166530304Y-103106552D01*
X166625542Y-103058933D01*
X166863638Y-103058933D01*
X166958876Y-103106552D01*
X167006495Y-103154171D01*
X167054114Y-103249409D01*
X167054114Y-103487504D01*
X167006495Y-103582742D01*
X166958876Y-103630361D01*
X166863638Y-103677980D01*
X166625542Y-103677980D01*
X166530304Y-103630361D01*
X166482685Y-103582742D01*
%TO.C,R4*%
X161885333Y-107767380D02*
X161552000Y-107291190D01*
X161313904Y-107767380D02*
X161313904Y-106767380D01*
X161694857Y-106767380D01*
X161790095Y-106815000D01*
X161837714Y-106862619D01*
X161885333Y-106957857D01*
X161885333Y-107100714D01*
X161837714Y-107195952D01*
X161790095Y-107243571D01*
X161694857Y-107291190D01*
X161313904Y-107291190D01*
X162742476Y-107100714D02*
X162742476Y-107767380D01*
X162504380Y-106719761D02*
X162266285Y-107434047D01*
X162885333Y-107434047D01*
%TO.C,R3*%
X159700933Y-104160580D02*
X159367600Y-103684390D01*
X159129504Y-104160580D02*
X159129504Y-103160580D01*
X159510457Y-103160580D01*
X159605695Y-103208200D01*
X159653314Y-103255819D01*
X159700933Y-103351057D01*
X159700933Y-103493914D01*
X159653314Y-103589152D01*
X159605695Y-103636771D01*
X159510457Y-103684390D01*
X159129504Y-103684390D01*
X160034266Y-103160580D02*
X160653314Y-103160580D01*
X160319980Y-103541533D01*
X160462838Y-103541533D01*
X160558076Y-103589152D01*
X160605695Y-103636771D01*
X160653314Y-103732009D01*
X160653314Y-103970104D01*
X160605695Y-104065342D01*
X160558076Y-104112961D01*
X160462838Y-104160580D01*
X160177123Y-104160580D01*
X160081885Y-104112961D01*
X160034266Y-104065342D01*
%TO.C,R2*%
X154503380Y-107303866D02*
X154027190Y-107637200D01*
X154503380Y-107875295D02*
X153503380Y-107875295D01*
X153503380Y-107494342D01*
X153551000Y-107399104D01*
X153598619Y-107351485D01*
X153693857Y-107303866D01*
X153836714Y-107303866D01*
X153931952Y-107351485D01*
X153979571Y-107399104D01*
X154027190Y-107494342D01*
X154027190Y-107875295D01*
X153598619Y-106922914D02*
X153551000Y-106875295D01*
X153503380Y-106780057D01*
X153503380Y-106541961D01*
X153551000Y-106446723D01*
X153598619Y-106399104D01*
X153693857Y-106351485D01*
X153789095Y-106351485D01*
X153931952Y-106399104D01*
X154503380Y-106970533D01*
X154503380Y-106351485D01*
%TO.C,R1*%
X161732933Y-105938580D02*
X161399600Y-105462390D01*
X161161504Y-105938580D02*
X161161504Y-104938580D01*
X161542457Y-104938580D01*
X161637695Y-104986200D01*
X161685314Y-105033819D01*
X161732933Y-105129057D01*
X161732933Y-105271914D01*
X161685314Y-105367152D01*
X161637695Y-105414771D01*
X161542457Y-105462390D01*
X161161504Y-105462390D01*
X162685314Y-105938580D02*
X162113885Y-105938580D01*
X162399600Y-105938580D02*
X162399600Y-104938580D01*
X162304361Y-105081438D01*
X162209123Y-105176676D01*
X162113885Y-105224295D01*
%TO.C,L1*%
X152868333Y-89682580D02*
X152392142Y-89682580D01*
X152392142Y-88682580D01*
X153725476Y-89682580D02*
X153154047Y-89682580D01*
X153439761Y-89682580D02*
X153439761Y-88682580D01*
X153344523Y-88825438D01*
X153249285Y-88920676D01*
X153154047Y-88968295D01*
%TO.C,J2*%
X167636866Y-88631780D02*
X167636866Y-89346066D01*
X167589247Y-89488923D01*
X167494009Y-89584161D01*
X167351152Y-89631780D01*
X167255914Y-89631780D01*
X168065438Y-88727019D02*
X168113057Y-88679400D01*
X168208295Y-88631780D01*
X168446390Y-88631780D01*
X168541628Y-88679400D01*
X168589247Y-88727019D01*
X168636866Y-88822257D01*
X168636866Y-88917495D01*
X168589247Y-89060352D01*
X168017819Y-89631780D01*
X168636866Y-89631780D01*
%TO.C,J1*%
X147666666Y-93622380D02*
X147666666Y-94336666D01*
X147619047Y-94479523D01*
X147523809Y-94574761D01*
X147380952Y-94622380D01*
X147285714Y-94622380D01*
X148666666Y-94622380D02*
X148095238Y-94622380D01*
X148380952Y-94622380D02*
X148380952Y-93622380D01*
X148285714Y-93765238D01*
X148190476Y-93860476D01*
X148095238Y-93908095D01*
%TO.C,C6*%
X160615333Y-96750142D02*
X160567714Y-96797761D01*
X160424857Y-96845380D01*
X160329619Y-96845380D01*
X160186761Y-96797761D01*
X160091523Y-96702523D01*
X160043904Y-96607285D01*
X159996285Y-96416809D01*
X159996285Y-96273952D01*
X160043904Y-96083476D01*
X160091523Y-95988238D01*
X160186761Y-95893000D01*
X160329619Y-95845380D01*
X160424857Y-95845380D01*
X160567714Y-95893000D01*
X160615333Y-95940619D01*
X161472476Y-95845380D02*
X161282000Y-95845380D01*
X161186761Y-95893000D01*
X161139142Y-95940619D01*
X161043904Y-96083476D01*
X160996285Y-96273952D01*
X160996285Y-96654904D01*
X161043904Y-96750142D01*
X161091523Y-96797761D01*
X161186761Y-96845380D01*
X161377238Y-96845380D01*
X161472476Y-96797761D01*
X161520095Y-96750142D01*
X161567714Y-96654904D01*
X161567714Y-96416809D01*
X161520095Y-96321571D01*
X161472476Y-96273952D01*
X161377238Y-96226333D01*
X161186761Y-96226333D01*
X161091523Y-96273952D01*
X161043904Y-96321571D01*
X160996285Y-96416809D01*
%TO.C,C5*%
X159726333Y-90908142D02*
X159678714Y-90955761D01*
X159535857Y-91003380D01*
X159440619Y-91003380D01*
X159297761Y-90955761D01*
X159202523Y-90860523D01*
X159154904Y-90765285D01*
X159107285Y-90574809D01*
X159107285Y-90431952D01*
X159154904Y-90241476D01*
X159202523Y-90146238D01*
X159297761Y-90051000D01*
X159440619Y-90003380D01*
X159535857Y-90003380D01*
X159678714Y-90051000D01*
X159726333Y-90098619D01*
X160631095Y-90003380D02*
X160154904Y-90003380D01*
X160107285Y-90479571D01*
X160154904Y-90431952D01*
X160250142Y-90384333D01*
X160488238Y-90384333D01*
X160583476Y-90431952D01*
X160631095Y-90479571D01*
X160678714Y-90574809D01*
X160678714Y-90812904D01*
X160631095Y-90908142D01*
X160583476Y-90955761D01*
X160488238Y-91003380D01*
X160250142Y-91003380D01*
X160154904Y-90955761D01*
X160107285Y-90908142D01*
%TO.C,C4*%
X148757333Y-80722742D02*
X148709714Y-80770361D01*
X148566857Y-80817980D01*
X148471619Y-80817980D01*
X148328761Y-80770361D01*
X148233523Y-80675123D01*
X148185904Y-80579885D01*
X148138285Y-80389409D01*
X148138285Y-80246552D01*
X148185904Y-80056076D01*
X148233523Y-79960838D01*
X148328761Y-79865600D01*
X148471619Y-79817980D01*
X148566857Y-79817980D01*
X148709714Y-79865600D01*
X148757333Y-79913219D01*
X149614476Y-80151314D02*
X149614476Y-80817980D01*
X149376380Y-79770361D02*
X149138285Y-80484647D01*
X149757333Y-80484647D01*
%TO.C,C3*%
X155703542Y-102122266D02*
X155751161Y-102169885D01*
X155798780Y-102312742D01*
X155798780Y-102407980D01*
X155751161Y-102550838D01*
X155655923Y-102646076D01*
X155560685Y-102693695D01*
X155370209Y-102741314D01*
X155227352Y-102741314D01*
X155036876Y-102693695D01*
X154941638Y-102646076D01*
X154846400Y-102550838D01*
X154798780Y-102407980D01*
X154798780Y-102312742D01*
X154846400Y-102169885D01*
X154894019Y-102122266D01*
X154798780Y-101788933D02*
X154798780Y-101169885D01*
X155179733Y-101503219D01*
X155179733Y-101360361D01*
X155227352Y-101265123D01*
X155274971Y-101217504D01*
X155370209Y-101169885D01*
X155608304Y-101169885D01*
X155703542Y-101217504D01*
X155751161Y-101265123D01*
X155798780Y-101360361D01*
X155798780Y-101646076D01*
X155751161Y-101741314D01*
X155703542Y-101788933D01*
%TO.C,C2*%
X153731933Y-98020142D02*
X153684314Y-98067761D01*
X153541457Y-98115380D01*
X153446219Y-98115380D01*
X153303361Y-98067761D01*
X153208123Y-97972523D01*
X153160504Y-97877285D01*
X153112885Y-97686809D01*
X153112885Y-97543952D01*
X153160504Y-97353476D01*
X153208123Y-97258238D01*
X153303361Y-97163000D01*
X153446219Y-97115380D01*
X153541457Y-97115380D01*
X153684314Y-97163000D01*
X153731933Y-97210619D01*
X154112885Y-97210619D02*
X154160504Y-97163000D01*
X154255742Y-97115380D01*
X154493838Y-97115380D01*
X154589076Y-97163000D01*
X154636695Y-97210619D01*
X154684314Y-97305857D01*
X154684314Y-97401095D01*
X154636695Y-97543952D01*
X154065266Y-98115380D01*
X154684314Y-98115380D01*
%TD*%
M02*
