%TF.GenerationSoftware,KiCad,Pcbnew,(5.1.10)-1*%
%TF.CreationDate,2021-09-07T14:02:49-05:00*%
%TF.ProjectId,bq25504_breakout_module,62713235-3530-4345-9f62-7265616b6f75,rev?*%
%TF.SameCoordinates,Original*%
%TF.FileFunction,Soldermask,Top*%
%TF.FilePolarity,Negative*%
%FSLAX46Y46*%
G04 Gerber Fmt 4.6, Leading zero omitted, Abs format (unit mm)*
G04 Created by KiCad (PCBNEW (5.1.10)-1) date 2021-09-07 14:02:49*
%MOMM*%
%LPD*%
G01*
G04 APERTURE LIST*
%ADD10C,3.200000*%
%ADD11C,3.200001*%
%ADD12R,1.700000X1.700000*%
%ADD13R,1.600000X4.300000*%
%ADD14O,1.700000X1.700000*%
%ADD15C,2.400000*%
%ADD16R,2.400000X2.400000*%
G04 APERTURE END LIST*
D10*
%TO.C,H4*%
X167944800Y-112471200D03*
%TD*%
%TO.C,H3*%
X167944800Y-75996800D03*
%TD*%
%TO.C,H2*%
X146939000Y-112471200D03*
%TD*%
D11*
%TO.C,H1*%
X146939000Y-75996800D03*
%TD*%
D12*
%TO.C,U1*%
X158040225Y-99270000D03*
G36*
G01*
X157165225Y-98170000D02*
X157165225Y-97095000D01*
G75*
G02*
X157227725Y-97032500I62500J0D01*
G01*
X157352725Y-97032500D01*
G75*
G02*
X157415225Y-97095000I0J-62500D01*
G01*
X157415225Y-98170000D01*
G75*
G02*
X157352725Y-98232500I-62500J0D01*
G01*
X157227725Y-98232500D01*
G75*
G02*
X157165225Y-98170000I0J62500D01*
G01*
G37*
G36*
G01*
X157665225Y-98170000D02*
X157665225Y-97095000D01*
G75*
G02*
X157727725Y-97032500I62500J0D01*
G01*
X157852725Y-97032500D01*
G75*
G02*
X157915225Y-97095000I0J-62500D01*
G01*
X157915225Y-98170000D01*
G75*
G02*
X157852725Y-98232500I-62500J0D01*
G01*
X157727725Y-98232500D01*
G75*
G02*
X157665225Y-98170000I0J62500D01*
G01*
G37*
G36*
G01*
X158165225Y-98170000D02*
X158165225Y-97095000D01*
G75*
G02*
X158227725Y-97032500I62500J0D01*
G01*
X158352725Y-97032500D01*
G75*
G02*
X158415225Y-97095000I0J-62500D01*
G01*
X158415225Y-98170000D01*
G75*
G02*
X158352725Y-98232500I-62500J0D01*
G01*
X158227725Y-98232500D01*
G75*
G02*
X158165225Y-98170000I0J62500D01*
G01*
G37*
G36*
G01*
X158665225Y-98170000D02*
X158665225Y-97095000D01*
G75*
G02*
X158727725Y-97032500I62500J0D01*
G01*
X158852725Y-97032500D01*
G75*
G02*
X158915225Y-97095000I0J-62500D01*
G01*
X158915225Y-98170000D01*
G75*
G02*
X158852725Y-98232500I-62500J0D01*
G01*
X158727725Y-98232500D01*
G75*
G02*
X158665225Y-98170000I0J62500D01*
G01*
G37*
G36*
G01*
X159077725Y-98582500D02*
X159077725Y-98457500D01*
G75*
G02*
X159140225Y-98395000I62500J0D01*
G01*
X160215225Y-98395000D01*
G75*
G02*
X160277725Y-98457500I0J-62500D01*
G01*
X160277725Y-98582500D01*
G75*
G02*
X160215225Y-98645000I-62500J0D01*
G01*
X159140225Y-98645000D01*
G75*
G02*
X159077725Y-98582500I0J62500D01*
G01*
G37*
G36*
G01*
X159077725Y-99082500D02*
X159077725Y-98957500D01*
G75*
G02*
X159140225Y-98895000I62500J0D01*
G01*
X160215225Y-98895000D01*
G75*
G02*
X160277725Y-98957500I0J-62500D01*
G01*
X160277725Y-99082500D01*
G75*
G02*
X160215225Y-99145000I-62500J0D01*
G01*
X159140225Y-99145000D01*
G75*
G02*
X159077725Y-99082500I0J62500D01*
G01*
G37*
G36*
G01*
X159077725Y-99582500D02*
X159077725Y-99457500D01*
G75*
G02*
X159140225Y-99395000I62500J0D01*
G01*
X160215225Y-99395000D01*
G75*
G02*
X160277725Y-99457500I0J-62500D01*
G01*
X160277725Y-99582500D01*
G75*
G02*
X160215225Y-99645000I-62500J0D01*
G01*
X159140225Y-99645000D01*
G75*
G02*
X159077725Y-99582500I0J62500D01*
G01*
G37*
G36*
G01*
X159077725Y-100082500D02*
X159077725Y-99957500D01*
G75*
G02*
X159140225Y-99895000I62500J0D01*
G01*
X160215225Y-99895000D01*
G75*
G02*
X160277725Y-99957500I0J-62500D01*
G01*
X160277725Y-100082500D01*
G75*
G02*
X160215225Y-100145000I-62500J0D01*
G01*
X159140225Y-100145000D01*
G75*
G02*
X159077725Y-100082500I0J62500D01*
G01*
G37*
G36*
G01*
X158665225Y-101445000D02*
X158665225Y-100370000D01*
G75*
G02*
X158727725Y-100307500I62500J0D01*
G01*
X158852725Y-100307500D01*
G75*
G02*
X158915225Y-100370000I0J-62500D01*
G01*
X158915225Y-101445000D01*
G75*
G02*
X158852725Y-101507500I-62500J0D01*
G01*
X158727725Y-101507500D01*
G75*
G02*
X158665225Y-101445000I0J62500D01*
G01*
G37*
G36*
G01*
X158165225Y-101445000D02*
X158165225Y-100370000D01*
G75*
G02*
X158227725Y-100307500I62500J0D01*
G01*
X158352725Y-100307500D01*
G75*
G02*
X158415225Y-100370000I0J-62500D01*
G01*
X158415225Y-101445000D01*
G75*
G02*
X158352725Y-101507500I-62500J0D01*
G01*
X158227725Y-101507500D01*
G75*
G02*
X158165225Y-101445000I0J62500D01*
G01*
G37*
G36*
G01*
X157665225Y-101445000D02*
X157665225Y-100370000D01*
G75*
G02*
X157727725Y-100307500I62500J0D01*
G01*
X157852725Y-100307500D01*
G75*
G02*
X157915225Y-100370000I0J-62500D01*
G01*
X157915225Y-101445000D01*
G75*
G02*
X157852725Y-101507500I-62500J0D01*
G01*
X157727725Y-101507500D01*
G75*
G02*
X157665225Y-101445000I0J62500D01*
G01*
G37*
G36*
G01*
X157165225Y-101445000D02*
X157165225Y-100370000D01*
G75*
G02*
X157227725Y-100307500I62500J0D01*
G01*
X157352725Y-100307500D01*
G75*
G02*
X157415225Y-100370000I0J-62500D01*
G01*
X157415225Y-101445000D01*
G75*
G02*
X157352725Y-101507500I-62500J0D01*
G01*
X157227725Y-101507500D01*
G75*
G02*
X157165225Y-101445000I0J62500D01*
G01*
G37*
G36*
G01*
X155802725Y-100082500D02*
X155802725Y-99957500D01*
G75*
G02*
X155865225Y-99895000I62500J0D01*
G01*
X156940225Y-99895000D01*
G75*
G02*
X157002725Y-99957500I0J-62500D01*
G01*
X157002725Y-100082500D01*
G75*
G02*
X156940225Y-100145000I-62500J0D01*
G01*
X155865225Y-100145000D01*
G75*
G02*
X155802725Y-100082500I0J62500D01*
G01*
G37*
G36*
G01*
X155802725Y-99582500D02*
X155802725Y-99457500D01*
G75*
G02*
X155865225Y-99395000I62500J0D01*
G01*
X156940225Y-99395000D01*
G75*
G02*
X157002725Y-99457500I0J-62500D01*
G01*
X157002725Y-99582500D01*
G75*
G02*
X156940225Y-99645000I-62500J0D01*
G01*
X155865225Y-99645000D01*
G75*
G02*
X155802725Y-99582500I0J62500D01*
G01*
G37*
G36*
G01*
X155802725Y-99082500D02*
X155802725Y-98957500D01*
G75*
G02*
X155865225Y-98895000I62500J0D01*
G01*
X156940225Y-98895000D01*
G75*
G02*
X157002725Y-98957500I0J-62500D01*
G01*
X157002725Y-99082500D01*
G75*
G02*
X156940225Y-99145000I-62500J0D01*
G01*
X155865225Y-99145000D01*
G75*
G02*
X155802725Y-99082500I0J62500D01*
G01*
G37*
G36*
G01*
X155802725Y-98582500D02*
X155802725Y-98457500D01*
G75*
G02*
X155865225Y-98395000I62500J0D01*
G01*
X156940225Y-98395000D01*
G75*
G02*
X157002725Y-98457500I0J-62500D01*
G01*
X157002725Y-98582500D01*
G75*
G02*
X156940225Y-98645000I-62500J0D01*
G01*
X155865225Y-98645000D01*
G75*
G02*
X155802725Y-98582500I0J62500D01*
G01*
G37*
%TD*%
%TO.C,R9*%
G36*
G01*
X150620900Y-99754700D02*
X150620900Y-99279700D01*
G75*
G02*
X150858400Y-99042200I237500J0D01*
G01*
X151358400Y-99042200D01*
G75*
G02*
X151595900Y-99279700I0J-237500D01*
G01*
X151595900Y-99754700D01*
G75*
G02*
X151358400Y-99992200I-237500J0D01*
G01*
X150858400Y-99992200D01*
G75*
G02*
X150620900Y-99754700I0J237500D01*
G01*
G37*
G36*
G01*
X152445900Y-99754700D02*
X152445900Y-99279700D01*
G75*
G02*
X152683400Y-99042200I237500J0D01*
G01*
X153183400Y-99042200D01*
G75*
G02*
X153420900Y-99279700I0J-237500D01*
G01*
X153420900Y-99754700D01*
G75*
G02*
X153183400Y-99992200I-237500J0D01*
G01*
X152683400Y-99992200D01*
G75*
G02*
X152445900Y-99754700I0J237500D01*
G01*
G37*
%TD*%
%TO.C,R8*%
G36*
G01*
X152027900Y-101862700D02*
X151552900Y-101862700D01*
G75*
G02*
X151315400Y-101625200I0J237500D01*
G01*
X151315400Y-101125200D01*
G75*
G02*
X151552900Y-100887700I237500J0D01*
G01*
X152027900Y-100887700D01*
G75*
G02*
X152265400Y-101125200I0J-237500D01*
G01*
X152265400Y-101625200D01*
G75*
G02*
X152027900Y-101862700I-237500J0D01*
G01*
G37*
G36*
G01*
X152027900Y-103687700D02*
X151552900Y-103687700D01*
G75*
G02*
X151315400Y-103450200I0J237500D01*
G01*
X151315400Y-102950200D01*
G75*
G02*
X151552900Y-102712700I237500J0D01*
G01*
X152027900Y-102712700D01*
G75*
G02*
X152265400Y-102950200I0J-237500D01*
G01*
X152265400Y-103450200D01*
G75*
G02*
X152027900Y-103687700I-237500J0D01*
G01*
G37*
%TD*%
%TO.C,R7*%
G36*
G01*
X163850500Y-99830900D02*
X163850500Y-99355900D01*
G75*
G02*
X164088000Y-99118400I237500J0D01*
G01*
X164588000Y-99118400D01*
G75*
G02*
X164825500Y-99355900I0J-237500D01*
G01*
X164825500Y-99830900D01*
G75*
G02*
X164588000Y-100068400I-237500J0D01*
G01*
X164088000Y-100068400D01*
G75*
G02*
X163850500Y-99830900I0J237500D01*
G01*
G37*
G36*
G01*
X162025500Y-99830900D02*
X162025500Y-99355900D01*
G75*
G02*
X162263000Y-99118400I237500J0D01*
G01*
X162763000Y-99118400D01*
G75*
G02*
X163000500Y-99355900I0J-237500D01*
G01*
X163000500Y-99830900D01*
G75*
G02*
X162763000Y-100068400I-237500J0D01*
G01*
X162263000Y-100068400D01*
G75*
G02*
X162025500Y-99830900I0J237500D01*
G01*
G37*
%TD*%
%TO.C,R6*%
G36*
G01*
X163850500Y-101583500D02*
X163850500Y-101108500D01*
G75*
G02*
X164088000Y-100871000I237500J0D01*
G01*
X164588000Y-100871000D01*
G75*
G02*
X164825500Y-101108500I0J-237500D01*
G01*
X164825500Y-101583500D01*
G75*
G02*
X164588000Y-101821000I-237500J0D01*
G01*
X164088000Y-101821000D01*
G75*
G02*
X163850500Y-101583500I0J237500D01*
G01*
G37*
G36*
G01*
X162025500Y-101583500D02*
X162025500Y-101108500D01*
G75*
G02*
X162263000Y-100871000I237500J0D01*
G01*
X162763000Y-100871000D01*
G75*
G02*
X163000500Y-101108500I0J-237500D01*
G01*
X163000500Y-101583500D01*
G75*
G02*
X162763000Y-101821000I-237500J0D01*
G01*
X162263000Y-101821000D01*
G75*
G02*
X162025500Y-101583500I0J237500D01*
G01*
G37*
%TD*%
%TO.C,R5*%
G36*
G01*
X163850500Y-103386900D02*
X163850500Y-102911900D01*
G75*
G02*
X164088000Y-102674400I237500J0D01*
G01*
X164588000Y-102674400D01*
G75*
G02*
X164825500Y-102911900I0J-237500D01*
G01*
X164825500Y-103386900D01*
G75*
G02*
X164588000Y-103624400I-237500J0D01*
G01*
X164088000Y-103624400D01*
G75*
G02*
X163850500Y-103386900I0J237500D01*
G01*
G37*
G36*
G01*
X162025500Y-103386900D02*
X162025500Y-102911900D01*
G75*
G02*
X162263000Y-102674400I237500J0D01*
G01*
X162763000Y-102674400D01*
G75*
G02*
X163000500Y-102911900I0J-237500D01*
G01*
X163000500Y-103386900D01*
G75*
G02*
X162763000Y-103624400I-237500J0D01*
G01*
X162263000Y-103624400D01*
G75*
G02*
X162025500Y-103386900I0J237500D01*
G01*
G37*
%TD*%
%TO.C,R4*%
G36*
G01*
X158833000Y-107026700D02*
X158833000Y-107501700D01*
G75*
G02*
X158595500Y-107739200I-237500J0D01*
G01*
X158095500Y-107739200D01*
G75*
G02*
X157858000Y-107501700I0J237500D01*
G01*
X157858000Y-107026700D01*
G75*
G02*
X158095500Y-106789200I237500J0D01*
G01*
X158595500Y-106789200D01*
G75*
G02*
X158833000Y-107026700I0J-237500D01*
G01*
G37*
G36*
G01*
X160658000Y-107026700D02*
X160658000Y-107501700D01*
G75*
G02*
X160420500Y-107739200I-237500J0D01*
G01*
X159920500Y-107739200D01*
G75*
G02*
X159683000Y-107501700I0J237500D01*
G01*
X159683000Y-107026700D01*
G75*
G02*
X159920500Y-106789200I237500J0D01*
G01*
X160420500Y-106789200D01*
G75*
G02*
X160658000Y-107026700I0J-237500D01*
G01*
G37*
%TD*%
%TO.C,R3*%
G36*
G01*
X159683000Y-105647500D02*
X159683000Y-105172500D01*
G75*
G02*
X159920500Y-104935000I237500J0D01*
G01*
X160420500Y-104935000D01*
G75*
G02*
X160658000Y-105172500I0J-237500D01*
G01*
X160658000Y-105647500D01*
G75*
G02*
X160420500Y-105885000I-237500J0D01*
G01*
X159920500Y-105885000D01*
G75*
G02*
X159683000Y-105647500I0J237500D01*
G01*
G37*
G36*
G01*
X157858000Y-105647500D02*
X157858000Y-105172500D01*
G75*
G02*
X158095500Y-104935000I237500J0D01*
G01*
X158595500Y-104935000D01*
G75*
G02*
X158833000Y-105172500I0J-237500D01*
G01*
X158833000Y-105647500D01*
G75*
G02*
X158595500Y-105885000I-237500J0D01*
G01*
X158095500Y-105885000D01*
G75*
G02*
X157858000Y-105647500I0J237500D01*
G01*
G37*
%TD*%
%TO.C,R2*%
G36*
G01*
X155312100Y-106798300D02*
X155787100Y-106798300D01*
G75*
G02*
X156024600Y-107035800I0J-237500D01*
G01*
X156024600Y-107535800D01*
G75*
G02*
X155787100Y-107773300I-237500J0D01*
G01*
X155312100Y-107773300D01*
G75*
G02*
X155074600Y-107535800I0J237500D01*
G01*
X155074600Y-107035800D01*
G75*
G02*
X155312100Y-106798300I237500J0D01*
G01*
G37*
G36*
G01*
X155312100Y-104973300D02*
X155787100Y-104973300D01*
G75*
G02*
X156024600Y-105210800I0J-237500D01*
G01*
X156024600Y-105710800D01*
G75*
G02*
X155787100Y-105948300I-237500J0D01*
G01*
X155312100Y-105948300D01*
G75*
G02*
X155074600Y-105710800I0J237500D01*
G01*
X155074600Y-105210800D01*
G75*
G02*
X155312100Y-104973300I237500J0D01*
G01*
G37*
%TD*%
%TO.C,R1*%
G36*
G01*
X156929900Y-103445300D02*
X156929900Y-103920300D01*
G75*
G02*
X156692400Y-104157800I-237500J0D01*
G01*
X156192400Y-104157800D01*
G75*
G02*
X155954900Y-103920300I0J237500D01*
G01*
X155954900Y-103445300D01*
G75*
G02*
X156192400Y-103207800I237500J0D01*
G01*
X156692400Y-103207800D01*
G75*
G02*
X156929900Y-103445300I0J-237500D01*
G01*
G37*
G36*
G01*
X158754900Y-103445300D02*
X158754900Y-103920300D01*
G75*
G02*
X158517400Y-104157800I-237500J0D01*
G01*
X158017400Y-104157800D01*
G75*
G02*
X157779900Y-103920300I0J237500D01*
G01*
X157779900Y-103445300D01*
G75*
G02*
X158017400Y-103207800I237500J0D01*
G01*
X158517400Y-103207800D01*
G75*
G02*
X158754900Y-103445300I0J-237500D01*
G01*
G37*
%TD*%
D13*
%TO.C,L1*%
X155702000Y-92506800D03*
X153002000Y-92506800D03*
%TD*%
D14*
%TO.C,J2*%
X168000000Y-91380000D03*
X168000000Y-93920000D03*
X168000000Y-96460000D03*
D12*
X168000000Y-99000000D03*
%TD*%
D14*
%TO.C,J1*%
X148000000Y-99040000D03*
D12*
X148000000Y-96500000D03*
%TD*%
%TO.C,C6*%
G36*
G01*
X159787300Y-94954100D02*
X159787300Y-94479100D01*
G75*
G02*
X160024800Y-94241600I237500J0D01*
G01*
X160624800Y-94241600D01*
G75*
G02*
X160862300Y-94479100I0J-237500D01*
G01*
X160862300Y-94954100D01*
G75*
G02*
X160624800Y-95191600I-237500J0D01*
G01*
X160024800Y-95191600D01*
G75*
G02*
X159787300Y-94954100I0J237500D01*
G01*
G37*
G36*
G01*
X158062300Y-94954100D02*
X158062300Y-94479100D01*
G75*
G02*
X158299800Y-94241600I237500J0D01*
G01*
X158899800Y-94241600D01*
G75*
G02*
X159137300Y-94479100I0J-237500D01*
G01*
X159137300Y-94954100D01*
G75*
G02*
X158899800Y-95191600I-237500J0D01*
G01*
X158299800Y-95191600D01*
G75*
G02*
X158062300Y-94954100I0J237500D01*
G01*
G37*
%TD*%
%TO.C,C5*%
G36*
G01*
X160143700Y-92778600D02*
X160143700Y-91828600D01*
G75*
G02*
X160393700Y-91578600I250000J0D01*
G01*
X161068700Y-91578600D01*
G75*
G02*
X161318700Y-91828600I0J-250000D01*
G01*
X161318700Y-92778600D01*
G75*
G02*
X161068700Y-93028600I-250000J0D01*
G01*
X160393700Y-93028600D01*
G75*
G02*
X160143700Y-92778600I0J250000D01*
G01*
G37*
G36*
G01*
X158068700Y-92778600D02*
X158068700Y-91828600D01*
G75*
G02*
X158318700Y-91578600I250000J0D01*
G01*
X158993700Y-91578600D01*
G75*
G02*
X159243700Y-91828600I0J-250000D01*
G01*
X159243700Y-92778600D01*
G75*
G02*
X158993700Y-93028600I-250000J0D01*
G01*
X158318700Y-93028600D01*
G75*
G02*
X158068700Y-92778600I0J250000D01*
G01*
G37*
%TD*%
D15*
%TO.C,C4*%
X160147000Y-80264000D03*
D16*
X155147000Y-80264000D03*
%TD*%
%TO.C,C3*%
G36*
G01*
X153635700Y-102612700D02*
X154110700Y-102612700D01*
G75*
G02*
X154348200Y-102850200I0J-237500D01*
G01*
X154348200Y-103450200D01*
G75*
G02*
X154110700Y-103687700I-237500J0D01*
G01*
X153635700Y-103687700D01*
G75*
G02*
X153398200Y-103450200I0J237500D01*
G01*
X153398200Y-102850200D01*
G75*
G02*
X153635700Y-102612700I237500J0D01*
G01*
G37*
G36*
G01*
X153635700Y-100887700D02*
X154110700Y-100887700D01*
G75*
G02*
X154348200Y-101125200I0J-237500D01*
G01*
X154348200Y-101725200D01*
G75*
G02*
X154110700Y-101962700I-237500J0D01*
G01*
X153635700Y-101962700D01*
G75*
G02*
X153398200Y-101725200I0J237500D01*
G01*
X153398200Y-101125200D01*
G75*
G02*
X153635700Y-100887700I237500J0D01*
G01*
G37*
%TD*%
%TO.C,C2*%
G36*
G01*
X153742100Y-96554300D02*
X153742100Y-96079300D01*
G75*
G02*
X153979600Y-95841800I237500J0D01*
G01*
X154579600Y-95841800D01*
G75*
G02*
X154817100Y-96079300I0J-237500D01*
G01*
X154817100Y-96554300D01*
G75*
G02*
X154579600Y-96791800I-237500J0D01*
G01*
X153979600Y-96791800D01*
G75*
G02*
X153742100Y-96554300I0J237500D01*
G01*
G37*
G36*
G01*
X152017100Y-96554300D02*
X152017100Y-96079300D01*
G75*
G02*
X152254600Y-95841800I237500J0D01*
G01*
X152854600Y-95841800D01*
G75*
G02*
X153092100Y-96079300I0J-237500D01*
G01*
X153092100Y-96554300D01*
G75*
G02*
X152854600Y-96791800I-237500J0D01*
G01*
X152254600Y-96791800D01*
G75*
G02*
X152017100Y-96554300I0J237500D01*
G01*
G37*
%TD*%
M02*
