M48
; DRILL file {KiCad (5.1.10)-1} date 09/09/21 15:03:12
; FORMAT={-:-/ absolute / inch / decimal}
; #@! TF.CreationDate,2021-09-09T15:03:12-05:00
; #@! TF.GenerationSoftware,Kicad,Pcbnew,(5.1.10)-1
; #@! TF.FileFunction,Plated,1,2,PTH
FMAT,2
INCH
T1C0.0157
T2C0.0315
T3C0.0335
T4C0.0394
%
G90
G05
T1
X5.1969Y-4.8819
X5.1969Y-5.0394
X5.2756Y-4.7244
X5.35Y-4.55
X5.3543Y-4.8425
X5.4531Y-4.35
X5.4724Y-4.252
X5.5512Y-4.7638
X5.5906Y-5.0
X5.6299Y-4.5669
X5.6933Y-4.3067
X5.7874Y-4.4882
X5.7874Y-4.8031
X5.8661Y-4.2913
X5.9449Y-4.3701
X5.9843Y-4.2913
X5.9843Y-5.0394
T2
X5.2Y-4.35
X5.2984Y-4.35
X5.6Y-4.45
X5.6984Y-4.45
X5.7Y-4.95
X5.7984Y-4.95
T3
X5.25Y-4.5563
X5.25Y-4.95
T4
X5.45Y-4.5
X5.45Y-4.6
X5.45Y-4.7
X5.45Y-4.8
X5.45Y-4.9
X5.45Y-5.0
X5.95Y-4.5
X5.95Y-4.6
X5.95Y-4.7
X5.95Y-4.8
X5.95Y-4.9
T0
M30
