%TF.GenerationSoftware,KiCad,Pcbnew,(5.1.10)-1*%
%TF.CreationDate,2021-09-09T15:03:09-05:00*%
%TF.ProjectId,BoostRegulatorBreakoutPCB,426f6f73-7452-4656-9775-6c61746f7242,00*%
%TF.SameCoordinates,Original*%
%TF.FileFunction,Soldermask,Top*%
%TF.FilePolarity,Negative*%
%FSLAX46Y46*%
G04 Gerber Fmt 4.6, Leading zero omitted, Abs format (unit mm)*
G04 Created by KiCad (PCBNEW (5.1.10)-1) date 2021-09-09 15:03:09*
%MOMM*%
%LPD*%
G01*
G04 APERTURE LIST*
%ADD10R,1.700000X2.500000*%
%ADD11O,1.600000X1.600000*%
%ADD12C,1.600000*%
%ADD13R,1.600000X1.600000*%
%ADD14O,1.700000X1.700000*%
%ADD15R,1.700000X1.700000*%
G04 APERTURE END LIST*
D10*
%TO.C,U1*%
X144780000Y-119507000D03*
G36*
G01*
X145830000Y-118569500D02*
X145830000Y-118444500D01*
G75*
G02*
X145892500Y-118382000I62500J0D01*
G01*
X146967500Y-118382000D01*
G75*
G02*
X147030000Y-118444500I0J-62500D01*
G01*
X147030000Y-118569500D01*
G75*
G02*
X146967500Y-118632000I-62500J0D01*
G01*
X145892500Y-118632000D01*
G75*
G02*
X145830000Y-118569500I0J62500D01*
G01*
G37*
G36*
G01*
X145830000Y-119069500D02*
X145830000Y-118944500D01*
G75*
G02*
X145892500Y-118882000I62500J0D01*
G01*
X146967500Y-118882000D01*
G75*
G02*
X147030000Y-118944500I0J-62500D01*
G01*
X147030000Y-119069500D01*
G75*
G02*
X146967500Y-119132000I-62500J0D01*
G01*
X145892500Y-119132000D01*
G75*
G02*
X145830000Y-119069500I0J62500D01*
G01*
G37*
G36*
G01*
X145830000Y-119569500D02*
X145830000Y-119444500D01*
G75*
G02*
X145892500Y-119382000I62500J0D01*
G01*
X146967500Y-119382000D01*
G75*
G02*
X147030000Y-119444500I0J-62500D01*
G01*
X147030000Y-119569500D01*
G75*
G02*
X146967500Y-119632000I-62500J0D01*
G01*
X145892500Y-119632000D01*
G75*
G02*
X145830000Y-119569500I0J62500D01*
G01*
G37*
G36*
G01*
X145830000Y-120069500D02*
X145830000Y-119944500D01*
G75*
G02*
X145892500Y-119882000I62500J0D01*
G01*
X146967500Y-119882000D01*
G75*
G02*
X147030000Y-119944500I0J-62500D01*
G01*
X147030000Y-120069500D01*
G75*
G02*
X146967500Y-120132000I-62500J0D01*
G01*
X145892500Y-120132000D01*
G75*
G02*
X145830000Y-120069500I0J62500D01*
G01*
G37*
G36*
G01*
X145830000Y-120569500D02*
X145830000Y-120444500D01*
G75*
G02*
X145892500Y-120382000I62500J0D01*
G01*
X146967500Y-120382000D01*
G75*
G02*
X147030000Y-120444500I0J-62500D01*
G01*
X147030000Y-120569500D01*
G75*
G02*
X146967500Y-120632000I-62500J0D01*
G01*
X145892500Y-120632000D01*
G75*
G02*
X145830000Y-120569500I0J62500D01*
G01*
G37*
G36*
G01*
X142530000Y-120569500D02*
X142530000Y-120444500D01*
G75*
G02*
X142592500Y-120382000I62500J0D01*
G01*
X143667500Y-120382000D01*
G75*
G02*
X143730000Y-120444500I0J-62500D01*
G01*
X143730000Y-120569500D01*
G75*
G02*
X143667500Y-120632000I-62500J0D01*
G01*
X142592500Y-120632000D01*
G75*
G02*
X142530000Y-120569500I0J62500D01*
G01*
G37*
G36*
G01*
X142530000Y-120069500D02*
X142530000Y-119944500D01*
G75*
G02*
X142592500Y-119882000I62500J0D01*
G01*
X143667500Y-119882000D01*
G75*
G02*
X143730000Y-119944500I0J-62500D01*
G01*
X143730000Y-120069500D01*
G75*
G02*
X143667500Y-120132000I-62500J0D01*
G01*
X142592500Y-120132000D01*
G75*
G02*
X142530000Y-120069500I0J62500D01*
G01*
G37*
G36*
G01*
X142530000Y-119569500D02*
X142530000Y-119444500D01*
G75*
G02*
X142592500Y-119382000I62500J0D01*
G01*
X143667500Y-119382000D01*
G75*
G02*
X143730000Y-119444500I0J-62500D01*
G01*
X143730000Y-119569500D01*
G75*
G02*
X143667500Y-119632000I-62500J0D01*
G01*
X142592500Y-119632000D01*
G75*
G02*
X142530000Y-119569500I0J62500D01*
G01*
G37*
G36*
G01*
X142530000Y-119069500D02*
X142530000Y-118944500D01*
G75*
G02*
X142592500Y-118882000I62500J0D01*
G01*
X143667500Y-118882000D01*
G75*
G02*
X143730000Y-118944500I0J-62500D01*
G01*
X143730000Y-119069500D01*
G75*
G02*
X143667500Y-119132000I-62500J0D01*
G01*
X142592500Y-119132000D01*
G75*
G02*
X142530000Y-119069500I0J62500D01*
G01*
G37*
G36*
G01*
X142530000Y-118569500D02*
X142530000Y-118444500D01*
G75*
G02*
X142592500Y-118382000I62500J0D01*
G01*
X143667500Y-118382000D01*
G75*
G02*
X143730000Y-118444500I0J-62500D01*
G01*
X143730000Y-118569500D01*
G75*
G02*
X143667500Y-118632000I-62500J0D01*
G01*
X142592500Y-118632000D01*
G75*
G02*
X142530000Y-118569500I0J62500D01*
G01*
G37*
%TD*%
D11*
%TO.C,L1*%
X133350000Y-115730000D03*
D12*
X133350000Y-125730000D03*
%TD*%
%TO.C,C3*%
X134580000Y-110490000D03*
D13*
X132080000Y-110490000D03*
%TD*%
D12*
%TO.C,C2*%
X144740000Y-113030000D03*
D13*
X142240000Y-113030000D03*
%TD*%
D12*
%TO.C,C1*%
X147280000Y-125730000D03*
D13*
X144780000Y-125730000D03*
%TD*%
D14*
%TO.C,J1*%
X138430000Y-127000000D03*
X138430000Y-124460000D03*
X138430000Y-121920000D03*
X138430000Y-119380000D03*
X138430000Y-116840000D03*
D15*
X138430000Y-114300000D03*
%TD*%
D14*
%TO.C,J2*%
X151130000Y-114300000D03*
X151130000Y-116840000D03*
X151130000Y-119380000D03*
X151130000Y-121920000D03*
D15*
X151130000Y-124460000D03*
%TD*%
M02*
