%TF.GenerationSoftware,KiCad,Pcbnew,(5.1.10)-1*%
%TF.CreationDate,2021-09-09T15:03:09-05:00*%
%TF.ProjectId,BoostRegulatorBreakoutPCB,426f6f73-7452-4656-9775-6c61746f7242,00*%
%TF.SameCoordinates,Original*%
%TF.FileFunction,Legend,Top*%
%TF.FilePolarity,Positive*%
%FSLAX46Y46*%
G04 Gerber Fmt 4.6, Leading zero omitted, Abs format (unit mm)*
G04 Created by KiCad (PCBNEW (5.1.10)-1) date 2021-09-09 15:03:09*
%MOMM*%
%LPD*%
G01*
G04 APERTURE LIST*
%ADD10C,0.120000*%
%ADD11C,0.150000*%
G04 APERTURE END LIST*
D10*
%TO.C,U1*%
X144780000Y-117897000D02*
X146280000Y-117897000D01*
X143280000Y-121117000D02*
X146280000Y-121117000D01*
%TO.C,L1*%
X133350000Y-116730000D02*
X133350000Y-118110000D01*
X133350000Y-124730000D02*
X133350000Y-123350000D01*
X131430000Y-118110000D02*
X131430000Y-123350000D01*
X135270000Y-118110000D02*
X131430000Y-118110000D01*
X135270000Y-123350000D02*
X135270000Y-118110000D01*
X131430000Y-123350000D02*
X135270000Y-123350000D01*
%TO.C,C3*%
X130775225Y-108765000D02*
X130775225Y-109265000D01*
X130525225Y-109015000D02*
X131025225Y-109015000D01*
X135931000Y-110206000D02*
X135931000Y-110774000D01*
X135891000Y-109972000D02*
X135891000Y-111008000D01*
X135851000Y-109813000D02*
X135851000Y-111167000D01*
X135811000Y-109685000D02*
X135811000Y-111295000D01*
X135771000Y-109575000D02*
X135771000Y-111405000D01*
X135731000Y-109479000D02*
X135731000Y-111501000D01*
X135691000Y-109392000D02*
X135691000Y-111588000D01*
X135651000Y-109312000D02*
X135651000Y-111668000D01*
X135611000Y-111530000D02*
X135611000Y-111741000D01*
X135611000Y-109239000D02*
X135611000Y-109450000D01*
X135571000Y-111530000D02*
X135571000Y-111809000D01*
X135571000Y-109171000D02*
X135571000Y-109450000D01*
X135531000Y-111530000D02*
X135531000Y-111873000D01*
X135531000Y-109107000D02*
X135531000Y-109450000D01*
X135491000Y-111530000D02*
X135491000Y-111933000D01*
X135491000Y-109047000D02*
X135491000Y-109450000D01*
X135451000Y-111530000D02*
X135451000Y-111990000D01*
X135451000Y-108990000D02*
X135451000Y-109450000D01*
X135411000Y-111530000D02*
X135411000Y-112044000D01*
X135411000Y-108936000D02*
X135411000Y-109450000D01*
X135371000Y-111530000D02*
X135371000Y-112095000D01*
X135371000Y-108885000D02*
X135371000Y-109450000D01*
X135331000Y-111530000D02*
X135331000Y-112143000D01*
X135331000Y-108837000D02*
X135331000Y-109450000D01*
X135291000Y-111530000D02*
X135291000Y-112189000D01*
X135291000Y-108791000D02*
X135291000Y-109450000D01*
X135251000Y-111530000D02*
X135251000Y-112233000D01*
X135251000Y-108747000D02*
X135251000Y-109450000D01*
X135211000Y-111530000D02*
X135211000Y-112275000D01*
X135211000Y-108705000D02*
X135211000Y-109450000D01*
X135171000Y-111530000D02*
X135171000Y-112316000D01*
X135171000Y-108664000D02*
X135171000Y-109450000D01*
X135131000Y-111530000D02*
X135131000Y-112354000D01*
X135131000Y-108626000D02*
X135131000Y-109450000D01*
X135091000Y-111530000D02*
X135091000Y-112391000D01*
X135091000Y-108589000D02*
X135091000Y-109450000D01*
X135051000Y-111530000D02*
X135051000Y-112427000D01*
X135051000Y-108553000D02*
X135051000Y-109450000D01*
X135011000Y-111530000D02*
X135011000Y-112461000D01*
X135011000Y-108519000D02*
X135011000Y-109450000D01*
X134971000Y-111530000D02*
X134971000Y-112494000D01*
X134971000Y-108486000D02*
X134971000Y-109450000D01*
X134931000Y-111530000D02*
X134931000Y-112525000D01*
X134931000Y-108455000D02*
X134931000Y-109450000D01*
X134891000Y-111530000D02*
X134891000Y-112555000D01*
X134891000Y-108425000D02*
X134891000Y-109450000D01*
X134851000Y-111530000D02*
X134851000Y-112585000D01*
X134851000Y-108395000D02*
X134851000Y-109450000D01*
X134811000Y-111530000D02*
X134811000Y-112612000D01*
X134811000Y-108368000D02*
X134811000Y-109450000D01*
X134771000Y-111530000D02*
X134771000Y-112639000D01*
X134771000Y-108341000D02*
X134771000Y-109450000D01*
X134731000Y-111530000D02*
X134731000Y-112665000D01*
X134731000Y-108315000D02*
X134731000Y-109450000D01*
X134691000Y-111530000D02*
X134691000Y-112690000D01*
X134691000Y-108290000D02*
X134691000Y-109450000D01*
X134651000Y-111530000D02*
X134651000Y-112714000D01*
X134651000Y-108266000D02*
X134651000Y-109450000D01*
X134611000Y-111530000D02*
X134611000Y-112737000D01*
X134611000Y-108243000D02*
X134611000Y-109450000D01*
X134571000Y-111530000D02*
X134571000Y-112758000D01*
X134571000Y-108222000D02*
X134571000Y-109450000D01*
X134531000Y-111530000D02*
X134531000Y-112780000D01*
X134531000Y-108200000D02*
X134531000Y-109450000D01*
X134491000Y-111530000D02*
X134491000Y-112800000D01*
X134491000Y-108180000D02*
X134491000Y-109450000D01*
X134451000Y-111530000D02*
X134451000Y-112819000D01*
X134451000Y-108161000D02*
X134451000Y-109450000D01*
X134411000Y-111530000D02*
X134411000Y-112838000D01*
X134411000Y-108142000D02*
X134411000Y-109450000D01*
X134371000Y-111530000D02*
X134371000Y-112855000D01*
X134371000Y-108125000D02*
X134371000Y-109450000D01*
X134331000Y-111530000D02*
X134331000Y-112872000D01*
X134331000Y-108108000D02*
X134331000Y-109450000D01*
X134291000Y-111530000D02*
X134291000Y-112888000D01*
X134291000Y-108092000D02*
X134291000Y-109450000D01*
X134251000Y-111530000D02*
X134251000Y-112904000D01*
X134251000Y-108076000D02*
X134251000Y-109450000D01*
X134211000Y-111530000D02*
X134211000Y-112918000D01*
X134211000Y-108062000D02*
X134211000Y-109450000D01*
X134171000Y-111530000D02*
X134171000Y-112932000D01*
X134171000Y-108048000D02*
X134171000Y-109450000D01*
X134131000Y-111530000D02*
X134131000Y-112945000D01*
X134131000Y-108035000D02*
X134131000Y-109450000D01*
X134091000Y-111530000D02*
X134091000Y-112958000D01*
X134091000Y-108022000D02*
X134091000Y-109450000D01*
X134051000Y-111530000D02*
X134051000Y-112970000D01*
X134051000Y-108010000D02*
X134051000Y-109450000D01*
X134010000Y-111530000D02*
X134010000Y-112981000D01*
X134010000Y-107999000D02*
X134010000Y-109450000D01*
X133970000Y-111530000D02*
X133970000Y-112991000D01*
X133970000Y-107989000D02*
X133970000Y-109450000D01*
X133930000Y-111530000D02*
X133930000Y-113001000D01*
X133930000Y-107979000D02*
X133930000Y-109450000D01*
X133890000Y-111530000D02*
X133890000Y-113010000D01*
X133890000Y-107970000D02*
X133890000Y-109450000D01*
X133850000Y-111530000D02*
X133850000Y-113018000D01*
X133850000Y-107962000D02*
X133850000Y-109450000D01*
X133810000Y-111530000D02*
X133810000Y-113026000D01*
X133810000Y-107954000D02*
X133810000Y-109450000D01*
X133770000Y-111530000D02*
X133770000Y-113033000D01*
X133770000Y-107947000D02*
X133770000Y-109450000D01*
X133730000Y-111530000D02*
X133730000Y-113040000D01*
X133730000Y-107940000D02*
X133730000Y-109450000D01*
X133690000Y-111530000D02*
X133690000Y-113046000D01*
X133690000Y-107934000D02*
X133690000Y-109450000D01*
X133650000Y-111530000D02*
X133650000Y-113051000D01*
X133650000Y-107929000D02*
X133650000Y-109450000D01*
X133610000Y-111530000D02*
X133610000Y-113055000D01*
X133610000Y-107925000D02*
X133610000Y-109450000D01*
X133570000Y-111530000D02*
X133570000Y-113059000D01*
X133570000Y-107921000D02*
X133570000Y-109450000D01*
X133530000Y-107917000D02*
X133530000Y-113063000D01*
X133490000Y-107914000D02*
X133490000Y-113066000D01*
X133450000Y-107912000D02*
X133450000Y-113068000D01*
X133410000Y-107911000D02*
X133410000Y-113069000D01*
X133370000Y-107910000D02*
X133370000Y-113070000D01*
X133330000Y-107910000D02*
X133330000Y-113070000D01*
X135950000Y-110490000D02*
G75*
G03*
X135950000Y-110490000I-2620000J0D01*
G01*
%TO.C,C2*%
X140935225Y-111305000D02*
X140935225Y-111805000D01*
X140685225Y-111555000D02*
X141185225Y-111555000D01*
X146091000Y-112746000D02*
X146091000Y-113314000D01*
X146051000Y-112512000D02*
X146051000Y-113548000D01*
X146011000Y-112353000D02*
X146011000Y-113707000D01*
X145971000Y-112225000D02*
X145971000Y-113835000D01*
X145931000Y-112115000D02*
X145931000Y-113945000D01*
X145891000Y-112019000D02*
X145891000Y-114041000D01*
X145851000Y-111932000D02*
X145851000Y-114128000D01*
X145811000Y-111852000D02*
X145811000Y-114208000D01*
X145771000Y-114070000D02*
X145771000Y-114281000D01*
X145771000Y-111779000D02*
X145771000Y-111990000D01*
X145731000Y-114070000D02*
X145731000Y-114349000D01*
X145731000Y-111711000D02*
X145731000Y-111990000D01*
X145691000Y-114070000D02*
X145691000Y-114413000D01*
X145691000Y-111647000D02*
X145691000Y-111990000D01*
X145651000Y-114070000D02*
X145651000Y-114473000D01*
X145651000Y-111587000D02*
X145651000Y-111990000D01*
X145611000Y-114070000D02*
X145611000Y-114530000D01*
X145611000Y-111530000D02*
X145611000Y-111990000D01*
X145571000Y-114070000D02*
X145571000Y-114584000D01*
X145571000Y-111476000D02*
X145571000Y-111990000D01*
X145531000Y-114070000D02*
X145531000Y-114635000D01*
X145531000Y-111425000D02*
X145531000Y-111990000D01*
X145491000Y-114070000D02*
X145491000Y-114683000D01*
X145491000Y-111377000D02*
X145491000Y-111990000D01*
X145451000Y-114070000D02*
X145451000Y-114729000D01*
X145451000Y-111331000D02*
X145451000Y-111990000D01*
X145411000Y-114070000D02*
X145411000Y-114773000D01*
X145411000Y-111287000D02*
X145411000Y-111990000D01*
X145371000Y-114070000D02*
X145371000Y-114815000D01*
X145371000Y-111245000D02*
X145371000Y-111990000D01*
X145331000Y-114070000D02*
X145331000Y-114856000D01*
X145331000Y-111204000D02*
X145331000Y-111990000D01*
X145291000Y-114070000D02*
X145291000Y-114894000D01*
X145291000Y-111166000D02*
X145291000Y-111990000D01*
X145251000Y-114070000D02*
X145251000Y-114931000D01*
X145251000Y-111129000D02*
X145251000Y-111990000D01*
X145211000Y-114070000D02*
X145211000Y-114967000D01*
X145211000Y-111093000D02*
X145211000Y-111990000D01*
X145171000Y-114070000D02*
X145171000Y-115001000D01*
X145171000Y-111059000D02*
X145171000Y-111990000D01*
X145131000Y-114070000D02*
X145131000Y-115034000D01*
X145131000Y-111026000D02*
X145131000Y-111990000D01*
X145091000Y-114070000D02*
X145091000Y-115065000D01*
X145091000Y-110995000D02*
X145091000Y-111990000D01*
X145051000Y-114070000D02*
X145051000Y-115095000D01*
X145051000Y-110965000D02*
X145051000Y-111990000D01*
X145011000Y-114070000D02*
X145011000Y-115125000D01*
X145011000Y-110935000D02*
X145011000Y-111990000D01*
X144971000Y-114070000D02*
X144971000Y-115152000D01*
X144971000Y-110908000D02*
X144971000Y-111990000D01*
X144931000Y-114070000D02*
X144931000Y-115179000D01*
X144931000Y-110881000D02*
X144931000Y-111990000D01*
X144891000Y-114070000D02*
X144891000Y-115205000D01*
X144891000Y-110855000D02*
X144891000Y-111990000D01*
X144851000Y-114070000D02*
X144851000Y-115230000D01*
X144851000Y-110830000D02*
X144851000Y-111990000D01*
X144811000Y-114070000D02*
X144811000Y-115254000D01*
X144811000Y-110806000D02*
X144811000Y-111990000D01*
X144771000Y-114070000D02*
X144771000Y-115277000D01*
X144771000Y-110783000D02*
X144771000Y-111990000D01*
X144731000Y-114070000D02*
X144731000Y-115298000D01*
X144731000Y-110762000D02*
X144731000Y-111990000D01*
X144691000Y-114070000D02*
X144691000Y-115320000D01*
X144691000Y-110740000D02*
X144691000Y-111990000D01*
X144651000Y-114070000D02*
X144651000Y-115340000D01*
X144651000Y-110720000D02*
X144651000Y-111990000D01*
X144611000Y-114070000D02*
X144611000Y-115359000D01*
X144611000Y-110701000D02*
X144611000Y-111990000D01*
X144571000Y-114070000D02*
X144571000Y-115378000D01*
X144571000Y-110682000D02*
X144571000Y-111990000D01*
X144531000Y-114070000D02*
X144531000Y-115395000D01*
X144531000Y-110665000D02*
X144531000Y-111990000D01*
X144491000Y-114070000D02*
X144491000Y-115412000D01*
X144491000Y-110648000D02*
X144491000Y-111990000D01*
X144451000Y-114070000D02*
X144451000Y-115428000D01*
X144451000Y-110632000D02*
X144451000Y-111990000D01*
X144411000Y-114070000D02*
X144411000Y-115444000D01*
X144411000Y-110616000D02*
X144411000Y-111990000D01*
X144371000Y-114070000D02*
X144371000Y-115458000D01*
X144371000Y-110602000D02*
X144371000Y-111990000D01*
X144331000Y-114070000D02*
X144331000Y-115472000D01*
X144331000Y-110588000D02*
X144331000Y-111990000D01*
X144291000Y-114070000D02*
X144291000Y-115485000D01*
X144291000Y-110575000D02*
X144291000Y-111990000D01*
X144251000Y-114070000D02*
X144251000Y-115498000D01*
X144251000Y-110562000D02*
X144251000Y-111990000D01*
X144211000Y-114070000D02*
X144211000Y-115510000D01*
X144211000Y-110550000D02*
X144211000Y-111990000D01*
X144170000Y-114070000D02*
X144170000Y-115521000D01*
X144170000Y-110539000D02*
X144170000Y-111990000D01*
X144130000Y-114070000D02*
X144130000Y-115531000D01*
X144130000Y-110529000D02*
X144130000Y-111990000D01*
X144090000Y-114070000D02*
X144090000Y-115541000D01*
X144090000Y-110519000D02*
X144090000Y-111990000D01*
X144050000Y-114070000D02*
X144050000Y-115550000D01*
X144050000Y-110510000D02*
X144050000Y-111990000D01*
X144010000Y-114070000D02*
X144010000Y-115558000D01*
X144010000Y-110502000D02*
X144010000Y-111990000D01*
X143970000Y-114070000D02*
X143970000Y-115566000D01*
X143970000Y-110494000D02*
X143970000Y-111990000D01*
X143930000Y-114070000D02*
X143930000Y-115573000D01*
X143930000Y-110487000D02*
X143930000Y-111990000D01*
X143890000Y-114070000D02*
X143890000Y-115580000D01*
X143890000Y-110480000D02*
X143890000Y-111990000D01*
X143850000Y-114070000D02*
X143850000Y-115586000D01*
X143850000Y-110474000D02*
X143850000Y-111990000D01*
X143810000Y-114070000D02*
X143810000Y-115591000D01*
X143810000Y-110469000D02*
X143810000Y-111990000D01*
X143770000Y-114070000D02*
X143770000Y-115595000D01*
X143770000Y-110465000D02*
X143770000Y-111990000D01*
X143730000Y-114070000D02*
X143730000Y-115599000D01*
X143730000Y-110461000D02*
X143730000Y-111990000D01*
X143690000Y-110457000D02*
X143690000Y-115603000D01*
X143650000Y-110454000D02*
X143650000Y-115606000D01*
X143610000Y-110452000D02*
X143610000Y-115608000D01*
X143570000Y-110451000D02*
X143570000Y-115609000D01*
X143530000Y-110450000D02*
X143530000Y-115610000D01*
X143490000Y-110450000D02*
X143490000Y-115610000D01*
X146110000Y-113030000D02*
G75*
G03*
X146110000Y-113030000I-2620000J0D01*
G01*
%TO.C,C1*%
X143475225Y-124005000D02*
X143475225Y-124505000D01*
X143225225Y-124255000D02*
X143725225Y-124255000D01*
X148631000Y-125446000D02*
X148631000Y-126014000D01*
X148591000Y-125212000D02*
X148591000Y-126248000D01*
X148551000Y-125053000D02*
X148551000Y-126407000D01*
X148511000Y-124925000D02*
X148511000Y-126535000D01*
X148471000Y-124815000D02*
X148471000Y-126645000D01*
X148431000Y-124719000D02*
X148431000Y-126741000D01*
X148391000Y-124632000D02*
X148391000Y-126828000D01*
X148351000Y-124552000D02*
X148351000Y-126908000D01*
X148311000Y-126770000D02*
X148311000Y-126981000D01*
X148311000Y-124479000D02*
X148311000Y-124690000D01*
X148271000Y-126770000D02*
X148271000Y-127049000D01*
X148271000Y-124411000D02*
X148271000Y-124690000D01*
X148231000Y-126770000D02*
X148231000Y-127113000D01*
X148231000Y-124347000D02*
X148231000Y-124690000D01*
X148191000Y-126770000D02*
X148191000Y-127173000D01*
X148191000Y-124287000D02*
X148191000Y-124690000D01*
X148151000Y-126770000D02*
X148151000Y-127230000D01*
X148151000Y-124230000D02*
X148151000Y-124690000D01*
X148111000Y-126770000D02*
X148111000Y-127284000D01*
X148111000Y-124176000D02*
X148111000Y-124690000D01*
X148071000Y-126770000D02*
X148071000Y-127335000D01*
X148071000Y-124125000D02*
X148071000Y-124690000D01*
X148031000Y-126770000D02*
X148031000Y-127383000D01*
X148031000Y-124077000D02*
X148031000Y-124690000D01*
X147991000Y-126770000D02*
X147991000Y-127429000D01*
X147991000Y-124031000D02*
X147991000Y-124690000D01*
X147951000Y-126770000D02*
X147951000Y-127473000D01*
X147951000Y-123987000D02*
X147951000Y-124690000D01*
X147911000Y-126770000D02*
X147911000Y-127515000D01*
X147911000Y-123945000D02*
X147911000Y-124690000D01*
X147871000Y-126770000D02*
X147871000Y-127556000D01*
X147871000Y-123904000D02*
X147871000Y-124690000D01*
X147831000Y-126770000D02*
X147831000Y-127594000D01*
X147831000Y-123866000D02*
X147831000Y-124690000D01*
X147791000Y-126770000D02*
X147791000Y-127631000D01*
X147791000Y-123829000D02*
X147791000Y-124690000D01*
X147751000Y-126770000D02*
X147751000Y-127667000D01*
X147751000Y-123793000D02*
X147751000Y-124690000D01*
X147711000Y-126770000D02*
X147711000Y-127701000D01*
X147711000Y-123759000D02*
X147711000Y-124690000D01*
X147671000Y-126770000D02*
X147671000Y-127734000D01*
X147671000Y-123726000D02*
X147671000Y-124690000D01*
X147631000Y-126770000D02*
X147631000Y-127765000D01*
X147631000Y-123695000D02*
X147631000Y-124690000D01*
X147591000Y-126770000D02*
X147591000Y-127795000D01*
X147591000Y-123665000D02*
X147591000Y-124690000D01*
X147551000Y-126770000D02*
X147551000Y-127825000D01*
X147551000Y-123635000D02*
X147551000Y-124690000D01*
X147511000Y-126770000D02*
X147511000Y-127852000D01*
X147511000Y-123608000D02*
X147511000Y-124690000D01*
X147471000Y-126770000D02*
X147471000Y-127879000D01*
X147471000Y-123581000D02*
X147471000Y-124690000D01*
X147431000Y-126770000D02*
X147431000Y-127905000D01*
X147431000Y-123555000D02*
X147431000Y-124690000D01*
X147391000Y-126770000D02*
X147391000Y-127930000D01*
X147391000Y-123530000D02*
X147391000Y-124690000D01*
X147351000Y-126770000D02*
X147351000Y-127954000D01*
X147351000Y-123506000D02*
X147351000Y-124690000D01*
X147311000Y-126770000D02*
X147311000Y-127977000D01*
X147311000Y-123483000D02*
X147311000Y-124690000D01*
X147271000Y-126770000D02*
X147271000Y-127998000D01*
X147271000Y-123462000D02*
X147271000Y-124690000D01*
X147231000Y-126770000D02*
X147231000Y-128020000D01*
X147231000Y-123440000D02*
X147231000Y-124690000D01*
X147191000Y-126770000D02*
X147191000Y-128040000D01*
X147191000Y-123420000D02*
X147191000Y-124690000D01*
X147151000Y-126770000D02*
X147151000Y-128059000D01*
X147151000Y-123401000D02*
X147151000Y-124690000D01*
X147111000Y-126770000D02*
X147111000Y-128078000D01*
X147111000Y-123382000D02*
X147111000Y-124690000D01*
X147071000Y-126770000D02*
X147071000Y-128095000D01*
X147071000Y-123365000D02*
X147071000Y-124690000D01*
X147031000Y-126770000D02*
X147031000Y-128112000D01*
X147031000Y-123348000D02*
X147031000Y-124690000D01*
X146991000Y-126770000D02*
X146991000Y-128128000D01*
X146991000Y-123332000D02*
X146991000Y-124690000D01*
X146951000Y-126770000D02*
X146951000Y-128144000D01*
X146951000Y-123316000D02*
X146951000Y-124690000D01*
X146911000Y-126770000D02*
X146911000Y-128158000D01*
X146911000Y-123302000D02*
X146911000Y-124690000D01*
X146871000Y-126770000D02*
X146871000Y-128172000D01*
X146871000Y-123288000D02*
X146871000Y-124690000D01*
X146831000Y-126770000D02*
X146831000Y-128185000D01*
X146831000Y-123275000D02*
X146831000Y-124690000D01*
X146791000Y-126770000D02*
X146791000Y-128198000D01*
X146791000Y-123262000D02*
X146791000Y-124690000D01*
X146751000Y-126770000D02*
X146751000Y-128210000D01*
X146751000Y-123250000D02*
X146751000Y-124690000D01*
X146710000Y-126770000D02*
X146710000Y-128221000D01*
X146710000Y-123239000D02*
X146710000Y-124690000D01*
X146670000Y-126770000D02*
X146670000Y-128231000D01*
X146670000Y-123229000D02*
X146670000Y-124690000D01*
X146630000Y-126770000D02*
X146630000Y-128241000D01*
X146630000Y-123219000D02*
X146630000Y-124690000D01*
X146590000Y-126770000D02*
X146590000Y-128250000D01*
X146590000Y-123210000D02*
X146590000Y-124690000D01*
X146550000Y-126770000D02*
X146550000Y-128258000D01*
X146550000Y-123202000D02*
X146550000Y-124690000D01*
X146510000Y-126770000D02*
X146510000Y-128266000D01*
X146510000Y-123194000D02*
X146510000Y-124690000D01*
X146470000Y-126770000D02*
X146470000Y-128273000D01*
X146470000Y-123187000D02*
X146470000Y-124690000D01*
X146430000Y-126770000D02*
X146430000Y-128280000D01*
X146430000Y-123180000D02*
X146430000Y-124690000D01*
X146390000Y-126770000D02*
X146390000Y-128286000D01*
X146390000Y-123174000D02*
X146390000Y-124690000D01*
X146350000Y-126770000D02*
X146350000Y-128291000D01*
X146350000Y-123169000D02*
X146350000Y-124690000D01*
X146310000Y-126770000D02*
X146310000Y-128295000D01*
X146310000Y-123165000D02*
X146310000Y-124690000D01*
X146270000Y-126770000D02*
X146270000Y-128299000D01*
X146270000Y-123161000D02*
X146270000Y-124690000D01*
X146230000Y-123157000D02*
X146230000Y-128303000D01*
X146190000Y-123154000D02*
X146190000Y-128306000D01*
X146150000Y-123152000D02*
X146150000Y-128308000D01*
X146110000Y-123151000D02*
X146110000Y-128309000D01*
X146070000Y-123150000D02*
X146070000Y-128310000D01*
X146030000Y-123150000D02*
X146030000Y-128310000D01*
X148650000Y-125730000D02*
G75*
G03*
X148650000Y-125730000I-2620000J0D01*
G01*
%TO.C,J1*%
X137100000Y-115570000D02*
X139760000Y-115570000D01*
X137100000Y-115570000D02*
X137100000Y-128330000D01*
X137100000Y-128330000D02*
X139760000Y-128330000D01*
X139760000Y-115570000D02*
X139760000Y-128330000D01*
X139760000Y-112970000D02*
X139760000Y-114300000D01*
X138430000Y-112970000D02*
X139760000Y-112970000D01*
%TO.C,J2*%
X152460000Y-123190000D02*
X149800000Y-123190000D01*
X152460000Y-123190000D02*
X152460000Y-112970000D01*
X152460000Y-112970000D02*
X149800000Y-112970000D01*
X149800000Y-123190000D02*
X149800000Y-112970000D01*
X149800000Y-125790000D02*
X149800000Y-124460000D01*
X151130000Y-125790000D02*
X149800000Y-125790000D01*
%TO.C,U1*%
D11*
X144018095Y-116509380D02*
X144018095Y-117318904D01*
X144065714Y-117414142D01*
X144113333Y-117461761D01*
X144208571Y-117509380D01*
X144399047Y-117509380D01*
X144494285Y-117461761D01*
X144541904Y-117414142D01*
X144589523Y-117318904D01*
X144589523Y-116509380D01*
X145589523Y-117509380D02*
X145018095Y-117509380D01*
X145303809Y-117509380D02*
X145303809Y-116509380D01*
X145208571Y-116652238D01*
X145113333Y-116747476D01*
X145018095Y-116795095D01*
%TO.C,L1*%
X136452380Y-121166666D02*
X136452380Y-121642857D01*
X135452380Y-121642857D01*
X136452380Y-120309523D02*
X136452380Y-120880952D01*
X136452380Y-120595238D02*
X135452380Y-120595238D01*
X135595238Y-120690476D01*
X135690476Y-120785714D01*
X135738095Y-120880952D01*
%TO.C,C3*%
X135833333Y-108357142D02*
X135785714Y-108404761D01*
X135642857Y-108452380D01*
X135547619Y-108452380D01*
X135404761Y-108404761D01*
X135309523Y-108309523D01*
X135261904Y-108214285D01*
X135214285Y-108023809D01*
X135214285Y-107880952D01*
X135261904Y-107690476D01*
X135309523Y-107595238D01*
X135404761Y-107500000D01*
X135547619Y-107452380D01*
X135642857Y-107452380D01*
X135785714Y-107500000D01*
X135833333Y-107547619D01*
X136166666Y-107452380D02*
X136785714Y-107452380D01*
X136452380Y-107833333D01*
X136595238Y-107833333D01*
X136690476Y-107880952D01*
X136738095Y-107928571D01*
X136785714Y-108023809D01*
X136785714Y-108261904D01*
X136738095Y-108357142D01*
X136690476Y-108404761D01*
X136595238Y-108452380D01*
X136309523Y-108452380D01*
X136214285Y-108404761D01*
X136166666Y-108357142D01*
%TO.C,C2*%
X143323333Y-109637142D02*
X143275714Y-109684761D01*
X143132857Y-109732380D01*
X143037619Y-109732380D01*
X142894761Y-109684761D01*
X142799523Y-109589523D01*
X142751904Y-109494285D01*
X142704285Y-109303809D01*
X142704285Y-109160952D01*
X142751904Y-108970476D01*
X142799523Y-108875238D01*
X142894761Y-108780000D01*
X143037619Y-108732380D01*
X143132857Y-108732380D01*
X143275714Y-108780000D01*
X143323333Y-108827619D01*
X143704285Y-108827619D02*
X143751904Y-108780000D01*
X143847142Y-108732380D01*
X144085238Y-108732380D01*
X144180476Y-108780000D01*
X144228095Y-108827619D01*
X144275714Y-108922857D01*
X144275714Y-109018095D01*
X144228095Y-109160952D01*
X143656666Y-109732380D01*
X144275714Y-109732380D01*
%TO.C,C1*%
X145863333Y-122337142D02*
X145815714Y-122384761D01*
X145672857Y-122432380D01*
X145577619Y-122432380D01*
X145434761Y-122384761D01*
X145339523Y-122289523D01*
X145291904Y-122194285D01*
X145244285Y-122003809D01*
X145244285Y-121860952D01*
X145291904Y-121670476D01*
X145339523Y-121575238D01*
X145434761Y-121480000D01*
X145577619Y-121432380D01*
X145672857Y-121432380D01*
X145815714Y-121480000D01*
X145863333Y-121527619D01*
X146815714Y-122432380D02*
X146244285Y-122432380D01*
X146530000Y-122432380D02*
X146530000Y-121432380D01*
X146434761Y-121575238D01*
X146339523Y-121670476D01*
X146244285Y-121718095D01*
%TO.C,J1*%
X138096666Y-110982380D02*
X138096666Y-111696666D01*
X138049047Y-111839523D01*
X137953809Y-111934761D01*
X137810952Y-111982380D01*
X137715714Y-111982380D01*
X139096666Y-111982380D02*
X138525238Y-111982380D01*
X138810952Y-111982380D02*
X138810952Y-110982380D01*
X138715714Y-111125238D01*
X138620476Y-111220476D01*
X138525238Y-111268095D01*
%TO.C,J2*%
X150666666Y-126452380D02*
X150666666Y-127166666D01*
X150619047Y-127309523D01*
X150523809Y-127404761D01*
X150380952Y-127452380D01*
X150285714Y-127452380D01*
X151095238Y-126547619D02*
X151142857Y-126500000D01*
X151238095Y-126452380D01*
X151476190Y-126452380D01*
X151571428Y-126500000D01*
X151619047Y-126547619D01*
X151666666Y-126642857D01*
X151666666Y-126738095D01*
X151619047Y-126880952D01*
X151047619Y-127452380D01*
X151666666Y-127452380D01*
%TD*%
M02*
