%TF.GenerationSoftware,KiCad,Pcbnew,(5.1.10)-1*%
%TF.CreationDate,2021-09-09T15:03:09-05:00*%
%TF.ProjectId,BoostRegulatorBreakoutPCB,426f6f73-7452-4656-9775-6c61746f7242,00*%
%TF.SameCoordinates,Original*%
%TF.FileFunction,Paste,Top*%
%TF.FilePolarity,Positive*%
%FSLAX46Y46*%
G04 Gerber Fmt 4.6, Leading zero omitted, Abs format (unit mm)*
G04 Created by KiCad (PCBNEW (5.1.10)-1) date 2021-09-09 15:03:09*
%MOMM*%
%LPD*%
G01*
G04 APERTURE LIST*
G04 APERTURE END LIST*
%TO.C,U1*%
G36*
G01*
X144860000Y-120464500D02*
X144860000Y-119799500D01*
G75*
G02*
X145032500Y-119627000I172500J0D01*
G01*
X145377500Y-119627000D01*
G75*
G02*
X145550000Y-119799500I0J-172500D01*
G01*
X145550000Y-120464500D01*
G75*
G02*
X145377500Y-120637000I-172500J0D01*
G01*
X145032500Y-120637000D01*
G75*
G02*
X144860000Y-120464500I0J172500D01*
G01*
G37*
G36*
G01*
X144860000Y-119214500D02*
X144860000Y-118549500D01*
G75*
G02*
X145032500Y-118377000I172500J0D01*
G01*
X145377500Y-118377000D01*
G75*
G02*
X145550000Y-118549500I0J-172500D01*
G01*
X145550000Y-119214500D01*
G75*
G02*
X145377500Y-119387000I-172500J0D01*
G01*
X145032500Y-119387000D01*
G75*
G02*
X144860000Y-119214500I0J172500D01*
G01*
G37*
G36*
G01*
X144010000Y-120464500D02*
X144010000Y-119799500D01*
G75*
G02*
X144182500Y-119627000I172500J0D01*
G01*
X144527500Y-119627000D01*
G75*
G02*
X144700000Y-119799500I0J-172500D01*
G01*
X144700000Y-120464500D01*
G75*
G02*
X144527500Y-120637000I-172500J0D01*
G01*
X144182500Y-120637000D01*
G75*
G02*
X144010000Y-120464500I0J172500D01*
G01*
G37*
G36*
G01*
X144010000Y-119214500D02*
X144010000Y-118549500D01*
G75*
G02*
X144182500Y-118377000I172500J0D01*
G01*
X144527500Y-118377000D01*
G75*
G02*
X144700000Y-118549500I0J-172500D01*
G01*
X144700000Y-119214500D01*
G75*
G02*
X144527500Y-119387000I-172500J0D01*
G01*
X144182500Y-119387000D01*
G75*
G02*
X144010000Y-119214500I0J172500D01*
G01*
G37*
G36*
G01*
X145830000Y-118569500D02*
X145830000Y-118444500D01*
G75*
G02*
X145892500Y-118382000I62500J0D01*
G01*
X146967500Y-118382000D01*
G75*
G02*
X147030000Y-118444500I0J-62500D01*
G01*
X147030000Y-118569500D01*
G75*
G02*
X146967500Y-118632000I-62500J0D01*
G01*
X145892500Y-118632000D01*
G75*
G02*
X145830000Y-118569500I0J62500D01*
G01*
G37*
G36*
G01*
X145830000Y-119069500D02*
X145830000Y-118944500D01*
G75*
G02*
X145892500Y-118882000I62500J0D01*
G01*
X146967500Y-118882000D01*
G75*
G02*
X147030000Y-118944500I0J-62500D01*
G01*
X147030000Y-119069500D01*
G75*
G02*
X146967500Y-119132000I-62500J0D01*
G01*
X145892500Y-119132000D01*
G75*
G02*
X145830000Y-119069500I0J62500D01*
G01*
G37*
G36*
G01*
X145830000Y-119569500D02*
X145830000Y-119444500D01*
G75*
G02*
X145892500Y-119382000I62500J0D01*
G01*
X146967500Y-119382000D01*
G75*
G02*
X147030000Y-119444500I0J-62500D01*
G01*
X147030000Y-119569500D01*
G75*
G02*
X146967500Y-119632000I-62500J0D01*
G01*
X145892500Y-119632000D01*
G75*
G02*
X145830000Y-119569500I0J62500D01*
G01*
G37*
G36*
G01*
X145830000Y-120069500D02*
X145830000Y-119944500D01*
G75*
G02*
X145892500Y-119882000I62500J0D01*
G01*
X146967500Y-119882000D01*
G75*
G02*
X147030000Y-119944500I0J-62500D01*
G01*
X147030000Y-120069500D01*
G75*
G02*
X146967500Y-120132000I-62500J0D01*
G01*
X145892500Y-120132000D01*
G75*
G02*
X145830000Y-120069500I0J62500D01*
G01*
G37*
G36*
G01*
X145830000Y-120569500D02*
X145830000Y-120444500D01*
G75*
G02*
X145892500Y-120382000I62500J0D01*
G01*
X146967500Y-120382000D01*
G75*
G02*
X147030000Y-120444500I0J-62500D01*
G01*
X147030000Y-120569500D01*
G75*
G02*
X146967500Y-120632000I-62500J0D01*
G01*
X145892500Y-120632000D01*
G75*
G02*
X145830000Y-120569500I0J62500D01*
G01*
G37*
G36*
G01*
X142530000Y-120569500D02*
X142530000Y-120444500D01*
G75*
G02*
X142592500Y-120382000I62500J0D01*
G01*
X143667500Y-120382000D01*
G75*
G02*
X143730000Y-120444500I0J-62500D01*
G01*
X143730000Y-120569500D01*
G75*
G02*
X143667500Y-120632000I-62500J0D01*
G01*
X142592500Y-120632000D01*
G75*
G02*
X142530000Y-120569500I0J62500D01*
G01*
G37*
G36*
G01*
X142530000Y-120069500D02*
X142530000Y-119944500D01*
G75*
G02*
X142592500Y-119882000I62500J0D01*
G01*
X143667500Y-119882000D01*
G75*
G02*
X143730000Y-119944500I0J-62500D01*
G01*
X143730000Y-120069500D01*
G75*
G02*
X143667500Y-120132000I-62500J0D01*
G01*
X142592500Y-120132000D01*
G75*
G02*
X142530000Y-120069500I0J62500D01*
G01*
G37*
G36*
G01*
X142530000Y-119569500D02*
X142530000Y-119444500D01*
G75*
G02*
X142592500Y-119382000I62500J0D01*
G01*
X143667500Y-119382000D01*
G75*
G02*
X143730000Y-119444500I0J-62500D01*
G01*
X143730000Y-119569500D01*
G75*
G02*
X143667500Y-119632000I-62500J0D01*
G01*
X142592500Y-119632000D01*
G75*
G02*
X142530000Y-119569500I0J62500D01*
G01*
G37*
G36*
G01*
X142530000Y-119069500D02*
X142530000Y-118944500D01*
G75*
G02*
X142592500Y-118882000I62500J0D01*
G01*
X143667500Y-118882000D01*
G75*
G02*
X143730000Y-118944500I0J-62500D01*
G01*
X143730000Y-119069500D01*
G75*
G02*
X143667500Y-119132000I-62500J0D01*
G01*
X142592500Y-119132000D01*
G75*
G02*
X142530000Y-119069500I0J62500D01*
G01*
G37*
G36*
G01*
X142530000Y-118569500D02*
X142530000Y-118444500D01*
G75*
G02*
X142592500Y-118382000I62500J0D01*
G01*
X143667500Y-118382000D01*
G75*
G02*
X143730000Y-118444500I0J-62500D01*
G01*
X143730000Y-118569500D01*
G75*
G02*
X143667500Y-118632000I-62500J0D01*
G01*
X142592500Y-118632000D01*
G75*
G02*
X142530000Y-118569500I0J62500D01*
G01*
G37*
%TD*%
M02*
