%TF.GenerationSoftware,KiCad,Pcbnew,(5.1.10)-1*%
%TF.CreationDate,2021-09-09T15:03:09-05:00*%
%TF.ProjectId,BoostRegulatorBreakoutPCB,426f6f73-7452-4656-9775-6c61746f7242,00*%
%TF.SameCoordinates,Original*%
%TF.FileFunction,Copper,L2,Bot*%
%TF.FilePolarity,Positive*%
%FSLAX46Y46*%
G04 Gerber Fmt 4.6, Leading zero omitted, Abs format (unit mm)*
G04 Created by KiCad (PCBNEW (5.1.10)-1) date 2021-09-09 15:03:09*
%MOMM*%
%LPD*%
G01*
G04 APERTURE LIST*
%TA.AperFunction,ComponentPad*%
%ADD10O,1.600000X1.600000*%
%TD*%
%TA.AperFunction,ComponentPad*%
%ADD11C,1.600000*%
%TD*%
%TA.AperFunction,ComponentPad*%
%ADD12R,1.600000X1.600000*%
%TD*%
%TA.AperFunction,ComponentPad*%
%ADD13O,1.700000X1.700000*%
%TD*%
%TA.AperFunction,ComponentPad*%
%ADD14R,1.700000X1.700000*%
%TD*%
%TA.AperFunction,ViaPad*%
%ADD15C,0.800000*%
%TD*%
%TA.AperFunction,Conductor*%
%ADD16C,0.254000*%
%TD*%
%TA.AperFunction,Conductor*%
%ADD17C,0.100000*%
%TD*%
G04 APERTURE END LIST*
D10*
%TO.P,L1,2*%
%TO.N,Net-(J1-Pad3)*%
X133350000Y-115730000D03*
D11*
%TO.P,L1,1*%
%TO.N,Net-(C1-Pad1)*%
X133350000Y-125730000D03*
%TD*%
%TO.P,C3,2*%
%TO.N,GND*%
X134580000Y-110490000D03*
D12*
%TO.P,C3,1*%
%TO.N,Net-(C3-Pad1)*%
X132080000Y-110490000D03*
%TD*%
D11*
%TO.P,C2,2*%
%TO.N,GND*%
X144740000Y-113030000D03*
D12*
%TO.P,C2,1*%
%TO.N,Net-(C2-Pad1)*%
X142240000Y-113030000D03*
%TD*%
D11*
%TO.P,C1,2*%
%TO.N,GND*%
X147280000Y-125730000D03*
D12*
%TO.P,C1,1*%
%TO.N,Net-(C1-Pad1)*%
X144780000Y-125730000D03*
%TD*%
D13*
%TO.P,J1,6*%
%TO.N,Net-(J1-Pad6)*%
X138430000Y-127000000D03*
%TO.P,J1,5*%
%TO.N,Net-(C1-Pad1)*%
X138430000Y-124460000D03*
%TO.P,J1,4*%
%TO.N,GND*%
X138430000Y-121920000D03*
%TO.P,J1,3*%
%TO.N,Net-(J1-Pad3)*%
X138430000Y-119380000D03*
%TO.P,J1,2*%
%TO.N,Net-(C3-Pad1)*%
X138430000Y-116840000D03*
D14*
%TO.P,J1,1*%
%TO.N,Net-(C2-Pad1)*%
X138430000Y-114300000D03*
%TD*%
D13*
%TO.P,J2,5*%
%TO.N,Net-(J2-Pad5)*%
X151130000Y-114300000D03*
%TO.P,J2,4*%
%TO.N,Net-(J2-Pad4)*%
X151130000Y-116840000D03*
%TO.P,J2,3*%
%TO.N,GND*%
X151130000Y-119380000D03*
%TO.P,J2,2*%
%TO.N,Net-(J2-Pad2)*%
X151130000Y-121920000D03*
D14*
%TO.P,J2,1*%
%TO.N,Net-(J2-Pad1)*%
X151130000Y-124460000D03*
%TD*%
D15*
%TO.N,GND*%
X149000000Y-109000000D03*
X144610001Y-109389999D03*
X138510000Y-110490000D03*
X134000000Y-120000000D03*
X132000000Y-128000000D03*
X152000000Y-128000000D03*
X147000000Y-114000000D03*
X152000000Y-109000000D03*
X139000000Y-108000000D03*
X143000000Y-116000000D03*
X147000000Y-122000000D03*
X142000000Y-127000000D03*
X136000000Y-123000000D03*
X141000000Y-121000000D03*
X132000000Y-124000000D03*
X151000000Y-111000000D03*
X135890000Y-115570000D03*
%TD*%
D16*
%TO.N,GND*%
X153340000Y-108032418D02*
X153340001Y-108032428D01*
X153340000Y-129340000D01*
X130660000Y-129340000D01*
X130660000Y-125588665D01*
X131915000Y-125588665D01*
X131915000Y-125871335D01*
X131970147Y-126148574D01*
X132078320Y-126409727D01*
X132235363Y-126644759D01*
X132435241Y-126844637D01*
X132670273Y-127001680D01*
X132931426Y-127109853D01*
X133208665Y-127165000D01*
X133491335Y-127165000D01*
X133768574Y-127109853D01*
X134029727Y-127001680D01*
X134264759Y-126844637D01*
X134464637Y-126644759D01*
X134621680Y-126409727D01*
X134729853Y-126148574D01*
X134785000Y-125871335D01*
X134785000Y-125588665D01*
X134729853Y-125311426D01*
X134621680Y-125050273D01*
X134464637Y-124815241D01*
X134264759Y-124615363D01*
X134029727Y-124458320D01*
X133768574Y-124350147D01*
X133585547Y-124313740D01*
X136945000Y-124313740D01*
X136945000Y-124606260D01*
X137002068Y-124893158D01*
X137114010Y-125163411D01*
X137276525Y-125406632D01*
X137483368Y-125613475D01*
X137657760Y-125730000D01*
X137483368Y-125846525D01*
X137276525Y-126053368D01*
X137114010Y-126296589D01*
X137002068Y-126566842D01*
X136945000Y-126853740D01*
X136945000Y-127146260D01*
X137002068Y-127433158D01*
X137114010Y-127703411D01*
X137276525Y-127946632D01*
X137483368Y-128153475D01*
X137726589Y-128315990D01*
X137996842Y-128427932D01*
X138283740Y-128485000D01*
X138576260Y-128485000D01*
X138863158Y-128427932D01*
X139133411Y-128315990D01*
X139376632Y-128153475D01*
X139583475Y-127946632D01*
X139745990Y-127703411D01*
X139857932Y-127433158D01*
X139915000Y-127146260D01*
X139915000Y-126853740D01*
X139857932Y-126566842D01*
X139745990Y-126296589D01*
X139583475Y-126053368D01*
X139376632Y-125846525D01*
X139202240Y-125730000D01*
X139376632Y-125613475D01*
X139583475Y-125406632D01*
X139745990Y-125163411D01*
X139842671Y-124930000D01*
X143341928Y-124930000D01*
X143341928Y-126530000D01*
X143354188Y-126654482D01*
X143390498Y-126774180D01*
X143449463Y-126884494D01*
X143528815Y-126981185D01*
X143625506Y-127060537D01*
X143735820Y-127119502D01*
X143855518Y-127155812D01*
X143980000Y-127168072D01*
X145580000Y-127168072D01*
X145704482Y-127155812D01*
X145824180Y-127119502D01*
X145934494Y-127060537D01*
X146031185Y-126981185D01*
X146110537Y-126884494D01*
X146169502Y-126774180D01*
X146185117Y-126722702D01*
X146466903Y-126722702D01*
X146538486Y-126966671D01*
X146793996Y-127087571D01*
X147068184Y-127156300D01*
X147350512Y-127170217D01*
X147630130Y-127128787D01*
X147896292Y-127033603D01*
X148021514Y-126966671D01*
X148093097Y-126722702D01*
X147280000Y-125909605D01*
X146466903Y-126722702D01*
X146185117Y-126722702D01*
X146205812Y-126654482D01*
X146218072Y-126530000D01*
X146218072Y-126522785D01*
X146287298Y-126543097D01*
X147100395Y-125730000D01*
X147459605Y-125730000D01*
X148272702Y-126543097D01*
X148516671Y-126471514D01*
X148637571Y-126216004D01*
X148706300Y-125941816D01*
X148720217Y-125659488D01*
X148678787Y-125379870D01*
X148583603Y-125113708D01*
X148516671Y-124988486D01*
X148272702Y-124916903D01*
X147459605Y-125730000D01*
X147100395Y-125730000D01*
X146287298Y-124916903D01*
X146218072Y-124937215D01*
X146218072Y-124930000D01*
X146205812Y-124805518D01*
X146185118Y-124737298D01*
X146466903Y-124737298D01*
X147280000Y-125550395D01*
X148093097Y-124737298D01*
X148021514Y-124493329D01*
X147766004Y-124372429D01*
X147491816Y-124303700D01*
X147209488Y-124289783D01*
X146929870Y-124331213D01*
X146663708Y-124426397D01*
X146538486Y-124493329D01*
X146466903Y-124737298D01*
X146185118Y-124737298D01*
X146169502Y-124685820D01*
X146110537Y-124575506D01*
X146031185Y-124478815D01*
X145934494Y-124399463D01*
X145824180Y-124340498D01*
X145704482Y-124304188D01*
X145580000Y-124291928D01*
X143980000Y-124291928D01*
X143855518Y-124304188D01*
X143735820Y-124340498D01*
X143625506Y-124399463D01*
X143528815Y-124478815D01*
X143449463Y-124575506D01*
X143390498Y-124685820D01*
X143354188Y-124805518D01*
X143341928Y-124930000D01*
X139842671Y-124930000D01*
X139857932Y-124893158D01*
X139915000Y-124606260D01*
X139915000Y-124313740D01*
X139857932Y-124026842D01*
X139745990Y-123756589D01*
X139648043Y-123610000D01*
X149641928Y-123610000D01*
X149641928Y-125310000D01*
X149654188Y-125434482D01*
X149690498Y-125554180D01*
X149749463Y-125664494D01*
X149828815Y-125761185D01*
X149925506Y-125840537D01*
X150035820Y-125899502D01*
X150155518Y-125935812D01*
X150280000Y-125948072D01*
X151980000Y-125948072D01*
X152104482Y-125935812D01*
X152224180Y-125899502D01*
X152334494Y-125840537D01*
X152431185Y-125761185D01*
X152510537Y-125664494D01*
X152569502Y-125554180D01*
X152605812Y-125434482D01*
X152618072Y-125310000D01*
X152618072Y-123610000D01*
X152605812Y-123485518D01*
X152569502Y-123365820D01*
X152510537Y-123255506D01*
X152431185Y-123158815D01*
X152334494Y-123079463D01*
X152224180Y-123020498D01*
X152151620Y-122998487D01*
X152283475Y-122866632D01*
X152445990Y-122623411D01*
X152557932Y-122353158D01*
X152615000Y-122066260D01*
X152615000Y-121773740D01*
X152557932Y-121486842D01*
X152445990Y-121216589D01*
X152283475Y-120973368D01*
X152076632Y-120766525D01*
X151894466Y-120644805D01*
X152011355Y-120575178D01*
X152227588Y-120380269D01*
X152401641Y-120146920D01*
X152526825Y-119884099D01*
X152571476Y-119736890D01*
X152450155Y-119507000D01*
X151257000Y-119507000D01*
X151257000Y-119527000D01*
X151003000Y-119527000D01*
X151003000Y-119507000D01*
X149809845Y-119507000D01*
X149688524Y-119736890D01*
X149733175Y-119884099D01*
X149858359Y-120146920D01*
X150032412Y-120380269D01*
X150248645Y-120575178D01*
X150365534Y-120644805D01*
X150183368Y-120766525D01*
X149976525Y-120973368D01*
X149814010Y-121216589D01*
X149702068Y-121486842D01*
X149645000Y-121773740D01*
X149645000Y-122066260D01*
X149702068Y-122353158D01*
X149814010Y-122623411D01*
X149976525Y-122866632D01*
X150108380Y-122998487D01*
X150035820Y-123020498D01*
X149925506Y-123079463D01*
X149828815Y-123158815D01*
X149749463Y-123255506D01*
X149690498Y-123365820D01*
X149654188Y-123485518D01*
X149641928Y-123610000D01*
X139648043Y-123610000D01*
X139583475Y-123513368D01*
X139376632Y-123306525D01*
X139194466Y-123184805D01*
X139311355Y-123115178D01*
X139527588Y-122920269D01*
X139701641Y-122686920D01*
X139826825Y-122424099D01*
X139871476Y-122276890D01*
X139750155Y-122047000D01*
X138557000Y-122047000D01*
X138557000Y-122067000D01*
X138303000Y-122067000D01*
X138303000Y-122047000D01*
X137109845Y-122047000D01*
X136988524Y-122276890D01*
X137033175Y-122424099D01*
X137158359Y-122686920D01*
X137332412Y-122920269D01*
X137548645Y-123115178D01*
X137665534Y-123184805D01*
X137483368Y-123306525D01*
X137276525Y-123513368D01*
X137114010Y-123756589D01*
X137002068Y-124026842D01*
X136945000Y-124313740D01*
X133585547Y-124313740D01*
X133491335Y-124295000D01*
X133208665Y-124295000D01*
X132931426Y-124350147D01*
X132670273Y-124458320D01*
X132435241Y-124615363D01*
X132235363Y-124815241D01*
X132078320Y-125050273D01*
X131970147Y-125311426D01*
X131915000Y-125588665D01*
X130660000Y-125588665D01*
X130660000Y-115588665D01*
X131915000Y-115588665D01*
X131915000Y-115871335D01*
X131970147Y-116148574D01*
X132078320Y-116409727D01*
X132235363Y-116644759D01*
X132435241Y-116844637D01*
X132670273Y-117001680D01*
X132931426Y-117109853D01*
X133208665Y-117165000D01*
X133491335Y-117165000D01*
X133768574Y-117109853D01*
X134029727Y-117001680D01*
X134264759Y-116844637D01*
X134464637Y-116644759D01*
X134621680Y-116409727D01*
X134729853Y-116148574D01*
X134785000Y-115871335D01*
X134785000Y-115588665D01*
X134729853Y-115311426D01*
X134621680Y-115050273D01*
X134464637Y-114815241D01*
X134264759Y-114615363D01*
X134029727Y-114458320D01*
X133768574Y-114350147D01*
X133491335Y-114295000D01*
X133208665Y-114295000D01*
X132931426Y-114350147D01*
X132670273Y-114458320D01*
X132435241Y-114615363D01*
X132235363Y-114815241D01*
X132078320Y-115050273D01*
X131970147Y-115311426D01*
X131915000Y-115588665D01*
X130660000Y-115588665D01*
X130660000Y-113450000D01*
X136941928Y-113450000D01*
X136941928Y-115150000D01*
X136954188Y-115274482D01*
X136990498Y-115394180D01*
X137049463Y-115504494D01*
X137128815Y-115601185D01*
X137225506Y-115680537D01*
X137335820Y-115739502D01*
X137408380Y-115761513D01*
X137276525Y-115893368D01*
X137114010Y-116136589D01*
X137002068Y-116406842D01*
X136945000Y-116693740D01*
X136945000Y-116986260D01*
X137002068Y-117273158D01*
X137114010Y-117543411D01*
X137276525Y-117786632D01*
X137483368Y-117993475D01*
X137657760Y-118110000D01*
X137483368Y-118226525D01*
X137276525Y-118433368D01*
X137114010Y-118676589D01*
X137002068Y-118946842D01*
X136945000Y-119233740D01*
X136945000Y-119526260D01*
X137002068Y-119813158D01*
X137114010Y-120083411D01*
X137276525Y-120326632D01*
X137483368Y-120533475D01*
X137665534Y-120655195D01*
X137548645Y-120724822D01*
X137332412Y-120919731D01*
X137158359Y-121153080D01*
X137033175Y-121415901D01*
X136988524Y-121563110D01*
X137109845Y-121793000D01*
X138303000Y-121793000D01*
X138303000Y-121773000D01*
X138557000Y-121773000D01*
X138557000Y-121793000D01*
X139750155Y-121793000D01*
X139871476Y-121563110D01*
X139826825Y-121415901D01*
X139701641Y-121153080D01*
X139527588Y-120919731D01*
X139311355Y-120724822D01*
X139194466Y-120655195D01*
X139376632Y-120533475D01*
X139583475Y-120326632D01*
X139745990Y-120083411D01*
X139857932Y-119813158D01*
X139915000Y-119526260D01*
X139915000Y-119233740D01*
X139857932Y-118946842D01*
X139745990Y-118676589D01*
X139583475Y-118433368D01*
X139376632Y-118226525D01*
X139202240Y-118110000D01*
X139376632Y-117993475D01*
X139583475Y-117786632D01*
X139745990Y-117543411D01*
X139857932Y-117273158D01*
X139915000Y-116986260D01*
X139915000Y-116693740D01*
X139857932Y-116406842D01*
X139745990Y-116136589D01*
X139583475Y-115893368D01*
X139451620Y-115761513D01*
X139524180Y-115739502D01*
X139634494Y-115680537D01*
X139731185Y-115601185D01*
X139810537Y-115504494D01*
X139869502Y-115394180D01*
X139905812Y-115274482D01*
X139918072Y-115150000D01*
X139918072Y-113450000D01*
X139905812Y-113325518D01*
X139869502Y-113205820D01*
X139810537Y-113095506D01*
X139731185Y-112998815D01*
X139634494Y-112919463D01*
X139524180Y-112860498D01*
X139404482Y-112824188D01*
X139280000Y-112811928D01*
X137580000Y-112811928D01*
X137455518Y-112824188D01*
X137335820Y-112860498D01*
X137225506Y-112919463D01*
X137128815Y-112998815D01*
X137049463Y-113095506D01*
X136990498Y-113205820D01*
X136954188Y-113325518D01*
X136941928Y-113450000D01*
X130660000Y-113450000D01*
X130660000Y-112230000D01*
X140801928Y-112230000D01*
X140801928Y-113830000D01*
X140814188Y-113954482D01*
X140850498Y-114074180D01*
X140909463Y-114184494D01*
X140988815Y-114281185D01*
X141085506Y-114360537D01*
X141195820Y-114419502D01*
X141315518Y-114455812D01*
X141440000Y-114468072D01*
X143040000Y-114468072D01*
X143164482Y-114455812D01*
X143284180Y-114419502D01*
X143394494Y-114360537D01*
X143491185Y-114281185D01*
X143570537Y-114184494D01*
X143629502Y-114074180D01*
X143645117Y-114022702D01*
X143926903Y-114022702D01*
X143998486Y-114266671D01*
X144253996Y-114387571D01*
X144528184Y-114456300D01*
X144810512Y-114470217D01*
X145090130Y-114428787D01*
X145356292Y-114333603D01*
X145481514Y-114266671D01*
X145514649Y-114153740D01*
X149645000Y-114153740D01*
X149645000Y-114446260D01*
X149702068Y-114733158D01*
X149814010Y-115003411D01*
X149976525Y-115246632D01*
X150183368Y-115453475D01*
X150357760Y-115570000D01*
X150183368Y-115686525D01*
X149976525Y-115893368D01*
X149814010Y-116136589D01*
X149702068Y-116406842D01*
X149645000Y-116693740D01*
X149645000Y-116986260D01*
X149702068Y-117273158D01*
X149814010Y-117543411D01*
X149976525Y-117786632D01*
X150183368Y-117993475D01*
X150365534Y-118115195D01*
X150248645Y-118184822D01*
X150032412Y-118379731D01*
X149858359Y-118613080D01*
X149733175Y-118875901D01*
X149688524Y-119023110D01*
X149809845Y-119253000D01*
X151003000Y-119253000D01*
X151003000Y-119233000D01*
X151257000Y-119233000D01*
X151257000Y-119253000D01*
X152450155Y-119253000D01*
X152571476Y-119023110D01*
X152526825Y-118875901D01*
X152401641Y-118613080D01*
X152227588Y-118379731D01*
X152011355Y-118184822D01*
X151894466Y-118115195D01*
X152076632Y-117993475D01*
X152283475Y-117786632D01*
X152445990Y-117543411D01*
X152557932Y-117273158D01*
X152615000Y-116986260D01*
X152615000Y-116693740D01*
X152557932Y-116406842D01*
X152445990Y-116136589D01*
X152283475Y-115893368D01*
X152076632Y-115686525D01*
X151902240Y-115570000D01*
X152076632Y-115453475D01*
X152283475Y-115246632D01*
X152445990Y-115003411D01*
X152557932Y-114733158D01*
X152615000Y-114446260D01*
X152615000Y-114153740D01*
X152557932Y-113866842D01*
X152445990Y-113596589D01*
X152283475Y-113353368D01*
X152076632Y-113146525D01*
X151833411Y-112984010D01*
X151563158Y-112872068D01*
X151276260Y-112815000D01*
X150983740Y-112815000D01*
X150696842Y-112872068D01*
X150426589Y-112984010D01*
X150183368Y-113146525D01*
X149976525Y-113353368D01*
X149814010Y-113596589D01*
X149702068Y-113866842D01*
X149645000Y-114153740D01*
X145514649Y-114153740D01*
X145553097Y-114022702D01*
X144740000Y-113209605D01*
X143926903Y-114022702D01*
X143645117Y-114022702D01*
X143665812Y-113954482D01*
X143678072Y-113830000D01*
X143678072Y-113822785D01*
X143747298Y-113843097D01*
X144560395Y-113030000D01*
X144919605Y-113030000D01*
X145732702Y-113843097D01*
X145976671Y-113771514D01*
X146097571Y-113516004D01*
X146166300Y-113241816D01*
X146180217Y-112959488D01*
X146138787Y-112679870D01*
X146043603Y-112413708D01*
X145976671Y-112288486D01*
X145732702Y-112216903D01*
X144919605Y-113030000D01*
X144560395Y-113030000D01*
X143747298Y-112216903D01*
X143678072Y-112237215D01*
X143678072Y-112230000D01*
X143665812Y-112105518D01*
X143645118Y-112037298D01*
X143926903Y-112037298D01*
X144740000Y-112850395D01*
X145553097Y-112037298D01*
X145481514Y-111793329D01*
X145226004Y-111672429D01*
X144951816Y-111603700D01*
X144669488Y-111589783D01*
X144389870Y-111631213D01*
X144123708Y-111726397D01*
X143998486Y-111793329D01*
X143926903Y-112037298D01*
X143645118Y-112037298D01*
X143629502Y-111985820D01*
X143570537Y-111875506D01*
X143491185Y-111778815D01*
X143394494Y-111699463D01*
X143284180Y-111640498D01*
X143164482Y-111604188D01*
X143040000Y-111591928D01*
X141440000Y-111591928D01*
X141315518Y-111604188D01*
X141195820Y-111640498D01*
X141085506Y-111699463D01*
X140988815Y-111778815D01*
X140909463Y-111875506D01*
X140850498Y-111985820D01*
X140814188Y-112105518D01*
X140801928Y-112230000D01*
X130660000Y-112230000D01*
X130660000Y-111433642D01*
X130690498Y-111534180D01*
X130749463Y-111644494D01*
X130828815Y-111741185D01*
X130925506Y-111820537D01*
X131035820Y-111879502D01*
X131155518Y-111915812D01*
X131280000Y-111928072D01*
X132880000Y-111928072D01*
X133004482Y-111915812D01*
X133124180Y-111879502D01*
X133234494Y-111820537D01*
X133331185Y-111741185D01*
X133410537Y-111644494D01*
X133469502Y-111534180D01*
X133485117Y-111482702D01*
X133766903Y-111482702D01*
X133838486Y-111726671D01*
X134093996Y-111847571D01*
X134368184Y-111916300D01*
X134650512Y-111930217D01*
X134930130Y-111888787D01*
X135196292Y-111793603D01*
X135321514Y-111726671D01*
X135393097Y-111482702D01*
X134580000Y-110669605D01*
X133766903Y-111482702D01*
X133485117Y-111482702D01*
X133505812Y-111414482D01*
X133518072Y-111290000D01*
X133518072Y-111282785D01*
X133587298Y-111303097D01*
X134400395Y-110490000D01*
X134759605Y-110490000D01*
X135572702Y-111303097D01*
X135816671Y-111231514D01*
X135937571Y-110976004D01*
X136006300Y-110701816D01*
X136020217Y-110419488D01*
X135978787Y-110139870D01*
X135883603Y-109873708D01*
X135816671Y-109748486D01*
X135572702Y-109676903D01*
X134759605Y-110490000D01*
X134400395Y-110490000D01*
X133587298Y-109676903D01*
X133518072Y-109697215D01*
X133518072Y-109690000D01*
X133505812Y-109565518D01*
X133485118Y-109497298D01*
X133766903Y-109497298D01*
X134580000Y-110310395D01*
X135393097Y-109497298D01*
X135321514Y-109253329D01*
X135066004Y-109132429D01*
X134791816Y-109063700D01*
X134509488Y-109049783D01*
X134229870Y-109091213D01*
X133963708Y-109186397D01*
X133838486Y-109253329D01*
X133766903Y-109497298D01*
X133485118Y-109497298D01*
X133469502Y-109445820D01*
X133410537Y-109335506D01*
X133331185Y-109238815D01*
X133234494Y-109159463D01*
X133124180Y-109100498D01*
X133004482Y-109064188D01*
X132880000Y-109051928D01*
X131280000Y-109051928D01*
X131155518Y-109064188D01*
X131035820Y-109100498D01*
X130925506Y-109159463D01*
X130828815Y-109238815D01*
X130749463Y-109335506D01*
X130690498Y-109445820D01*
X130660000Y-109546358D01*
X130660000Y-106660000D01*
X153340001Y-106660000D01*
X153340000Y-108032418D01*
%TA.AperFunction,Conductor*%
D17*
G36*
X153340000Y-108032418D02*
G01*
X153340001Y-108032428D01*
X153340000Y-129340000D01*
X130660000Y-129340000D01*
X130660000Y-125588665D01*
X131915000Y-125588665D01*
X131915000Y-125871335D01*
X131970147Y-126148574D01*
X132078320Y-126409727D01*
X132235363Y-126644759D01*
X132435241Y-126844637D01*
X132670273Y-127001680D01*
X132931426Y-127109853D01*
X133208665Y-127165000D01*
X133491335Y-127165000D01*
X133768574Y-127109853D01*
X134029727Y-127001680D01*
X134264759Y-126844637D01*
X134464637Y-126644759D01*
X134621680Y-126409727D01*
X134729853Y-126148574D01*
X134785000Y-125871335D01*
X134785000Y-125588665D01*
X134729853Y-125311426D01*
X134621680Y-125050273D01*
X134464637Y-124815241D01*
X134264759Y-124615363D01*
X134029727Y-124458320D01*
X133768574Y-124350147D01*
X133585547Y-124313740D01*
X136945000Y-124313740D01*
X136945000Y-124606260D01*
X137002068Y-124893158D01*
X137114010Y-125163411D01*
X137276525Y-125406632D01*
X137483368Y-125613475D01*
X137657760Y-125730000D01*
X137483368Y-125846525D01*
X137276525Y-126053368D01*
X137114010Y-126296589D01*
X137002068Y-126566842D01*
X136945000Y-126853740D01*
X136945000Y-127146260D01*
X137002068Y-127433158D01*
X137114010Y-127703411D01*
X137276525Y-127946632D01*
X137483368Y-128153475D01*
X137726589Y-128315990D01*
X137996842Y-128427932D01*
X138283740Y-128485000D01*
X138576260Y-128485000D01*
X138863158Y-128427932D01*
X139133411Y-128315990D01*
X139376632Y-128153475D01*
X139583475Y-127946632D01*
X139745990Y-127703411D01*
X139857932Y-127433158D01*
X139915000Y-127146260D01*
X139915000Y-126853740D01*
X139857932Y-126566842D01*
X139745990Y-126296589D01*
X139583475Y-126053368D01*
X139376632Y-125846525D01*
X139202240Y-125730000D01*
X139376632Y-125613475D01*
X139583475Y-125406632D01*
X139745990Y-125163411D01*
X139842671Y-124930000D01*
X143341928Y-124930000D01*
X143341928Y-126530000D01*
X143354188Y-126654482D01*
X143390498Y-126774180D01*
X143449463Y-126884494D01*
X143528815Y-126981185D01*
X143625506Y-127060537D01*
X143735820Y-127119502D01*
X143855518Y-127155812D01*
X143980000Y-127168072D01*
X145580000Y-127168072D01*
X145704482Y-127155812D01*
X145824180Y-127119502D01*
X145934494Y-127060537D01*
X146031185Y-126981185D01*
X146110537Y-126884494D01*
X146169502Y-126774180D01*
X146185117Y-126722702D01*
X146466903Y-126722702D01*
X146538486Y-126966671D01*
X146793996Y-127087571D01*
X147068184Y-127156300D01*
X147350512Y-127170217D01*
X147630130Y-127128787D01*
X147896292Y-127033603D01*
X148021514Y-126966671D01*
X148093097Y-126722702D01*
X147280000Y-125909605D01*
X146466903Y-126722702D01*
X146185117Y-126722702D01*
X146205812Y-126654482D01*
X146218072Y-126530000D01*
X146218072Y-126522785D01*
X146287298Y-126543097D01*
X147100395Y-125730000D01*
X147459605Y-125730000D01*
X148272702Y-126543097D01*
X148516671Y-126471514D01*
X148637571Y-126216004D01*
X148706300Y-125941816D01*
X148720217Y-125659488D01*
X148678787Y-125379870D01*
X148583603Y-125113708D01*
X148516671Y-124988486D01*
X148272702Y-124916903D01*
X147459605Y-125730000D01*
X147100395Y-125730000D01*
X146287298Y-124916903D01*
X146218072Y-124937215D01*
X146218072Y-124930000D01*
X146205812Y-124805518D01*
X146185118Y-124737298D01*
X146466903Y-124737298D01*
X147280000Y-125550395D01*
X148093097Y-124737298D01*
X148021514Y-124493329D01*
X147766004Y-124372429D01*
X147491816Y-124303700D01*
X147209488Y-124289783D01*
X146929870Y-124331213D01*
X146663708Y-124426397D01*
X146538486Y-124493329D01*
X146466903Y-124737298D01*
X146185118Y-124737298D01*
X146169502Y-124685820D01*
X146110537Y-124575506D01*
X146031185Y-124478815D01*
X145934494Y-124399463D01*
X145824180Y-124340498D01*
X145704482Y-124304188D01*
X145580000Y-124291928D01*
X143980000Y-124291928D01*
X143855518Y-124304188D01*
X143735820Y-124340498D01*
X143625506Y-124399463D01*
X143528815Y-124478815D01*
X143449463Y-124575506D01*
X143390498Y-124685820D01*
X143354188Y-124805518D01*
X143341928Y-124930000D01*
X139842671Y-124930000D01*
X139857932Y-124893158D01*
X139915000Y-124606260D01*
X139915000Y-124313740D01*
X139857932Y-124026842D01*
X139745990Y-123756589D01*
X139648043Y-123610000D01*
X149641928Y-123610000D01*
X149641928Y-125310000D01*
X149654188Y-125434482D01*
X149690498Y-125554180D01*
X149749463Y-125664494D01*
X149828815Y-125761185D01*
X149925506Y-125840537D01*
X150035820Y-125899502D01*
X150155518Y-125935812D01*
X150280000Y-125948072D01*
X151980000Y-125948072D01*
X152104482Y-125935812D01*
X152224180Y-125899502D01*
X152334494Y-125840537D01*
X152431185Y-125761185D01*
X152510537Y-125664494D01*
X152569502Y-125554180D01*
X152605812Y-125434482D01*
X152618072Y-125310000D01*
X152618072Y-123610000D01*
X152605812Y-123485518D01*
X152569502Y-123365820D01*
X152510537Y-123255506D01*
X152431185Y-123158815D01*
X152334494Y-123079463D01*
X152224180Y-123020498D01*
X152151620Y-122998487D01*
X152283475Y-122866632D01*
X152445990Y-122623411D01*
X152557932Y-122353158D01*
X152615000Y-122066260D01*
X152615000Y-121773740D01*
X152557932Y-121486842D01*
X152445990Y-121216589D01*
X152283475Y-120973368D01*
X152076632Y-120766525D01*
X151894466Y-120644805D01*
X152011355Y-120575178D01*
X152227588Y-120380269D01*
X152401641Y-120146920D01*
X152526825Y-119884099D01*
X152571476Y-119736890D01*
X152450155Y-119507000D01*
X151257000Y-119507000D01*
X151257000Y-119527000D01*
X151003000Y-119527000D01*
X151003000Y-119507000D01*
X149809845Y-119507000D01*
X149688524Y-119736890D01*
X149733175Y-119884099D01*
X149858359Y-120146920D01*
X150032412Y-120380269D01*
X150248645Y-120575178D01*
X150365534Y-120644805D01*
X150183368Y-120766525D01*
X149976525Y-120973368D01*
X149814010Y-121216589D01*
X149702068Y-121486842D01*
X149645000Y-121773740D01*
X149645000Y-122066260D01*
X149702068Y-122353158D01*
X149814010Y-122623411D01*
X149976525Y-122866632D01*
X150108380Y-122998487D01*
X150035820Y-123020498D01*
X149925506Y-123079463D01*
X149828815Y-123158815D01*
X149749463Y-123255506D01*
X149690498Y-123365820D01*
X149654188Y-123485518D01*
X149641928Y-123610000D01*
X139648043Y-123610000D01*
X139583475Y-123513368D01*
X139376632Y-123306525D01*
X139194466Y-123184805D01*
X139311355Y-123115178D01*
X139527588Y-122920269D01*
X139701641Y-122686920D01*
X139826825Y-122424099D01*
X139871476Y-122276890D01*
X139750155Y-122047000D01*
X138557000Y-122047000D01*
X138557000Y-122067000D01*
X138303000Y-122067000D01*
X138303000Y-122047000D01*
X137109845Y-122047000D01*
X136988524Y-122276890D01*
X137033175Y-122424099D01*
X137158359Y-122686920D01*
X137332412Y-122920269D01*
X137548645Y-123115178D01*
X137665534Y-123184805D01*
X137483368Y-123306525D01*
X137276525Y-123513368D01*
X137114010Y-123756589D01*
X137002068Y-124026842D01*
X136945000Y-124313740D01*
X133585547Y-124313740D01*
X133491335Y-124295000D01*
X133208665Y-124295000D01*
X132931426Y-124350147D01*
X132670273Y-124458320D01*
X132435241Y-124615363D01*
X132235363Y-124815241D01*
X132078320Y-125050273D01*
X131970147Y-125311426D01*
X131915000Y-125588665D01*
X130660000Y-125588665D01*
X130660000Y-115588665D01*
X131915000Y-115588665D01*
X131915000Y-115871335D01*
X131970147Y-116148574D01*
X132078320Y-116409727D01*
X132235363Y-116644759D01*
X132435241Y-116844637D01*
X132670273Y-117001680D01*
X132931426Y-117109853D01*
X133208665Y-117165000D01*
X133491335Y-117165000D01*
X133768574Y-117109853D01*
X134029727Y-117001680D01*
X134264759Y-116844637D01*
X134464637Y-116644759D01*
X134621680Y-116409727D01*
X134729853Y-116148574D01*
X134785000Y-115871335D01*
X134785000Y-115588665D01*
X134729853Y-115311426D01*
X134621680Y-115050273D01*
X134464637Y-114815241D01*
X134264759Y-114615363D01*
X134029727Y-114458320D01*
X133768574Y-114350147D01*
X133491335Y-114295000D01*
X133208665Y-114295000D01*
X132931426Y-114350147D01*
X132670273Y-114458320D01*
X132435241Y-114615363D01*
X132235363Y-114815241D01*
X132078320Y-115050273D01*
X131970147Y-115311426D01*
X131915000Y-115588665D01*
X130660000Y-115588665D01*
X130660000Y-113450000D01*
X136941928Y-113450000D01*
X136941928Y-115150000D01*
X136954188Y-115274482D01*
X136990498Y-115394180D01*
X137049463Y-115504494D01*
X137128815Y-115601185D01*
X137225506Y-115680537D01*
X137335820Y-115739502D01*
X137408380Y-115761513D01*
X137276525Y-115893368D01*
X137114010Y-116136589D01*
X137002068Y-116406842D01*
X136945000Y-116693740D01*
X136945000Y-116986260D01*
X137002068Y-117273158D01*
X137114010Y-117543411D01*
X137276525Y-117786632D01*
X137483368Y-117993475D01*
X137657760Y-118110000D01*
X137483368Y-118226525D01*
X137276525Y-118433368D01*
X137114010Y-118676589D01*
X137002068Y-118946842D01*
X136945000Y-119233740D01*
X136945000Y-119526260D01*
X137002068Y-119813158D01*
X137114010Y-120083411D01*
X137276525Y-120326632D01*
X137483368Y-120533475D01*
X137665534Y-120655195D01*
X137548645Y-120724822D01*
X137332412Y-120919731D01*
X137158359Y-121153080D01*
X137033175Y-121415901D01*
X136988524Y-121563110D01*
X137109845Y-121793000D01*
X138303000Y-121793000D01*
X138303000Y-121773000D01*
X138557000Y-121773000D01*
X138557000Y-121793000D01*
X139750155Y-121793000D01*
X139871476Y-121563110D01*
X139826825Y-121415901D01*
X139701641Y-121153080D01*
X139527588Y-120919731D01*
X139311355Y-120724822D01*
X139194466Y-120655195D01*
X139376632Y-120533475D01*
X139583475Y-120326632D01*
X139745990Y-120083411D01*
X139857932Y-119813158D01*
X139915000Y-119526260D01*
X139915000Y-119233740D01*
X139857932Y-118946842D01*
X139745990Y-118676589D01*
X139583475Y-118433368D01*
X139376632Y-118226525D01*
X139202240Y-118110000D01*
X139376632Y-117993475D01*
X139583475Y-117786632D01*
X139745990Y-117543411D01*
X139857932Y-117273158D01*
X139915000Y-116986260D01*
X139915000Y-116693740D01*
X139857932Y-116406842D01*
X139745990Y-116136589D01*
X139583475Y-115893368D01*
X139451620Y-115761513D01*
X139524180Y-115739502D01*
X139634494Y-115680537D01*
X139731185Y-115601185D01*
X139810537Y-115504494D01*
X139869502Y-115394180D01*
X139905812Y-115274482D01*
X139918072Y-115150000D01*
X139918072Y-113450000D01*
X139905812Y-113325518D01*
X139869502Y-113205820D01*
X139810537Y-113095506D01*
X139731185Y-112998815D01*
X139634494Y-112919463D01*
X139524180Y-112860498D01*
X139404482Y-112824188D01*
X139280000Y-112811928D01*
X137580000Y-112811928D01*
X137455518Y-112824188D01*
X137335820Y-112860498D01*
X137225506Y-112919463D01*
X137128815Y-112998815D01*
X137049463Y-113095506D01*
X136990498Y-113205820D01*
X136954188Y-113325518D01*
X136941928Y-113450000D01*
X130660000Y-113450000D01*
X130660000Y-112230000D01*
X140801928Y-112230000D01*
X140801928Y-113830000D01*
X140814188Y-113954482D01*
X140850498Y-114074180D01*
X140909463Y-114184494D01*
X140988815Y-114281185D01*
X141085506Y-114360537D01*
X141195820Y-114419502D01*
X141315518Y-114455812D01*
X141440000Y-114468072D01*
X143040000Y-114468072D01*
X143164482Y-114455812D01*
X143284180Y-114419502D01*
X143394494Y-114360537D01*
X143491185Y-114281185D01*
X143570537Y-114184494D01*
X143629502Y-114074180D01*
X143645117Y-114022702D01*
X143926903Y-114022702D01*
X143998486Y-114266671D01*
X144253996Y-114387571D01*
X144528184Y-114456300D01*
X144810512Y-114470217D01*
X145090130Y-114428787D01*
X145356292Y-114333603D01*
X145481514Y-114266671D01*
X145514649Y-114153740D01*
X149645000Y-114153740D01*
X149645000Y-114446260D01*
X149702068Y-114733158D01*
X149814010Y-115003411D01*
X149976525Y-115246632D01*
X150183368Y-115453475D01*
X150357760Y-115570000D01*
X150183368Y-115686525D01*
X149976525Y-115893368D01*
X149814010Y-116136589D01*
X149702068Y-116406842D01*
X149645000Y-116693740D01*
X149645000Y-116986260D01*
X149702068Y-117273158D01*
X149814010Y-117543411D01*
X149976525Y-117786632D01*
X150183368Y-117993475D01*
X150365534Y-118115195D01*
X150248645Y-118184822D01*
X150032412Y-118379731D01*
X149858359Y-118613080D01*
X149733175Y-118875901D01*
X149688524Y-119023110D01*
X149809845Y-119253000D01*
X151003000Y-119253000D01*
X151003000Y-119233000D01*
X151257000Y-119233000D01*
X151257000Y-119253000D01*
X152450155Y-119253000D01*
X152571476Y-119023110D01*
X152526825Y-118875901D01*
X152401641Y-118613080D01*
X152227588Y-118379731D01*
X152011355Y-118184822D01*
X151894466Y-118115195D01*
X152076632Y-117993475D01*
X152283475Y-117786632D01*
X152445990Y-117543411D01*
X152557932Y-117273158D01*
X152615000Y-116986260D01*
X152615000Y-116693740D01*
X152557932Y-116406842D01*
X152445990Y-116136589D01*
X152283475Y-115893368D01*
X152076632Y-115686525D01*
X151902240Y-115570000D01*
X152076632Y-115453475D01*
X152283475Y-115246632D01*
X152445990Y-115003411D01*
X152557932Y-114733158D01*
X152615000Y-114446260D01*
X152615000Y-114153740D01*
X152557932Y-113866842D01*
X152445990Y-113596589D01*
X152283475Y-113353368D01*
X152076632Y-113146525D01*
X151833411Y-112984010D01*
X151563158Y-112872068D01*
X151276260Y-112815000D01*
X150983740Y-112815000D01*
X150696842Y-112872068D01*
X150426589Y-112984010D01*
X150183368Y-113146525D01*
X149976525Y-113353368D01*
X149814010Y-113596589D01*
X149702068Y-113866842D01*
X149645000Y-114153740D01*
X145514649Y-114153740D01*
X145553097Y-114022702D01*
X144740000Y-113209605D01*
X143926903Y-114022702D01*
X143645117Y-114022702D01*
X143665812Y-113954482D01*
X143678072Y-113830000D01*
X143678072Y-113822785D01*
X143747298Y-113843097D01*
X144560395Y-113030000D01*
X144919605Y-113030000D01*
X145732702Y-113843097D01*
X145976671Y-113771514D01*
X146097571Y-113516004D01*
X146166300Y-113241816D01*
X146180217Y-112959488D01*
X146138787Y-112679870D01*
X146043603Y-112413708D01*
X145976671Y-112288486D01*
X145732702Y-112216903D01*
X144919605Y-113030000D01*
X144560395Y-113030000D01*
X143747298Y-112216903D01*
X143678072Y-112237215D01*
X143678072Y-112230000D01*
X143665812Y-112105518D01*
X143645118Y-112037298D01*
X143926903Y-112037298D01*
X144740000Y-112850395D01*
X145553097Y-112037298D01*
X145481514Y-111793329D01*
X145226004Y-111672429D01*
X144951816Y-111603700D01*
X144669488Y-111589783D01*
X144389870Y-111631213D01*
X144123708Y-111726397D01*
X143998486Y-111793329D01*
X143926903Y-112037298D01*
X143645118Y-112037298D01*
X143629502Y-111985820D01*
X143570537Y-111875506D01*
X143491185Y-111778815D01*
X143394494Y-111699463D01*
X143284180Y-111640498D01*
X143164482Y-111604188D01*
X143040000Y-111591928D01*
X141440000Y-111591928D01*
X141315518Y-111604188D01*
X141195820Y-111640498D01*
X141085506Y-111699463D01*
X140988815Y-111778815D01*
X140909463Y-111875506D01*
X140850498Y-111985820D01*
X140814188Y-112105518D01*
X140801928Y-112230000D01*
X130660000Y-112230000D01*
X130660000Y-111433642D01*
X130690498Y-111534180D01*
X130749463Y-111644494D01*
X130828815Y-111741185D01*
X130925506Y-111820537D01*
X131035820Y-111879502D01*
X131155518Y-111915812D01*
X131280000Y-111928072D01*
X132880000Y-111928072D01*
X133004482Y-111915812D01*
X133124180Y-111879502D01*
X133234494Y-111820537D01*
X133331185Y-111741185D01*
X133410537Y-111644494D01*
X133469502Y-111534180D01*
X133485117Y-111482702D01*
X133766903Y-111482702D01*
X133838486Y-111726671D01*
X134093996Y-111847571D01*
X134368184Y-111916300D01*
X134650512Y-111930217D01*
X134930130Y-111888787D01*
X135196292Y-111793603D01*
X135321514Y-111726671D01*
X135393097Y-111482702D01*
X134580000Y-110669605D01*
X133766903Y-111482702D01*
X133485117Y-111482702D01*
X133505812Y-111414482D01*
X133518072Y-111290000D01*
X133518072Y-111282785D01*
X133587298Y-111303097D01*
X134400395Y-110490000D01*
X134759605Y-110490000D01*
X135572702Y-111303097D01*
X135816671Y-111231514D01*
X135937571Y-110976004D01*
X136006300Y-110701816D01*
X136020217Y-110419488D01*
X135978787Y-110139870D01*
X135883603Y-109873708D01*
X135816671Y-109748486D01*
X135572702Y-109676903D01*
X134759605Y-110490000D01*
X134400395Y-110490000D01*
X133587298Y-109676903D01*
X133518072Y-109697215D01*
X133518072Y-109690000D01*
X133505812Y-109565518D01*
X133485118Y-109497298D01*
X133766903Y-109497298D01*
X134580000Y-110310395D01*
X135393097Y-109497298D01*
X135321514Y-109253329D01*
X135066004Y-109132429D01*
X134791816Y-109063700D01*
X134509488Y-109049783D01*
X134229870Y-109091213D01*
X133963708Y-109186397D01*
X133838486Y-109253329D01*
X133766903Y-109497298D01*
X133485118Y-109497298D01*
X133469502Y-109445820D01*
X133410537Y-109335506D01*
X133331185Y-109238815D01*
X133234494Y-109159463D01*
X133124180Y-109100498D01*
X133004482Y-109064188D01*
X132880000Y-109051928D01*
X131280000Y-109051928D01*
X131155518Y-109064188D01*
X131035820Y-109100498D01*
X130925506Y-109159463D01*
X130828815Y-109238815D01*
X130749463Y-109335506D01*
X130690498Y-109445820D01*
X130660000Y-109546358D01*
X130660000Y-106660000D01*
X153340001Y-106660000D01*
X153340000Y-108032418D01*
G37*
%TD.AperFunction*%
%TD*%
M02*
